<svg width="57" height="61" viewBox="0 0 57 61" fill="none" xmlns="http://www.w3.org/2000/svg">
<path fill-rule="evenodd" clip-rule="evenodd" d="M47.7205 30.2422C47.7205 42.1988 37.9841 51.8614 25.9363 51.8614C13.9585 51.8614 4.1521 42.1988 4.1521 30.2422C4.1521 18.2856 13.9585 8.62305 25.9363 8.62305C37.9841 8.62305 47.7205 18.2856 47.7205 30.2422ZM25.0231 39.1407C24.953 38.8626 24.883 38.0284 24.883 36.9162L24.953 21.0668H21.1706V27.6707C20.8904 27.1841 19.9798 26.4194 17.8084 26.4194C14.3061 26.4194 11.7845 29.2 11.7845 32.8843C11.7845 36.7076 14.4462 39.4187 17.9485 39.4187C19.4895 39.4187 20.7503 38.7931 21.3107 37.9589C21.3107 38.276 21.3404 38.6227 21.3611 38.8641L21.3611 38.8642L21.3612 38.8645C21.3722 38.9934 21.3807 39.0923 21.3807 39.1407H25.0231ZM21.1706 32.8843C21.1706 34.9698 19.8397 36.0125 18.3688 36.0125C16.8978 36.0125 15.5669 34.9698 15.5669 32.8843C15.5669 30.7989 16.8978 29.8257 18.3688 29.8257C19.8397 29.8257 21.1706 30.7989 21.1706 32.8843ZM35.5315 30.5175C35.1113 30.3785 34.691 30.3785 34.3408 30.3785C32.7998 30.3785 31.3988 31.2822 31.3988 33.7152V39.1374H27.6164V26.7637H31.3288V28.4321C31.9592 27.0418 33.5703 26.6247 34.5509 26.6247C34.9011 26.6247 35.3214 26.6942 35.5315 26.7637V30.5175ZM40.1533 36.8463C40.1533 35.3865 38.9626 34.2743 37.5616 34.2743C36.1607 34.2743 35.04 35.3865 34.97 36.8463C34.97 38.2366 36.1607 39.4184 37.5616 39.4184C38.9626 39.4184 40.1533 38.2366 40.1533 36.8463Z" fill="white"/>
<path d="M56.4731 29.8226C56.263 13.4866 42.7442 0.139691 26.2135 0.000660606C15.4265 -0.0688544 5.90025 5.35332 0.366656 13.6951C-0.3338 14.7378 0.436703 16.0586 1.62748 16.0586C2.1178 16.0586 2.60811 15.7806 2.88829 15.3635C7.72144 8.0644 15.9168 3.19835 25.3029 3.05932C40.4327 2.78126 53.111 14.8769 53.3211 29.8921C53.5312 45.1159 41.1332 57.5591 25.8632 57.5591C16.337 57.5591 7.86153 52.693 2.95834 45.3244C2.8883 45.2549 2.8883 45.2549 2.81825 45.1854L2.74821 44.9769C2.39798 44.4903 1.9777 44.2817 1.48738 44.2817C0.366655 44.2817 -0.403843 45.533 0.226567 46.5062L0.4367 46.8538C0.4367 46.9233 0.506749 46.9928 0.576795 47.0623C0.576795 47.0623 0.576795 47.0623 0.576795 47.1318C6.04035 55.2651 15.3564 60.6177 26.0033 60.6177C42.9544 60.5482 56.6833 46.7843 56.4731 29.8226Z" fill="white"/>
</svg>
