<svg width="134" height="67" viewBox="0 0 134 67" fill="none" xmlns="http://www.w3.org/2000/svg">
<path fill-rule="evenodd" clip-rule="evenodd" d="M124.46 33.0477C124.46 46.1146 113.853 56.6745 100.728 56.6745C87.6794 56.6745 76.9961 46.1146 76.9961 33.0477C76.9961 19.9808 87.6794 9.4209 100.728 9.4209C113.853 9.4209 124.46 19.9808 124.46 33.0477ZM99.7367 42.7715C99.6604 42.4676 99.5841 41.5559 99.5841 40.3404L99.6604 23.0191H95.5397V30.2363C95.2345 29.7045 94.2424 28.8689 91.8769 28.8689C88.0614 28.8689 85.3143 31.9077 85.3143 35.9341C85.3143 40.1125 88.214 43.0753 92.0295 43.0753C93.7083 43.0753 95.0818 42.3916 95.6923 41.48C95.6923 41.8265 95.7247 42.2053 95.7473 42.4692C95.7594 42.6103 95.7686 42.7185 95.7686 42.7715H99.7367ZM95.5397 35.9341C95.5397 38.2132 94.0898 39.3528 92.4873 39.3528C90.8848 39.3528 89.435 38.2132 89.435 35.9341C89.435 33.655 90.8848 32.5914 92.4873 32.5914C94.0898 32.5914 95.5397 33.655 95.5397 35.9341ZM111.183 33.3512C110.725 33.1993 110.267 33.1993 109.886 33.1993C108.207 33.1993 106.681 34.1869 106.681 36.8459V42.7715H102.56V29.2488H106.605V31.0721C107.291 29.5527 109.047 29.0969 110.115 29.0969C110.496 29.0969 110.954 29.1729 111.183 29.2488V33.3512ZM116.219 40.265C116.219 38.6697 114.922 37.4542 113.396 37.4542C111.87 37.4542 110.649 38.6697 110.572 40.265C110.572 41.7844 111.87 43.0759 113.396 43.0759C114.922 43.0759 116.219 41.7844 116.219 40.265Z" fill="white"/>
<path d="M10.8359 29.3251C10.6833 28.4134 9.99648 26.894 7.6309 26.894C6.02841 26.894 4.96008 27.8816 4.96008 28.9452C4.96008 29.8569 5.49425 30.5406 6.86781 30.7685L9.46232 31.3003C13.1251 31.984 15.1092 34.3391 15.1092 37.15C15.1092 40.1889 12.591 43.3036 7.93614 43.3036C2.59451 43.3036 0.228927 39.809 0 37.0741L3.96807 36.0865C4.12069 37.8338 5.34163 39.4292 8.01245 39.4292C9.69124 39.4292 10.7596 38.5935 10.7596 37.378C10.7596 36.3903 9.99648 35.7066 8.69923 35.4787L5.9521 34.9469C2.67081 34.3391 0.686781 32.136 0.686781 29.2491C0.686781 25.6025 3.89176 23.0195 7.6309 23.0195C12.4384 23.0195 14.3461 25.9064 14.7276 28.1855L10.8359 29.3251Z" fill="white"/>
<path d="M17.0938 42.8475V29.2488H21.0618V30.7682C21.7486 29.5527 23.5037 28.793 24.9536 28.793C26.8613 28.793 28.3112 29.5527 28.9979 30.9201C30.0663 29.4007 31.3635 28.793 33.1949 28.793C35.7894 28.793 38.2313 30.3124 38.2313 33.959V42.7715H34.2633V34.9466C34.2633 33.6551 33.5765 32.6675 32.1266 32.6675C30.6767 32.6675 29.8373 33.807 29.8373 35.0225V42.8475H25.7167V34.9466C25.7167 33.6551 25.0299 32.6675 23.5037 32.6675C22.0538 32.6675 21.2907 33.807 21.2907 35.0225V42.8475H17.0938Z" fill="white"/>
<path d="M43.8784 35.0227L47.0833 34.491C47.8464 34.339 48.0754 34.0351 48.0754 33.5793C48.0754 32.8196 47.3886 32.1359 46.0913 32.1359C44.6415 32.1359 43.8784 33.1235 43.7257 34.1111L40.1392 33.3514C40.2918 31.4521 42.1233 28.8691 46.0913 28.8691C50.5173 28.8691 52.1197 31.3002 52.1197 34.1111V40.7205C52.1197 41.7841 52.2724 42.6958 52.2724 42.8477H48.5332C48.5332 42.6958 48.3806 42.2399 48.3806 41.3283C47.6938 42.4679 46.3203 43.2276 44.5651 43.2276C41.5891 43.2276 39.834 41.2523 39.834 39.1252C39.834 36.6941 41.6654 35.3266 43.8784 35.0227ZM48.0754 37.5298V36.922L45.4809 37.3019C44.6415 37.4538 43.9547 37.8337 43.9547 38.8213C43.9547 39.505 44.4125 40.1887 45.5572 40.1887C46.7781 40.1887 48.0754 39.581 48.0754 37.5298Z" fill="white"/>
<path d="M63.1835 33.352C62.7256 33.2001 62.2678 33.2001 61.8862 33.2001C60.2074 33.2001 58.6812 34.1877 58.6812 36.8466V42.7723H54.5605V29.2496H58.6049V31.0729C59.2917 29.5535 61.0468 29.0977 62.1151 29.0977C62.4967 29.0977 62.9545 29.1736 63.1835 29.2496V33.352Z" fill="white"/>
<path d="M71.3497 29.2493H74.0205V32.8959H71.3497V37.9859C71.3497 39.1254 71.9601 39.4293 72.8759 39.4293C73.3337 39.4293 73.7153 39.3534 73.9442 39.2774V42.6961C73.7916 42.772 73.1048 43.0759 71.8075 43.0759C68.9841 43.0759 67.229 41.4046 67.229 38.7456V32.8959H64.7871V29.2493H65.4739C66.9238 29.2493 67.6105 28.2617 67.6105 27.0461V25.2988H71.3497V29.2493Z" fill="white"/>
<path d="M133.998 32.592C133.769 14.739 119.041 0.152663 101.032 0.000721953C89.2805 -0.0752485 78.9025 5.85045 72.8741 14.9669C72.111 16.1065 72.9504 17.5499 74.2476 17.5499C74.7818 17.5499 75.3159 17.246 75.6212 16.7902C80.8865 8.8133 89.8146 3.49536 100.04 3.34342C116.523 3.03954 130.335 16.2584 130.564 32.668C130.793 49.3055 117.286 62.9043 100.651 62.9043C90.2725 62.9043 81.0391 57.5863 75.6975 49.5335C75.6212 49.4575 75.6212 49.4575 75.5449 49.3815L75.4686 49.1536C75.087 48.6218 74.6292 48.3939 74.095 48.3939C72.874 48.3939 72.0347 49.7614 72.7214 50.825L72.9504 51.2048C72.9504 51.2808 73.0267 51.3568 73.103 51.4327C73.103 51.4327 73.103 51.4327 73.103 51.5087C79.0551 60.3972 89.2042 66.247 100.803 66.247C119.27 66.171 134.226 51.1288 133.998 32.592Z" fill="white"/>
</svg>
