<svg width="411" height="391" viewBox="0 0 411 391" fill="none" xmlns="http://www.w3.org/2000/svg">
<g filter="url(#filter0_d_8121_924)">
<rect x="20" y="16" width="371" height="351" rx="20" fill="white"/>
<rect x="20.5" y="16.5" width="370" height="350" rx="19.5" stroke="#F8F9FA"/>
</g>
<mask id="mask0_8121_924" style="mask-type:luminance" maskUnits="userSpaceOnUse" x="20" y="16" width="371" height="351">
<rect x="20.5" y="16.5" width="370" height="350" rx="19.5" fill="white" stroke="white"/>
</mask>
<g mask="url(#mask0_8121_924)">
</g>
<path d="M39.64 52.3H43.36V64H46.16V52.3H49.88V50.04H39.64V52.3ZM51.203 58.42C51.203 61.88 53.443 64.18 56.243 64.18C58.003 64.18 59.263 63.34 59.923 62.38V64H62.743V52.92H59.923V54.5C59.263 53.58 58.043 52.74 56.263 52.74C53.443 52.74 51.203 54.96 51.203 58.42ZM59.923 58.46C59.923 60.56 58.523 61.72 56.983 61.72C55.483 61.72 54.063 60.52 54.063 58.42C54.063 56.32 55.483 55.2 56.983 55.2C58.523 55.2 59.923 56.36 59.923 58.46ZM68.2777 58.48C68.2777 56.34 69.2777 55.7 70.9377 55.7H71.6777V52.76C70.1377 52.76 68.9777 53.5 68.2777 54.64V52.92H65.4777V64H68.2777V58.48ZM72.8436 58.42C72.8436 61.88 75.0836 64.18 77.9036 64.18C79.6436 64.18 80.9036 63.32 81.5636 62.36V64.08C81.5636 66.14 80.3636 67.02 78.8236 67.02C77.4236 67.02 76.3836 66.36 76.1036 65.36H73.3236C73.6036 67.9 75.7836 69.46 78.9036 69.46C82.5436 69.46 84.3836 67.08 84.3836 64.08V52.92H81.5636V54.5C80.9036 53.54 79.6436 52.74 77.9036 52.74C75.0836 52.74 72.8436 54.96 72.8436 58.42ZM81.5636 58.46C81.5636 60.56 80.1636 61.72 78.6236 61.72C77.1236 61.72 75.7036 60.52 75.7036 58.42C75.7036 56.32 77.1236 55.2 78.6236 55.2C80.1636 55.2 81.5636 56.36 81.5636 58.46ZM91.8783 55.04C93.3183 55.04 94.4783 55.96 94.5183 57.42H89.2583C89.4783 55.9 90.5383 55.04 91.8783 55.04ZM97.1383 60.52H94.1183C93.7583 61.26 93.0983 61.86 91.8983 61.86C90.4983 61.86 89.3783 60.94 89.2383 59.3H97.3383C97.3983 58.94 97.4183 58.58 97.4183 58.22C97.4183 54.92 95.1583 52.74 91.9583 52.74C88.6783 52.74 86.3983 54.96 86.3983 58.46C86.3983 61.94 88.7383 64.18 91.9583 64.18C94.6983 64.18 96.5383 62.56 97.1383 60.52ZM99.902 60.56C99.902 63.1 101.322 64 103.442 64H105.202V61.64H103.902C103.022 61.64 102.722 61.32 102.722 60.58V55.22H105.202V52.92H102.722V50.18H99.902V52.92H98.582V55.22H99.902V60.56ZM110.802 52.92L114.882 64H118.282L122.382 52.92H119.402L116.602 61.42L113.802 52.92H110.802ZM132.554 60.84C132.474 56.78 126.334 58.04 126.334 56.02C126.334 55.38 126.874 54.96 127.914 54.96C129.014 54.96 129.694 55.54 129.774 56.4H132.454C132.294 54.2 130.674 52.74 127.994 52.74C125.254 52.74 123.614 54.22 123.614 56.06C123.614 60.12 129.874 58.86 129.874 60.84C129.874 61.48 129.274 61.98 128.174 61.98C127.054 61.98 126.274 61.34 126.174 60.5H123.354C123.474 62.56 125.414 64.18 128.194 64.18C130.894 64.18 132.554 62.74 132.554 60.84ZM147.018 54.38C147.018 55.64 146.318 56.46 144.758 56.46H142.418V52.36H144.758C146.318 52.36 147.018 53.14 147.018 54.38ZM139.618 50.04V64H142.418V58.56H143.738L146.818 64H150.058L146.718 58.34C148.958 57.74 149.898 56.02 149.898 54.32C149.898 51.98 148.218 50.04 144.858 50.04H139.618ZM157.191 55.04C158.631 55.04 159.791 55.96 159.831 57.42H154.571C154.791 55.9 155.851 55.04 157.191 55.04ZM162.451 60.52H159.431C159.071 61.26 158.411 61.86 157.211 61.86C155.811 61.86 154.691 60.94 154.551 59.3H162.651C162.711 58.94 162.731 58.58 162.731 58.22C162.731 54.92 160.471 52.74 157.271 52.74C153.991 52.74 151.711 54.96 151.711 58.46C151.711 61.94 154.051 64.18 157.271 64.18C160.011 64.18 161.851 62.56 162.451 60.52ZM164.055 58.42C164.055 61.88 166.295 64.18 169.095 64.18C170.855 64.18 172.115 63.34 172.775 62.38V64H175.595V52.92H172.775V54.5C172.115 53.58 170.895 52.74 169.115 52.74C166.295 52.74 164.055 54.96 164.055 58.42ZM172.775 58.46C172.775 60.56 171.375 61.72 169.835 61.72C168.335 61.72 166.915 60.52 166.915 58.42C166.915 56.32 168.335 55.2 169.835 55.2C171.375 55.2 172.775 56.36 172.775 58.46ZM178.329 64H181.129V49.2H178.329V64ZM183.896 64H186.696V52.92H183.896V64ZM185.316 51.6C186.296 51.6 187.036 50.88 187.036 49.96C187.036 49.04 186.296 48.32 185.316 48.32C184.316 48.32 183.596 49.04 183.596 49.96C183.596 50.88 184.316 51.6 185.316 51.6ZM189.902 60.56C189.902 63.1 191.322 64 193.442 64H195.202V61.64H193.902C193.022 61.64 192.722 61.32 192.722 60.58V55.22H195.202V52.92H192.722V50.18H189.902V52.92H188.582V55.22H189.902V60.56ZM201.936 60.66L199.076 52.92H195.936L200.376 63.72L197.976 69.24H200.956L207.816 52.92H204.836L201.936 60.66Z" fill="#05004E"/>
<path d="M51.36 235.18C51.36 235.76 51.07 236.26 50.35 236.26C49.63 236.26 49.33 235.75 49.32 235.11H48.41C48.41 236.33 49.19 237.07 50.35 237.07C51.5 237.07 52.28 236.34 52.28 235.18V230.03H51.36V235.18ZM53.7327 234.24C53.7327 235.94 54.8627 237.09 56.3227 237.09C57.3327 237.09 58.0427 236.57 58.3727 235.98V237H59.2927V231.52H58.3727V232.52C58.0527 231.95 57.3527 231.43 56.3327 231.43C54.8627 231.43 53.7327 232.53 53.7327 234.24ZM58.3727 234.25C58.3727 235.54 57.5127 236.29 56.5127 236.29C55.5127 236.29 54.6627 235.53 54.6627 234.24C54.6627 232.95 55.5127 232.22 56.5127 232.22C57.5127 232.22 58.3727 232.98 58.3727 234.25ZM64.8405 237H65.7405V233.77C65.7405 232.2 64.7705 231.42 63.5005 231.42C62.7605 231.42 62.1005 231.73 61.7405 232.3V231.52H60.8305V237H61.7405V233.97C61.7405 232.79 62.3805 232.21 63.3105 232.21C64.2305 232.21 64.8405 232.78 64.8405 233.9V237Z" fill="#7B91B0"/>
<rect x="59" y="114.908" width="16" height="102.092" rx="4" fill="#FFCF00"/>
<rect x="39" y="138.324" width="16" height="78.6761" rx="4" fill="#4AB58E"/>
<path d="M98.77 237H99.68V233.86H102.14V233.12H99.68V230.77H102.71V230.03H98.77V237ZM106.139 232.2C107.079 232.2 107.879 232.79 107.869 233.86H104.409C104.509 232.79 105.249 232.2 106.139 232.2ZM108.699 235.31H107.719C107.519 235.9 106.999 236.32 106.179 236.32C105.249 236.32 104.469 235.71 104.399 234.6H108.779C108.799 234.41 108.809 234.25 108.809 234.05C108.809 232.55 107.769 231.43 106.179 231.43C104.579 231.43 103.469 232.52 103.469 234.25C103.469 235.99 104.619 237.09 106.179 237.09C107.539 237.09 108.419 236.31 108.699 235.31ZM110.92 232.54V229.6H110.01V237H110.92V235.99C111.26 236.59 111.97 237.09 112.97 237.09C114.44 237.09 115.57 235.94 115.57 234.24C115.57 232.53 114.45 231.43 112.97 231.43C112 231.43 111.27 231.93 110.92 232.54ZM114.64 234.24C114.64 235.53 113.79 236.29 112.78 236.29C111.79 236.29 110.92 235.54 110.92 234.25C110.92 232.98 111.79 232.22 112.78 232.22C113.79 232.22 114.64 232.95 114.64 234.24Z" fill="#7B91B0"/>
<rect x="109" y="124.275" width="16" height="92.7253" rx="4" fill="#FFCF00"/>
<rect x="89" y="148.627" width="16" height="68.3732" rx="4" fill="#4AB58E"/>
<path d="M148.77 237H149.68V231.83L151.99 237H152.63L154.93 231.84V237H155.84V230.08H154.87L152.31 235.8L149.75 230.08H148.77V237ZM157.043 234.24C157.043 235.94 158.173 237.09 159.633 237.09C160.643 237.09 161.353 236.57 161.683 235.98V237H162.603V231.52H161.683V232.52C161.363 231.95 160.663 231.43 159.643 231.43C158.173 231.43 157.043 232.53 157.043 234.24ZM161.683 234.25C161.683 235.54 160.823 236.29 159.823 236.29C158.823 236.29 157.973 235.53 157.973 234.24C157.973 232.95 158.823 232.22 159.823 232.22C160.823 232.22 161.683 232.98 161.683 234.25ZM165.051 234.02C165.051 232.75 165.711 232.36 166.581 232.36H166.821V231.42C165.951 231.42 165.361 231.8 165.051 232.41V231.52H164.141V237H165.051V234.02Z" fill="#7B91B0"/>
<rect x="159" y="100.859" width="16" height="116.141" rx="4" fill="#FFCF00"/>
<rect x="139" y="158.93" width="16" height="58.0704" rx="4" fill="#4AB58E"/>
<path d="M203.45 237H204.41L201.9 230.07H200.85L198.33 237H199.29L199.85 235.45H202.89L203.45 237ZM202.63 234.71H200.11L201.37 231.19L202.63 234.71ZM206.418 232.53V231.52H205.508V239.6H206.418V235.99C206.758 236.55 207.468 237.09 208.468 237.09C209.938 237.09 211.068 235.94 211.068 234.24C211.068 232.53 209.938 231.43 208.468 231.43C207.468 231.43 206.748 231.95 206.418 232.53ZM210.138 234.24C210.138 235.53 209.288 236.29 208.278 236.29C207.288 236.29 206.418 235.54 206.418 234.25C206.418 232.98 207.288 232.22 208.278 232.22C209.288 232.22 210.138 232.95 210.138 234.24ZM213.176 234.02C213.176 232.75 213.836 232.36 214.706 232.36H214.946V231.42C214.076 231.42 213.486 231.8 213.176 232.41V231.52H212.266V237H213.176V234.02Z" fill="#7B91B0"/>
<rect x="207" y="124.275" width="16" height="92.7253" rx="4" fill="#FFCF00"/>
<rect x="189" y="138.324" width="16" height="78.6761" rx="4" fill="#4AB58E"/>
<path d="M245.77 237H246.68V231.83L248.99 237H249.63L251.93 231.84V237H252.84V230.08H251.87L249.31 235.8L246.75 230.08H245.77V237ZM254.043 234.24C254.043 235.94 255.173 237.09 256.633 237.09C257.643 237.09 258.353 236.57 258.683 235.98V237H259.603V231.52H258.683V232.52C258.363 231.95 257.663 231.43 256.643 231.43C255.173 231.43 254.043 232.53 254.043 234.24ZM258.683 234.25C258.683 235.54 257.823 236.29 256.823 236.29C255.823 236.29 254.973 235.53 254.973 234.24C254.973 232.95 255.823 232.22 256.823 232.22C257.823 232.22 258.683 232.98 258.683 234.25ZM263.221 235.96L261.501 231.52H260.491L262.701 236.94L261.621 239.58H262.561L265.861 231.52H264.921L263.221 235.96Z" fill="#7B91B0"/>
<rect x="257" y="84" width="16" height="133" rx="4" fill="#FFCF00"/>
<rect x="237" y="121.465" width="16" height="95.5352" rx="4" fill="#4AB58E"/>
<path d="M296.36 235.18C296.36 235.76 296.07 236.26 295.35 236.26C294.63 236.26 294.33 235.75 294.32 235.11H293.41C293.41 236.33 294.19 237.07 295.35 237.07C296.5 237.07 297.28 236.34 297.28 235.18V230.03H296.36V235.18ZM303.933 231.52H303.023V234.53C303.023 235.71 302.393 236.29 301.453 236.29C300.533 236.29 299.923 235.72 299.923 234.61V231.52H299.023V234.73C299.023 236.3 300.013 237.08 301.273 237.08C302.003 237.08 302.673 236.76 303.023 236.19V237H303.933V231.52ZM309.479 237H310.379V233.77C310.379 232.2 309.409 231.42 308.139 231.42C307.399 231.42 306.739 231.73 306.379 232.3V231.52H305.469V237H306.379V233.97C306.379 232.79 307.019 232.21 307.949 232.21C308.869 232.21 309.479 232.78 309.479 233.9V237ZM314.196 232.2C315.136 232.2 315.936 232.79 315.926 233.86H312.466C312.566 232.79 313.306 232.2 314.196 232.2ZM316.756 235.31H315.776C315.576 235.9 315.056 236.32 314.236 236.32C313.306 236.32 312.526 235.71 312.456 234.6H316.836C316.856 234.41 316.866 234.25 316.866 234.05C316.866 232.55 315.826 231.43 314.236 231.43C312.636 231.43 311.526 232.52 311.526 234.25C311.526 235.99 312.676 237.09 314.236 237.09C315.596 237.09 316.476 236.31 316.756 235.31Z" fill="#7B91B0"/>
<rect x="307" y="84" width="16" height="133" rx="4" fill="#FFCF00"/>
<rect x="287" y="121.465" width="16" height="95.5352" rx="4" fill="#4AB58E"/>
<path d="M348.36 235.18C348.36 235.76 348.07 236.26 347.35 236.26C346.63 236.26 346.33 235.75 346.32 235.11H345.41C345.41 236.33 346.19 237.07 347.35 237.07C348.5 237.07 349.28 236.34 349.28 235.18V230.03H348.36V235.18ZM355.933 231.52H355.023V234.53C355.023 235.71 354.393 236.29 353.453 236.29C352.533 236.29 351.923 235.72 351.923 234.61V231.52H351.023V234.73C351.023 236.3 352.013 237.08 353.273 237.08C354.003 237.08 354.673 236.76 355.023 236.19V237H355.933V231.52ZM357.469 237H358.379V229.6H357.469V237ZM362.01 235.96L360.29 231.52H359.28L361.49 236.94L360.41 239.58H361.35L364.65 231.52H363.71L362.01 235.96Z" fill="#7B91B0"/>
<rect x="357" y="84" width="16" height="133" rx="4" fill="#FFCF00"/>
<rect x="337" y="121.465" width="16" height="95.5352" rx="4" fill="#4AB58E"/>
<path d="M238.937 276.665C237.915 277.043 237.229 277.953 237.229 279.185C237.229 281.047 238.741 282.251 240.841 282.251C242.955 282.251 244.467 281.047 244.467 279.185C244.467 277.967 243.781 277.057 242.745 276.665C243.571 276.259 244.201 275.461 244.201 274.369C244.201 272.899 243.095 271.611 240.841 271.611C238.587 271.611 237.481 272.885 237.481 274.369C237.481 275.503 238.069 276.231 238.937 276.665ZM240.841 276.161C239.777 276.161 239.021 275.503 239.021 274.579C239.021 273.501 239.749 272.941 240.841 272.941C241.961 272.941 242.675 273.515 242.675 274.565C242.675 275.489 241.905 276.161 240.841 276.161ZM240.841 277.365C242.045 277.365 242.899 277.981 242.899 279.129C242.899 280.151 242.129 280.921 240.841 280.921C239.539 280.921 238.755 280.165 238.755 279.129C238.755 277.939 239.665 277.365 240.841 277.365ZM248.005 281.075C248.005 280.501 247.557 280.053 246.997 280.053C246.423 280.053 245.975 280.501 245.975 281.075C245.975 281.649 246.423 282.097 246.997 282.097C247.557 282.097 248.005 281.649 248.005 281.075ZM251.242 276.665C250.22 277.043 249.534 277.953 249.534 279.185C249.534 281.047 251.046 282.251 253.146 282.251C255.26 282.251 256.772 281.047 256.772 279.185C256.772 277.967 256.086 277.057 255.05 276.665C255.876 276.259 256.506 275.461 256.506 274.369C256.506 272.899 255.4 271.611 253.146 271.611C250.892 271.611 249.786 272.885 249.786 274.369C249.786 275.503 250.374 276.231 251.242 276.665ZM253.146 276.161C252.082 276.161 251.326 275.503 251.326 274.579C251.326 273.501 252.054 272.941 253.146 272.941C254.266 272.941 254.98 273.515 254.98 274.565C254.98 275.489 254.21 276.161 253.146 276.161ZM253.146 277.365C254.35 277.365 255.204 277.981 255.204 279.129C255.204 280.151 254.434 280.921 253.146 280.921C251.844 280.921 251.06 280.165 251.06 279.129C251.06 277.939 251.97 277.365 253.146 277.365ZM258.321 281.859H265.125V280.529H260.687C262.325 279.031 264.845 277.141 264.845 274.663C264.845 272.829 263.669 271.583 261.597 271.583C259.791 271.583 258.363 272.661 258.307 274.873H259.847C259.889 273.725 260.491 272.941 261.611 272.941C262.801 272.941 263.263 273.669 263.263 274.733C263.263 276.735 260.729 278.583 258.321 280.697V281.859ZM266.5 274.313H268.054C268.152 273.599 268.67 272.927 269.79 272.927C270.882 272.927 271.456 273.515 271.456 274.397C271.456 275.489 270.574 275.909 269.132 275.923H268.754V277.239H269.118C270.784 277.239 271.652 277.701 271.652 279.045C271.652 279.997 271.064 280.725 269.874 280.725C268.67 280.725 267.97 279.997 267.9 279.045H266.36C266.458 281.047 267.956 282.055 269.888 282.055C272.016 282.055 273.164 280.823 273.164 279.199C273.164 277.785 272.478 276.903 271.414 276.581V276.525C272.212 276.259 272.982 275.433 272.982 274.215C272.982 272.731 271.876 271.555 269.846 271.555C267.984 271.555 266.611 272.549 266.5 274.313Z" fill="#27AE60"/>
<path d="M90.268 266.228C90.268 266.984 89.848 267.476 88.912 267.476H87.508V265.016H88.912C89.848 265.016 90.268 265.484 90.268 266.228ZM85.828 263.624V272H87.508V268.736H88.3L90.148 272H92.092L90.088 268.604C91.432 268.244 91.996 267.212 91.996 266.192C91.996 264.788 90.988 263.624 88.972 263.624H85.828ZM96.3715 266.624C97.2355 266.624 97.9315 267.176 97.9555 268.052H94.7995C94.9315 267.14 95.5675 266.624 96.3715 266.624ZM99.5275 269.912H97.7155C97.4995 270.356 97.1035 270.716 96.3835 270.716C95.5435 270.716 94.8715 270.164 94.7875 269.18H99.6475C99.6835 268.964 99.6955 268.748 99.6955 268.532C99.6955 266.552 98.3395 265.244 96.4195 265.244C94.4515 265.244 93.0835 266.576 93.0835 268.676C93.0835 270.764 94.4875 272.108 96.4195 272.108C98.0635 272.108 99.1675 271.136 99.5275 269.912ZM100.49 268.652C100.49 270.728 101.834 272.108 103.514 272.108C104.57 272.108 105.326 271.604 105.722 271.028V272H107.414V265.352H105.722V266.3C105.326 265.748 104.594 265.244 103.526 265.244C101.834 265.244 100.49 266.576 100.49 268.652ZM105.722 268.676C105.722 269.936 104.882 270.632 103.958 270.632C103.058 270.632 102.206 269.912 102.206 268.652C102.206 267.392 103.058 266.72 103.958 266.72C104.882 266.72 105.722 267.416 105.722 268.676ZM109.055 272H110.735V263.12H109.055V272ZM112.394 272H114.074V265.352H112.394V272ZM113.246 264.56C113.834 264.56 114.278 264.128 114.278 263.576C114.278 263.024 113.834 262.592 113.246 262.592C112.646 262.592 112.214 263.024 112.214 263.576C112.214 264.128 112.646 264.56 113.246 264.56ZM115.998 269.936C115.998 271.46 116.85 272 118.122 272H119.178V270.584H118.398C117.87 270.584 117.69 270.392 117.69 269.948V266.732H119.178V265.352H117.69V263.708H115.998V265.352H115.206V266.732H115.998V269.936ZM123.219 269.996L121.503 265.352H119.619L122.283 271.832L120.843 275.144H122.631L126.747 265.352H124.959L123.219 269.996ZM136.368 269.576C136.368 266.624 132.072 267.56 132.072 265.88C132.072 265.196 132.564 264.872 133.224 264.896C133.944 264.908 134.388 265.34 134.424 265.892H136.272C136.164 264.38 134.988 263.504 133.272 263.504C131.544 263.504 130.32 264.416 130.32 265.928C130.308 268.964 134.628 267.872 134.628 269.684C134.628 270.284 134.16 270.704 133.368 270.704C132.588 270.704 132.144 270.26 132.096 269.588H130.296C130.32 271.172 131.664 272.084 133.404 272.084C135.312 272.084 136.368 270.896 136.368 269.576ZM137.392 268.652C137.392 270.728 138.736 272.108 140.416 272.108C141.472 272.108 142.228 271.604 142.624 271.028V272H144.316V265.352H142.624V266.3C142.228 265.748 141.496 265.244 140.428 265.244C138.736 265.244 137.392 266.576 137.392 268.652ZM142.624 268.676C142.624 269.936 141.784 270.632 140.86 270.632C139.96 270.632 139.108 269.912 139.108 268.652C139.108 267.392 139.96 266.72 140.86 266.72C141.784 266.72 142.624 267.416 142.624 268.676ZM145.957 272H147.637V263.12H145.957V272ZM152.153 266.624C153.017 266.624 153.713 267.176 153.737 268.052H150.581C150.713 267.14 151.349 266.624 152.153 266.624ZM155.309 269.912H153.497C153.281 270.356 152.885 270.716 152.165 270.716C151.325 270.716 150.653 270.164 150.569 269.18H155.429C155.465 268.964 155.477 268.748 155.477 268.532C155.477 266.552 154.121 265.244 152.201 265.244C150.233 265.244 148.865 266.576 148.865 268.676C148.865 270.764 150.269 272.108 152.201 272.108C153.845 272.108 154.949 271.136 155.309 269.912ZM161.863 270.104C161.815 267.668 158.131 268.424 158.131 267.212C158.131 266.828 158.455 266.576 159.079 266.576C159.739 266.576 160.147 266.924 160.195 267.44H161.803C161.707 266.12 160.735 265.244 159.127 265.244C157.483 265.244 156.499 266.132 156.499 267.236C156.499 269.672 160.255 268.916 160.255 270.104C160.255 270.488 159.895 270.788 159.235 270.788C158.563 270.788 158.095 270.404 158.035 269.9H156.343C156.415 271.136 157.579 272.108 159.247 272.108C160.867 272.108 161.863 271.244 161.863 270.104Z" fill="#151D48"/>
<path d="M88.93 282.95C86.97 282.95 85.43 284.42 85.43 286.51C85.43 288.6 86.97 290.06 88.93 290.06C90.82 290.06 92.19 288.67 92.35 286.94V286.24H88.6V286.98H91.38C91.24 288.36 90.3 289.24 88.93 289.24C87.46 289.24 86.36 288.18 86.36 286.51C86.36 284.83 87.46 283.77 88.93 283.77C89.91 283.77 90.67 284.24 91.05 285.05H92.14C91.62 283.71 90.4 282.95 88.93 282.95ZM93.5532 290H94.4632V282.6H93.5532V290ZM101.214 287.25C101.214 285.52 100.004 284.43 98.4441 284.43C96.8941 284.43 95.6741 285.52 95.6741 287.25C95.6741 288.99 96.8541 290.09 98.4041 290.09C99.9641 290.09 101.214 288.99 101.214 287.25ZM96.6041 287.25C96.6041 285.87 97.4741 285.22 98.4341 285.22C99.3741 285.22 100.284 285.87 100.284 287.25C100.284 288.64 99.3541 289.29 98.4041 289.29C97.4541 289.29 96.6041 288.64 96.6041 287.25ZM103.321 285.54V282.6H102.411V290H103.321V288.99C103.661 289.59 104.371 290.09 105.371 290.09C106.841 290.09 107.971 288.94 107.971 287.24C107.971 285.53 106.851 284.43 105.371 284.43C104.401 284.43 103.671 284.93 103.321 285.54ZM107.041 287.24C107.041 288.53 106.191 289.29 105.181 289.29C104.191 289.29 103.321 288.54 103.321 287.25C103.321 285.98 104.191 285.22 105.181 285.22C106.191 285.22 107.041 285.95 107.041 287.24ZM108.828 287.24C108.828 288.94 109.958 290.09 111.418 290.09C112.428 290.09 113.138 289.57 113.468 288.98V290H114.388V284.52H113.468V285.52C113.148 284.95 112.448 284.43 111.428 284.43C109.958 284.43 108.828 285.53 108.828 287.24ZM113.468 287.25C113.468 288.54 112.608 289.29 111.608 289.29C110.608 289.29 109.758 288.53 109.758 287.24C109.758 285.95 110.608 285.22 111.608 285.22C112.608 285.22 113.468 285.98 113.468 287.25ZM115.926 290H116.836V282.6H115.926V290Z" fill="#737791"/>
<g clip-path="url(#clip0_8121_924)">
<rect x="39" y="259" width="36" height="36" rx="6" fill="#E2FFF3"/>
<mask id="mask1_8121_924" style="mask-type:luminance" maskUnits="userSpaceOnUse" x="42" y="262" width="30" height="30">
<rect x="42.5996" y="262.6" width="28.8" height="28.8" fill="white"/>
</mask>
<g mask="url(#mask1_8121_924)">
<mask id="mask2_8121_924" style="mask-type:luminance" maskUnits="userSpaceOnUse" x="48" y="268" width="18" height="18">
<rect x="48.3594" y="268.36" width="17.28" height="17.28" fill="white"/>
</mask>
<g mask="url(#mask2_8121_924)">
<path fill-rule="evenodd" clip-rule="evenodd" d="M59.7599 283.84C61.9676 283.84 63.6614 283.043 63.1803 279.833L62.6201 275.483C62.3235 273.882 61.3021 273.269 60.4057 273.269H53.0772C52.1678 273.269 51.2056 273.928 50.8629 275.483L50.3027 279.833C49.8941 282.68 51.5417 283.84 53.7495 283.84H59.7599Z" stroke="#4AB58E" stroke-width="1.5" stroke-linecap="round" stroke-linejoin="round"/>
<path d="M53.6504 273.111C53.6504 271.393 55.0431 270 56.761 270C57.5883 269.997 58.3829 270.323 58.9691 270.907C59.5554 271.49 59.8849 272.284 59.8849 273.111" stroke="#4AB58E" stroke-width="1.5" stroke-linecap="round" stroke-linejoin="round"/>
<path d="M54.626 276.354H54.6589" stroke="#4AB58E" stroke-width="1.5" stroke-linecap="round" stroke-linejoin="round"/>
<path d="M58.8242 276.354H58.8572" stroke="#4AB58E" stroke-width="1.5" stroke-linecap="round" stroke-linejoin="round"/>
</g>
</g>
</g>
<path d="M238.526 334.999H240.136V324.793H237.224V326.249H238.526V334.999ZM242.202 334.859H249.006V333.529H244.568C246.206 332.031 248.726 330.141 248.726 327.663C248.726 325.829 247.55 324.583 245.478 324.583C243.672 324.583 242.244 325.661 242.188 327.873H243.728C243.77 326.725 244.372 325.941 245.492 325.941C246.682 325.941 247.144 326.669 247.144 327.733C247.144 329.735 244.61 331.583 242.202 333.697V334.859ZM252.27 334.075C252.27 333.501 251.822 333.053 251.262 333.053C250.688 333.053 250.24 333.501 250.24 334.075C250.24 334.649 250.688 335.097 251.262 335.097C251.822 335.097 252.27 334.649 252.27 334.075ZM254.877 334.999H256.487V324.793H253.575V326.249H254.877V334.999ZM258.554 334.859H265.358V333.529H260.92C262.558 332.031 265.078 330.141 265.078 327.663C265.078 325.829 263.902 324.583 261.83 324.583C260.024 324.583 258.596 325.661 258.54 327.873H260.08C260.122 326.725 260.724 325.941 261.844 325.941C263.034 325.941 263.496 326.669 263.496 327.733C263.496 329.735 260.962 331.583 258.554 333.697V334.859ZM266.634 334.859H273.438V333.529H269C270.638 332.031 273.158 330.141 273.158 327.663C273.158 325.829 271.982 324.583 269.91 324.583C268.104 324.583 266.676 325.661 266.62 327.873H268.16C268.202 326.725 268.804 325.941 269.924 325.941C271.114 325.941 271.576 326.669 271.576 327.733C271.576 329.735 269.042 331.583 266.634 333.697V334.859Z" fill="#FFA412"/>
<path d="M85.384 315.98H87.616V323H89.296V315.98H91.528V314.624H85.384V315.98ZM92.3218 319.652C92.3218 321.728 93.6658 323.108 95.3458 323.108C96.4018 323.108 97.1578 322.604 97.5538 322.028V323H99.2458V316.352H97.5538V317.3C97.1578 316.748 96.4258 316.244 95.3578 316.244C93.6658 316.244 92.3218 317.576 92.3218 319.652ZM97.5538 319.676C97.5538 320.936 96.7138 321.632 95.7898 321.632C94.8898 321.632 94.0378 320.912 94.0378 319.652C94.0378 318.392 94.8898 317.72 95.7898 317.72C96.7138 317.72 97.5538 318.416 97.5538 319.676ZM102.567 319.688C102.567 318.404 103.167 318.02 104.163 318.02H104.607V316.256C103.683 316.256 102.987 316.7 102.567 317.384V316.352H100.887V323H102.567V319.688ZM105.306 319.652C105.306 321.728 106.65 323.108 108.342 323.108C109.386 323.108 110.142 322.592 110.538 322.016V323.048C110.538 324.284 109.818 324.812 108.894 324.812C108.054 324.812 107.43 324.416 107.262 323.816H105.594C105.762 325.34 107.07 326.276 108.942 326.276C111.126 326.276 112.23 324.848 112.23 323.048V316.352H110.538V317.3C110.142 316.724 109.386 316.244 108.342 316.244C106.65 316.244 105.306 317.576 105.306 319.652ZM110.538 319.676C110.538 320.936 109.698 321.632 108.774 321.632C107.874 321.632 107.022 320.912 107.022 319.652C107.022 318.392 107.874 317.72 108.774 317.72C109.698 317.72 110.538 318.416 110.538 319.676ZM116.727 317.624C117.591 317.624 118.287 318.176 118.311 319.052H115.155C115.287 318.14 115.923 317.624 116.727 317.624ZM119.883 320.912H118.071C117.855 321.356 117.459 321.716 116.739 321.716C115.899 321.716 115.227 321.164 115.143 320.18H120.003C120.039 319.964 120.051 319.748 120.051 319.532C120.051 317.552 118.695 316.244 116.775 316.244C114.807 316.244 113.439 317.576 113.439 319.676C113.439 321.764 114.843 323.108 116.775 323.108C118.419 323.108 119.523 322.136 119.883 320.912ZM121.541 320.936C121.541 322.46 122.393 323 123.665 323H124.721V321.584H123.941C123.413 321.584 123.233 321.392 123.233 320.948V317.732H124.721V316.352H123.233V314.708H121.541V316.352H120.749V317.732H121.541V320.936ZM134.645 320.576C134.645 317.624 130.349 318.56 130.349 316.88C130.349 316.196 130.841 315.872 131.501 315.896C132.221 315.908 132.665 316.34 132.701 316.892H134.549C134.441 315.38 133.265 314.504 131.549 314.504C129.821 314.504 128.597 315.416 128.597 316.928C128.585 319.964 132.905 318.872 132.905 320.684C132.905 321.284 132.437 321.704 131.645 321.704C130.865 321.704 130.421 321.26 130.373 320.588H128.573C128.597 322.172 129.941 323.084 131.681 323.084C133.589 323.084 134.645 321.896 134.645 320.576ZM135.669 319.652C135.669 321.728 137.013 323.108 138.693 323.108C139.749 323.108 140.505 322.604 140.901 322.028V323H142.593V316.352H140.901V317.3C140.505 316.748 139.773 316.244 138.705 316.244C137.013 316.244 135.669 317.576 135.669 319.652ZM140.901 319.676C140.901 320.936 140.061 321.632 139.137 321.632C138.237 321.632 137.385 320.912 137.385 319.652C137.385 318.392 138.237 317.72 139.137 317.72C140.061 317.72 140.901 318.416 140.901 319.676ZM144.234 323H145.914V314.12H144.234V323ZM150.43 317.624C151.294 317.624 151.99 318.176 152.014 319.052H148.858C148.99 318.14 149.626 317.624 150.43 317.624ZM153.586 320.912H151.774C151.558 321.356 151.162 321.716 150.442 321.716C149.602 321.716 148.93 321.164 148.846 320.18H153.706C153.742 319.964 153.754 319.748 153.754 319.532C153.754 317.552 152.398 316.244 150.478 316.244C148.51 316.244 147.142 317.576 147.142 319.676C147.142 321.764 148.546 323.108 150.478 323.108C152.122 323.108 153.226 322.136 153.586 320.912ZM160.14 321.104C160.092 318.668 156.408 319.424 156.408 318.212C156.408 317.828 156.732 317.576 157.356 317.576C158.016 317.576 158.424 317.924 158.472 318.44H160.08C159.984 317.12 159.012 316.244 157.404 316.244C155.76 316.244 154.776 317.132 154.776 318.236C154.776 320.672 158.532 319.916 158.532 321.104C158.532 321.488 158.172 321.788 157.512 321.788C156.84 321.788 156.372 321.404 156.312 320.9H154.62C154.692 322.136 155.856 323.108 157.524 323.108C159.144 323.108 160.14 322.244 160.14 321.104Z" fill="#151D48"/>
<path d="M85.43 337.51C85.43 339.6 86.96 341.06 88.91 341.06C90.42 341.06 91.62 340.31 92.14 338.97H91.05C90.67 339.8 89.93 340.27 88.91 340.27C87.45 340.27 86.36 339.21 86.36 337.51C86.36 335.8 87.45 334.74 88.91 334.74C89.93 334.74 90.67 335.21 91.05 336.05H92.14C91.62 334.7 90.42 333.94 88.91 333.94C86.96 333.94 85.43 335.42 85.43 337.51ZM98.6946 338.25C98.6946 336.52 97.4846 335.43 95.9246 335.43C94.3746 335.43 93.1546 336.52 93.1546 338.25C93.1546 339.99 94.3346 341.09 95.8846 341.09C97.4446 341.09 98.6946 339.99 98.6946 338.25ZM94.0846 338.25C94.0846 336.87 94.9546 336.22 95.9146 336.22C96.8546 336.22 97.7646 336.87 97.7646 338.25C97.7646 339.64 96.8346 340.29 95.8846 340.29C94.9346 340.29 94.0846 339.64 94.0846 338.25ZM107.801 341H108.701V337.77C108.701 336.2 107.731 335.42 106.481 335.42C105.641 335.42 104.861 335.85 104.541 336.64C104.181 335.82 103.431 335.42 102.531 335.42C101.811 335.42 101.161 335.73 100.801 336.31V335.52H99.8911V341H100.801V337.98C100.801 336.8 101.431 336.21 102.351 336.21C103.251 336.21 103.851 336.78 103.851 337.9V341H104.751V337.98C104.751 336.8 105.381 336.21 106.301 336.21C107.201 336.21 107.801 336.78 107.801 337.9V341ZM118.104 341H119.004V337.77C119.004 336.2 118.034 335.42 116.784 335.42C115.944 335.42 115.164 335.85 114.844 336.64C114.484 335.82 113.734 335.42 112.834 335.42C112.114 335.42 111.464 335.73 111.104 336.31V335.52H110.194V341H111.104V337.98C111.104 336.8 111.734 336.21 112.654 336.21C113.554 336.21 114.154 336.78 114.154 337.9V341H115.054V337.98C115.054 336.8 115.684 336.21 116.604 336.21C117.504 336.21 118.104 336.78 118.104 337.9V341ZM122.827 336.2C123.767 336.2 124.567 336.79 124.557 337.86H121.097C121.197 336.79 121.937 336.2 122.827 336.2ZM125.387 339.31H124.407C124.207 339.9 123.687 340.32 122.867 340.32C121.937 340.32 121.157 339.71 121.087 338.6H125.467C125.487 338.41 125.497 338.25 125.497 338.05C125.497 336.55 124.457 335.43 122.867 335.43C121.267 335.43 120.157 336.52 120.157 338.25C120.157 339.99 121.307 341.09 122.867 341.09C124.227 341.09 125.107 340.31 125.387 339.31ZM127.608 338.02C127.608 336.75 128.268 336.36 129.138 336.36H129.378V335.42C128.508 335.42 127.918 335.8 127.608 336.41V335.52H126.698V341H127.608V338.02ZM130.088 338.25C130.088 339.99 131.198 341.09 132.758 341.09C134.118 341.09 135.008 340.33 135.288 339.24H134.308C134.108 339.93 133.568 340.32 132.758 340.32C131.758 340.32 131.018 339.61 131.018 338.25C131.018 336.91 131.758 336.2 132.758 336.2C133.568 336.2 134.118 336.62 134.308 337.28H135.288C135.008 336.13 134.118 335.43 132.758 335.43C131.198 335.43 130.088 336.53 130.088 338.25ZM136.502 341H137.412V335.52H136.502V341ZM136.972 334.63C137.302 334.63 137.572 334.36 137.572 334.01C137.572 333.66 137.302 333.39 136.972 333.39C136.622 333.39 136.352 333.66 136.352 334.01C136.352 334.36 136.622 334.63 136.972 334.63ZM138.623 338.24C138.623 339.94 139.753 341.09 141.213 341.09C142.223 341.09 142.933 340.57 143.263 339.98V341H144.183V335.52H143.263V336.52C142.943 335.95 142.243 335.43 141.223 335.43C139.753 335.43 138.623 336.53 138.623 338.24ZM143.263 338.25C143.263 339.54 142.403 340.29 141.403 340.29C140.403 340.29 139.553 339.53 139.553 338.24C139.553 336.95 140.403 336.22 141.403 336.22C142.403 336.22 143.263 336.98 143.263 338.25ZM145.721 341H146.631V333.6H145.721V341Z" fill="#737791"/>
<g clip-path="url(#clip1_8121_924)">
<rect x="39" y="310" width="36" height="36" rx="6" fill="#FFF4DE"/>
<mask id="mask3_8121_924" style="mask-type:luminance" maskUnits="userSpaceOnUse" x="48" y="319" width="18" height="18">
<rect x="48.3604" y="319.36" width="17.28" height="17.28" fill="white"/>
</mask>
<g mask="url(#mask3_8121_924)">
<path fill-rule="evenodd" clip-rule="evenodd" d="M49.8015 324.503C49.8016 322.855 51.137 321.52 52.7845 321.52H61.2171C62.8647 321.52 64.1991 322.855 64.1993 324.503M64.1993 324.503L64.2008 326.449C64.2009 326.592 64.144 326.729 64.0428 326.831C63.9415 326.932 63.8041 326.989 63.6608 326.989C63.0659 326.989 62.588 327.467 62.588 328.061C62.588 328.655 63.0661 329.133 63.6608 329.133C63.959 329.133 64.2008 329.375 64.2008 329.673V331.617C64.2008 333.265 62.8662 334.6 61.2178 334.6H52.783C51.1353 334.6 49.8008 333.265 49.8008 331.617V329.673C49.8008 329.375 50.0425 329.133 50.3408 329.133C50.9346 329.133 51.4129 328.655 51.4129 328.061C51.4129 327.495 50.9633 327.052 50.3408 327.052C50.1975 327.052 50.0602 326.995 49.9589 326.894C49.8576 326.792 49.8007 326.655 49.8008 326.512L49.8015 324.503C49.8015 324.503 49.8015 324.503 49.8015 324.503M50.8815 324.503L50.881 326.036C51.7936 326.259 52.4929 327.037 52.4929 328.061C52.4929 329.065 51.8089 329.906 50.8808 330.145V331.617C50.8808 332.669 51.7322 333.52 52.783 333.52H61.2178C62.2695 333.52 63.1208 332.668 63.1208 331.617V330.145C62.1921 329.906 61.508 329.065 61.508 328.061C61.508 327.057 62.192 326.216 63.1204 325.977L63.1193 324.503C63.1193 323.452 62.2679 322.6 61.2171 322.6H52.7845C51.7334 322.6 50.8815 323.452 50.8815 324.503ZM49.8015 324.503L64.1993 324.503L49.8015 324.503Z" fill="#FFA800"/>
<path fill-rule="evenodd" clip-rule="evenodd" d="M57.628 325.458L58.129 326.472L59.2508 326.635C59.8212 326.72 60.0536 327.422 59.6375 327.828L59.6367 327.829L58.8259 328.618L59.0176 329.734C59.1162 330.31 58.5117 330.738 58.0031 330.473L58.0015 330.472L57 329.945L55.9969 330.473C55.4883 330.738 54.8838 330.31 54.9824 329.734L55.1741 328.618L54.3639 327.829L54.3632 327.828C53.9472 327.422 54.1796 326.72 54.75 326.635L54.7515 326.635L55.871 326.472L56.3725 325.456L56.3731 325.455C56.6294 324.94 57.3701 324.934 57.6277 325.457C57.6278 325.457 57.6279 325.457 57.628 325.458ZM56.7138 327.205C56.6351 327.364 56.4832 327.474 56.3074 327.5L55.6693 327.593L56.1311 328.042C56.2586 328.167 56.3167 328.345 56.2866 328.521L56.1772 329.158L56.7487 328.857C56.906 328.774 57.094 328.774 57.2513 328.857L57.8228 329.158L57.7134 328.521C57.6833 328.345 57.7415 328.166 57.869 328.042L58.331 327.593L57.6927 327.5C57.5169 327.474 57.3649 327.364 57.2862 327.205L57 326.625L56.7138 327.205Z" fill="#FFA800"/>
</g>
</g>
<defs>
<filter id="filter0_d_8121_924" x="0" y="0" width="411" height="391" filterUnits="userSpaceOnUse" color-interpolation-filters="sRGB">
<feFlood flood-opacity="0" result="BackgroundImageFix"/>
<feColorMatrix in="SourceAlpha" type="matrix" values="0 0 0 0 0 0 0 0 0 0 0 0 0 0 0 0 0 0 127 0" result="hardAlpha"/>
<feOffset dy="4"/>
<feGaussianBlur stdDeviation="10"/>
<feColorMatrix type="matrix" values="0 0 0 0 0.93198 0 0 0 0 0.93198 0 0 0 0 0.93198 0 0 0 0.501967 0"/>
<feBlend mode="normal" in2="BackgroundImageFix" result="effect1_dropShadow_8121_924"/>
<feBlend mode="normal" in="SourceGraphic" in2="effect1_dropShadow_8121_924" result="shape"/>
</filter>
<clipPath id="clip0_8121_924">
<rect width="36" height="36" fill="white" transform="translate(39 259)"/>
</clipPath>
<clipPath id="clip1_8121_924">
<rect width="36" height="36" fill="white" transform="translate(39 310)"/>
</clipPath>
</defs>
</svg>
