<svg width="685" height="391" viewBox="0 0 685 391" fill="none" xmlns="http://www.w3.org/2000/svg">
<g filter="url(#filter0_d_8121_396)">
<rect x="20" y="16" width="645" height="351" rx="20" fill="white"/>
<rect x="20.5" y="16.5" width="644" height="350" rx="19.5" stroke="#F8F9FA"/>
</g>
<path d="M52.2271 96.2935L51.8081 98.4517H53.6045V99.2705H51.6558L51.1226 102H50.2529L50.7861 99.2705H48.8628L48.3423 102H47.479L47.9868 99.2705H46.3237V98.4517H48.1455L48.5771 96.2935H46.8188V95.4873H48.7168L49.2373 92.7197H50.1196L49.5991 95.4873H51.5352L52.0684 92.7197H52.9189L52.3857 95.4873H54.0615V96.2935H52.2271ZM49.0151 98.4517H50.9385L51.3574 96.2935H49.4341L49.0151 98.4517Z" fill="#96A5B8"/>
<path d="M109.525 102H108.293L103.222 94.2114H103.171C103.239 95.1255 103.272 95.9634 103.272 96.7251V102H102.276V92.7197H103.495L108.554 100.477H108.604C108.596 100.362 108.577 99.9963 108.547 99.3784C108.518 98.7563 108.507 98.312 108.516 98.0454V92.7197H109.525V102ZM116.196 102L115.987 101.01H115.936C115.589 101.446 115.242 101.742 114.895 101.898C114.552 102.051 114.123 102.127 113.606 102.127C112.917 102.127 112.375 101.949 111.981 101.594C111.592 101.238 111.397 100.733 111.397 100.077C111.397 98.6717 112.521 97.9354 114.768 97.8677L115.949 97.8296V97.3979C115.949 96.8521 115.83 96.45 115.593 96.1919C115.361 95.9295 114.986 95.7983 114.47 95.7983C113.89 95.7983 113.234 95.9761 112.502 96.3315L112.178 95.5254C112.521 95.3392 112.896 95.1932 113.302 95.0874C113.712 94.9816 114.123 94.9287 114.533 94.9287C115.363 94.9287 115.976 95.1128 116.374 95.481C116.776 95.8491 116.977 96.4395 116.977 97.252V102H116.196ZM113.816 101.257C114.472 101.257 114.986 101.077 115.358 100.718C115.735 100.358 115.923 99.8545 115.923 99.207V98.5786L114.87 98.623C114.032 98.6527 113.427 98.7839 113.054 99.0166C112.686 99.2451 112.502 99.6027 112.502 100.089C112.502 100.47 112.616 100.76 112.845 100.959C113.077 101.158 113.401 101.257 113.816 101.257ZM128.022 102V97.4741C128.022 96.9198 127.903 96.505 127.667 96.23C127.43 95.9507 127.061 95.811 126.562 95.811C125.906 95.811 125.422 95.9993 125.108 96.376C124.795 96.7526 124.639 97.3324 124.639 98.1152V102H123.585V97.4741C123.585 96.9198 123.466 96.505 123.229 96.23C122.993 95.9507 122.622 95.811 122.119 95.811C121.458 95.811 120.974 96.0099 120.665 96.4077C120.36 96.8013 120.208 97.4487 120.208 98.3501V102H119.154V95.043H120.011L120.183 95.9951H120.233C120.432 95.6566 120.712 95.3921 121.071 95.2017C121.435 95.0112 121.841 94.916 122.29 94.916C123.378 94.916 124.089 95.3096 124.423 96.0967H124.474C124.681 95.7327 124.981 95.445 125.375 95.2334C125.769 95.0218 126.217 94.916 126.721 94.916C127.508 94.916 128.096 95.1191 128.485 95.5254C128.879 95.9274 129.076 96.5728 129.076 97.4614V102H128.022ZM134.192 102.127C133.164 102.127 132.351 101.814 131.754 101.188C131.162 100.561 130.866 99.6916 130.866 98.5786C130.866 97.4572 131.141 96.5664 131.691 95.9062C132.245 95.2461 132.988 94.916 133.919 94.916C134.791 94.916 135.48 95.2038 135.988 95.7793C136.496 96.3506 136.75 97.106 136.75 98.0454V98.7119H131.958C131.979 99.5286 132.184 100.149 132.573 100.572C132.967 100.995 133.519 101.207 134.23 101.207C134.979 101.207 135.72 101.05 136.452 100.737V101.676C136.079 101.837 135.726 101.951 135.392 102.019C135.062 102.091 134.662 102.127 134.192 102.127ZM133.906 95.7983C133.348 95.7983 132.901 95.9803 132.567 96.3442C132.237 96.7082 132.042 97.2118 131.983 97.855H135.62C135.62 97.1906 135.472 96.6828 135.176 96.3315C134.88 95.9761 134.456 95.7983 133.906 95.7983Z" fill="#96A5B8"/>
<path d="M360.16 95.4238C360.16 96.3633 359.839 97.0869 359.195 97.5947C358.556 98.0983 357.64 98.3501 356.447 98.3501H355.355V102H354.276V92.7197H356.682C359.001 92.7197 360.16 93.6211 360.16 95.4238ZM355.355 97.4233H356.326C357.283 97.4233 357.974 97.2689 358.402 96.96C358.829 96.651 359.043 96.1559 359.043 95.4746C359.043 94.861 358.842 94.404 358.44 94.1035C358.038 93.8031 357.412 93.6528 356.561 93.6528H355.355V97.4233ZM367.955 98.5151C367.955 99.6493 367.669 100.536 367.098 101.175C366.527 101.81 365.738 102.127 364.73 102.127C364.108 102.127 363.556 101.981 363.074 101.689C362.591 101.397 362.219 100.978 361.957 100.432C361.694 99.8862 361.563 99.2472 361.563 98.5151C361.563 97.381 361.847 96.4987 362.414 95.8682C362.981 95.2334 363.768 94.916 364.775 94.916C365.748 94.916 366.521 95.2397 367.092 95.8872C367.667 96.5347 367.955 97.4106 367.955 98.5151ZM362.655 98.5151C362.655 99.4038 362.833 100.081 363.188 100.546C363.543 101.012 364.066 101.245 364.756 101.245C365.446 101.245 365.968 101.014 366.324 100.553C366.683 100.087 366.863 99.408 366.863 98.5151C366.863 97.6307 366.683 96.96 366.324 96.5029C365.968 96.0417 365.441 95.811 364.743 95.811C364.053 95.811 363.533 96.0374 363.182 96.4902C362.83 96.943 362.655 97.618 362.655 98.5151ZM373.046 102.127C372.593 102.127 372.178 102.044 371.802 101.879C371.429 101.71 371.116 101.452 370.862 101.105H370.786C370.837 101.511 370.862 101.896 370.862 102.26V105.123H369.809V95.043H370.666L370.812 95.9951H370.862C371.133 95.6143 371.448 95.3392 371.808 95.1699C372.168 95.0007 372.58 94.916 373.046 94.916C373.968 94.916 374.679 95.2313 375.179 95.8618C375.682 96.4924 375.934 97.3768 375.934 98.5151C375.934 99.6577 375.678 100.546 375.166 101.181C374.658 101.812 373.951 102.127 373.046 102.127ZM372.894 95.811C372.183 95.811 371.668 96.0078 371.351 96.4014C371.034 96.7949 370.871 97.4212 370.862 98.2803V98.5151C370.862 99.4927 371.025 100.193 371.351 100.616C371.677 101.035 372.2 101.245 372.919 101.245C373.52 101.245 373.99 101.001 374.328 100.515C374.671 100.028 374.842 99.3573 374.842 98.5024C374.842 97.6349 374.671 96.9705 374.328 96.5093C373.99 96.0438 373.511 95.811 372.894 95.811ZM378.771 95.043V99.5562C378.771 100.123 378.901 100.546 379.159 100.826C379.417 101.105 379.821 101.245 380.371 101.245C381.099 101.245 381.63 101.046 381.964 100.648C382.303 100.25 382.472 99.6006 382.472 98.6992V95.043H383.526V102H382.656L382.504 101.067H382.447C382.231 101.41 381.931 101.672 381.545 101.854C381.165 102.036 380.729 102.127 380.238 102.127C379.391 102.127 378.757 101.926 378.333 101.524C377.915 101.122 377.705 100.479 377.705 99.5942V95.043H378.771ZM386.82 102H385.767V92.123H386.82V102ZM393.333 102L393.124 101.01H393.073C392.726 101.446 392.379 101.742 392.032 101.898C391.689 102.051 391.259 102.127 390.743 102.127C390.053 102.127 389.512 101.949 389.118 101.594C388.729 101.238 388.534 100.733 388.534 100.077C388.534 98.6717 389.658 97.9354 391.905 97.8677L393.085 97.8296V97.3979C393.085 96.8521 392.967 96.45 392.73 96.1919C392.497 95.9295 392.123 95.7983 391.606 95.7983C391.027 95.7983 390.371 95.9761 389.639 96.3315L389.315 95.5254C389.658 95.3392 390.032 95.1932 390.438 95.0874C390.849 94.9816 391.259 94.9287 391.67 94.9287C392.499 94.9287 393.113 95.1128 393.511 95.481C393.913 95.8491 394.114 96.4395 394.114 97.252V102H393.333ZM390.953 101.257C391.609 101.257 392.123 101.077 392.495 100.718C392.872 100.358 393.06 99.8545 393.06 99.207V98.5786L392.006 98.623C391.168 98.6527 390.563 98.7839 390.191 99.0166C389.823 99.2451 389.639 99.6027 389.639 100.089C389.639 100.47 389.753 100.76 389.981 100.959C390.214 101.158 390.538 101.257 390.953 101.257ZM399.465 94.916C399.774 94.916 400.051 94.9414 400.296 94.9922L400.15 95.9697C399.863 95.9062 399.609 95.8745 399.389 95.8745C398.826 95.8745 398.343 96.103 397.941 96.5601C397.544 97.0171 397.345 97.5863 397.345 98.2676V102H396.291V95.043H397.161L397.281 96.3315H397.332C397.59 95.8787 397.901 95.5296 398.265 95.2842C398.629 95.0387 399.029 94.916 399.465 94.916ZM402.651 102H401.598V95.043H402.651V102ZM401.509 93.1577C401.509 92.9165 401.568 92.7409 401.687 92.6309C401.805 92.5166 401.953 92.4595 402.131 92.4595C402.3 92.4595 402.446 92.5166 402.569 92.6309C402.692 92.7451 402.753 92.9207 402.753 93.1577C402.753 93.3947 402.692 93.5724 402.569 93.6909C402.446 93.8052 402.3 93.8623 402.131 93.8623C401.953 93.8623 401.805 93.8052 401.687 93.6909C401.568 93.5724 401.509 93.3947 401.509 93.1577ZM407.133 101.257C407.319 101.257 407.499 101.245 407.672 101.219C407.846 101.19 407.983 101.16 408.085 101.13V101.937C407.971 101.992 407.801 102.036 407.577 102.07C407.357 102.108 407.158 102.127 406.98 102.127C405.635 102.127 404.962 101.418 404.962 100V95.8618H403.965V95.354L404.962 94.916L405.406 93.4307H406.016V95.043H408.034V95.8618H406.016V99.9561C406.016 100.375 406.115 100.697 406.314 100.921C406.513 101.145 406.786 101.257 407.133 101.257ZM408.377 95.043H409.507L411.03 99.0103C411.365 99.9159 411.572 100.57 411.652 100.972H411.703C411.758 100.756 411.872 100.388 412.046 99.8672C412.224 99.3424 412.799 97.7344 413.772 95.043H414.902L411.913 102.965C411.616 103.748 411.269 104.302 410.872 104.628C410.478 104.958 409.993 105.123 409.418 105.123C409.096 105.123 408.779 105.087 408.466 105.015V104.171C408.699 104.222 408.959 104.247 409.247 104.247C409.97 104.247 410.486 103.841 410.795 103.028L411.183 102.038L408.377 95.043Z" fill="#96A5B8"/>
<path d="M585.513 99.5308C585.513 100.347 585.216 100.984 584.624 101.441C584.032 101.898 583.228 102.127 582.212 102.127C581.112 102.127 580.265 101.985 579.673 101.702V100.661C580.054 100.821 580.468 100.948 580.917 101.042C581.366 101.135 581.81 101.181 582.25 101.181C582.969 101.181 583.511 101.046 583.875 100.775C584.239 100.5 584.421 100.119 584.421 99.6323C584.421 99.3107 584.355 99.0483 584.224 98.8452C584.097 98.6379 583.881 98.4474 583.577 98.2739C583.276 98.1004 582.817 97.9036 582.199 97.6836C581.336 97.3747 580.718 97.0086 580.346 96.5854C579.978 96.1623 579.793 95.61 579.793 94.9287C579.793 94.2135 580.062 93.6444 580.6 93.2212C581.137 92.798 581.848 92.5864 582.732 92.5864C583.655 92.5864 584.503 92.7557 585.278 93.0942L584.941 94.0337C584.175 93.7121 583.431 93.5513 582.707 93.5513C582.136 93.5513 581.689 93.674 581.368 93.9194C581.046 94.1649 580.885 94.5055 580.885 94.9414C580.885 95.263 580.944 95.5275 581.063 95.7349C581.181 95.938 581.38 96.1263 581.66 96.2998C581.943 96.4691 582.375 96.6574 582.955 96.8647C583.928 97.2118 584.597 97.5841 584.96 97.9819C585.329 98.3797 585.513 98.896 585.513 99.5308ZM591.53 102L591.321 101.01H591.27C590.923 101.446 590.576 101.742 590.229 101.898C589.886 102.051 589.457 102.127 588.94 102.127C588.251 102.127 587.709 101.949 587.315 101.594C586.926 101.238 586.731 100.733 586.731 100.077C586.731 98.6717 587.855 97.9354 590.102 97.8677L591.283 97.8296V97.3979C591.283 96.8521 591.164 96.45 590.927 96.1919C590.694 95.9295 590.32 95.7983 589.804 95.7983C589.224 95.7983 588.568 95.9761 587.836 96.3315L587.512 95.5254C587.855 95.3392 588.229 95.1932 588.636 95.0874C589.046 94.9816 589.457 94.9287 589.867 94.9287C590.697 94.9287 591.31 95.1128 591.708 95.481C592.11 95.8491 592.311 96.4395 592.311 97.252V102H591.53ZM589.15 101.257C589.806 101.257 590.32 101.077 590.692 100.718C591.069 100.358 591.257 99.8545 591.257 99.207V98.5786L590.204 98.623C589.366 98.6527 588.761 98.7839 588.388 99.0166C588.02 99.2451 587.836 99.6027 587.836 100.089C587.836 100.47 587.95 100.76 588.179 100.959C588.411 101.158 588.735 101.257 589.15 101.257ZM595.542 102H594.488V92.123H595.542V102ZM600.715 102.127C599.687 102.127 598.875 101.814 598.278 101.188C597.685 100.561 597.389 99.6916 597.389 98.5786C597.389 97.4572 597.664 96.5664 598.214 95.9062C598.769 95.2461 599.511 94.916 600.442 94.916C601.314 94.916 602.004 95.2038 602.512 95.7793C603.02 96.3506 603.273 97.106 603.273 98.0454V98.7119H598.481C598.502 99.5286 598.707 100.149 599.097 100.572C599.49 100.995 600.042 101.207 600.753 101.207C601.502 101.207 602.243 101.05 602.975 100.737V101.676C602.603 101.837 602.249 101.951 601.915 102.019C601.585 102.091 601.185 102.127 600.715 102.127ZM600.43 95.7983C599.871 95.7983 599.425 95.9803 599.09 96.3442C598.76 96.7082 598.566 97.2118 598.506 97.855H602.144C602.144 97.1906 601.995 96.6828 601.699 96.3315C601.403 95.9761 600.98 95.7983 600.43 95.7983ZM609.564 100.102C609.564 100.75 609.323 101.249 608.84 101.6C608.358 101.951 607.681 102.127 606.809 102.127C605.887 102.127 605.167 101.981 604.651 101.689V100.711C604.985 100.881 605.343 101.014 605.724 101.111C606.109 101.209 606.479 101.257 606.834 101.257C607.385 101.257 607.808 101.171 608.104 100.997C608.4 100.819 608.548 100.551 608.548 100.191C608.548 99.9201 608.43 99.6895 608.193 99.499C607.96 99.3044 607.503 99.0758 606.822 98.8135C606.174 98.5723 605.713 98.3628 605.438 98.1851C605.167 98.0031 604.964 97.7979 604.829 97.5693C604.697 97.3408 604.632 97.0679 604.632 96.7505C604.632 96.1834 604.862 95.737 605.324 95.4111C605.785 95.0811 606.418 94.916 607.222 94.916C607.971 94.916 608.703 95.0684 609.418 95.373L609.043 96.23C608.345 95.9422 607.713 95.7983 607.146 95.7983C606.646 95.7983 606.27 95.8766 606.016 96.0332C605.762 96.1898 605.635 96.4056 605.635 96.6807C605.635 96.8669 605.681 97.0256 605.774 97.1567C605.872 97.2879 606.026 97.4128 606.238 97.5312C606.449 97.6497 606.856 97.8211 607.457 98.0454C608.282 98.3459 608.838 98.6484 609.126 98.9531C609.418 99.2578 609.564 99.6408 609.564 100.102Z" fill="#96A5B8"/>
<rect x="20" y="116" width="645" height="1" fill="#EDF2F6"/>
<rect x="20" y="177" width="645" height="1" fill="#EDF2F6"/>
<path d="M46.64 50.3H50.36V62H53.16V50.3H56.88V48.04H46.64V50.3ZM69.623 56.46C69.623 52.96 67.123 50.74 63.923 50.74C60.723 50.74 58.223 52.96 58.223 56.46C58.223 59.94 60.643 62.18 63.843 62.18C67.063 62.18 69.623 59.94 69.623 56.46ZM61.063 56.46C61.063 54.24 62.403 53.18 63.883 53.18C65.363 53.18 66.743 54.24 66.743 56.46C66.743 58.66 65.323 59.74 63.843 59.74C62.343 59.74 61.063 58.66 61.063 56.46ZM74.4769 52.52V50.92H71.6769V67.28H74.4769V60.42C75.1569 61.32 76.3969 62.18 78.1369 62.18C80.9769 62.18 83.1969 59.88 83.1969 56.42C83.1969 52.96 80.9769 50.74 78.1369 50.74C76.4169 50.74 75.1369 51.58 74.4769 52.52ZM80.3369 56.42C80.3369 58.52 78.9169 59.72 77.3969 59.72C75.8969 59.72 74.4769 58.56 74.4769 56.46C74.4769 54.36 75.8969 53.2 77.3969 53.2C78.9169 53.2 80.3369 54.32 80.3369 56.42ZM92.7972 54.38V50.32H95.0172C96.5972 50.32 97.2972 51.08 97.2972 52.36C97.2972 53.6 96.5972 54.38 95.0172 54.38H92.7972ZM100.177 52.36C100.177 49.94 98.4972 48.04 95.1372 48.04H89.9972V62H92.7972V56.64H95.1372C98.7372 56.64 100.177 54.48 100.177 52.36ZM104.965 56.48C104.965 54.34 105.965 53.7 107.625 53.7H108.365V50.76C106.825 50.76 105.665 51.5 104.965 52.64V50.92H102.165V62H104.965V56.48ZM120.951 56.46C120.951 52.96 118.451 50.74 115.251 50.74C112.051 50.74 109.551 52.96 109.551 56.46C109.551 59.94 111.971 62.18 115.171 62.18C118.391 62.18 120.951 59.94 120.951 56.46ZM112.391 56.46C112.391 54.24 113.731 53.18 115.211 53.18C116.691 53.18 118.071 54.24 118.071 56.46C118.071 58.66 116.651 59.74 115.171 59.74C113.671 59.74 112.391 58.66 112.391 56.46ZM122.285 56.42C122.285 59.88 124.525 62.18 127.345 62.18C129.085 62.18 130.325 61.38 130.985 60.36V62H133.825V47.2H130.985V52.46C130.225 51.42 128.825 50.74 127.365 50.74C124.525 50.74 122.285 52.96 122.285 56.42ZM131.005 56.46C131.005 58.56 129.605 59.72 128.065 59.72C126.565 59.72 125.145 58.52 125.145 56.42C125.145 54.32 126.565 53.2 128.065 53.2C129.605 53.2 131.005 54.36 131.005 56.46ZM147.02 50.92H144.2V57.02C144.2 58.8 143.24 59.76 141.72 59.76C140.24 59.76 139.26 58.8 139.26 57.02V50.92H136.46V57.42C136.46 60.46 138.32 62.14 140.9 62.14C142.28 62.14 143.5 61.54 144.2 60.6V62H147.02V50.92ZM149.062 56.46C149.062 59.94 151.342 62.18 154.542 62.18C157.302 62.18 159.162 60.62 159.762 58.26H156.742C156.402 59.26 155.682 59.78 154.522 59.78C152.962 59.78 151.922 58.62 151.922 56.46C151.922 54.3 152.962 53.12 154.522 53.12C155.682 53.12 156.422 53.72 156.742 54.66H159.762C159.162 52.18 157.302 50.74 154.542 50.74C151.342 50.74 149.062 52.98 149.062 56.46ZM162.254 58.56C162.254 61.1 163.674 62 165.794 62H167.554V59.64H166.254C165.374 59.64 165.074 59.32 165.074 58.58V53.22H167.554V50.92H165.074V48.18H162.254V50.92H160.934V53.22H162.254V58.56ZM178.168 58.84C178.088 54.78 171.948 56.04 171.948 54.02C171.948 53.38 172.488 52.96 173.528 52.96C174.628 52.96 175.308 53.54 175.388 54.4H178.068C177.908 52.2 176.288 50.74 173.608 50.74C170.868 50.74 169.228 52.22 169.228 54.06C169.228 58.12 175.488 56.86 175.488 58.84C175.488 59.48 174.888 59.98 173.788 59.98C172.668 59.98 171.888 59.34 171.788 58.5H168.968C169.088 60.56 171.028 62.18 173.808 62.18C176.508 62.18 178.168 60.74 178.168 58.84Z" fill="#05004E"/>
<g clip-path="url(#clip0_8121_396)">
<path d="M108.322 154H109.596V144.242H108.322V148.526H103.352V144.242H102.078V154H103.352V149.576H108.322V154ZM119.038 150.15C119.038 147.728 117.344 146.202 115.16 146.202C112.99 146.202 111.282 147.728 111.282 150.15C111.282 152.586 112.934 154.126 115.104 154.126C117.288 154.126 119.038 152.586 119.038 150.15ZM112.584 150.15C112.584 148.218 113.802 147.308 115.146 147.308C116.462 147.308 117.736 148.218 117.736 150.15C117.736 152.096 116.434 153.006 115.104 153.006C113.774 153.006 112.584 152.096 112.584 150.15ZM131.787 154H133.047V149.478C133.047 147.28 131.689 146.188 129.939 146.188C128.763 146.188 127.671 146.79 127.223 147.896C126.719 146.748 125.669 146.188 124.409 146.188C123.401 146.188 122.491 146.622 121.987 147.434V146.328H120.713V154H121.987V149.772C121.987 148.12 122.869 147.294 124.157 147.294C125.417 147.294 126.257 148.092 126.257 149.66V154H127.517V149.772C127.517 148.12 128.399 147.294 129.687 147.294C130.947 147.294 131.787 148.092 131.787 149.66V154ZM138.399 147.28C139.715 147.28 140.835 148.106 140.821 149.604H135.977C136.117 148.106 137.153 147.28 138.399 147.28ZM141.983 151.634H140.611C140.331 152.46 139.603 153.048 138.455 153.048C137.153 153.048 136.061 152.194 135.963 150.64H142.095C142.123 150.374 142.137 150.15 142.137 149.87C142.137 147.77 140.681 146.202 138.455 146.202C136.215 146.202 134.661 147.728 134.661 150.15C134.661 152.586 136.271 154.126 138.455 154.126C140.359 154.126 141.591 153.034 141.983 151.634ZM150.589 144.242H147.551V154H150.589C153.795 154 155.769 152.166 155.769 149.142C155.769 146.118 153.795 144.242 150.589 144.242ZM148.825 152.95V145.278H150.589C153.137 145.278 154.467 146.762 154.467 149.142C154.467 151.522 153.137 152.95 150.589 152.95H148.825ZM160.711 147.28C162.027 147.28 163.147 148.106 163.133 149.604H158.289C158.429 148.106 159.465 147.28 160.711 147.28ZM164.295 151.634H162.923C162.643 152.46 161.915 153.048 160.767 153.048C159.465 153.048 158.373 152.194 158.275 150.64H164.407C164.435 150.374 164.449 150.15 164.449 149.87C164.449 147.77 162.993 146.202 160.767 146.202C158.527 146.202 156.973 147.728 156.973 150.15C156.973 152.586 158.583 154.126 160.767 154.126C162.671 154.126 163.903 153.034 164.295 151.634ZM165.655 150.15C165.655 152.586 167.209 154.126 169.393 154.126C171.297 154.126 172.543 153.062 172.935 151.536H171.563C171.283 152.502 170.527 153.048 169.393 153.048C167.993 153.048 166.957 152.054 166.957 150.15C166.957 148.274 167.993 147.28 169.393 147.28C170.527 147.28 171.297 147.868 171.563 148.792H172.935C172.543 147.182 171.297 146.202 169.393 146.202C167.209 146.202 165.655 147.742 165.655 150.15ZM181.915 150.15C181.915 147.728 180.221 146.202 178.037 146.202C175.867 146.202 174.159 147.728 174.159 150.15C174.159 152.586 175.811 154.126 177.981 154.126C180.165 154.126 181.915 152.586 181.915 150.15ZM175.461 150.15C175.461 148.218 176.679 147.308 178.023 147.308C179.339 147.308 180.613 148.218 180.613 150.15C180.613 152.096 179.311 153.006 177.981 153.006C176.651 153.006 175.461 152.096 175.461 150.15ZM184.864 149.828C184.864 148.05 185.788 147.504 187.006 147.504H187.342V146.188C186.124 146.188 185.298 146.72 184.864 147.574V146.328H183.59V154H184.864V149.828ZM197.767 147.112C197.767 148.204 197.137 148.988 195.695 148.988H193.819V145.292H195.695C197.151 145.292 197.767 146.006 197.767 147.112ZM192.545 144.242V154H193.819V150.01H195.359L197.683 154H199.209L196.759 149.912C198.397 149.548 199.083 148.358 199.083 147.112C199.083 145.516 197.991 144.242 195.695 144.242H192.545ZM200.586 150.136C200.586 152.516 202.168 154.126 204.212 154.126C205.626 154.126 206.62 153.398 207.082 152.572V154H208.37V146.328H207.082V147.728C206.634 146.93 205.654 146.202 204.226 146.202C202.168 146.202 200.586 147.742 200.586 150.136ZM207.082 150.15C207.082 151.956 205.878 153.006 204.478 153.006C203.078 153.006 201.888 151.942 201.888 150.136C201.888 148.33 203.078 147.308 204.478 147.308C205.878 147.308 207.082 148.372 207.082 150.15ZM216.137 154H217.397V149.478C217.397 147.28 216.039 146.188 214.261 146.188C213.225 146.188 212.301 146.622 211.797 147.42V146.328H210.523V154H211.797V149.758C211.797 148.106 212.693 147.294 213.995 147.294C215.283 147.294 216.137 148.092 216.137 149.66V154ZM219.002 150.136C219.002 152.516 220.584 154.126 222.642 154.126C224.042 154.126 225.036 153.384 225.498 152.558V154.168C225.498 155.806 224.476 156.674 223.118 156.674C221.858 156.674 220.948 156.044 220.668 155.12H219.408C219.66 156.758 221.102 157.78 223.118 157.78C225.372 157.78 226.786 156.282 226.786 154.168V146.328H225.498V147.728C225.05 146.902 224.042 146.202 222.642 146.202C220.584 146.202 219.002 147.742 219.002 150.136ZM225.498 150.15C225.498 151.956 224.294 153.006 222.894 153.006C221.494 153.006 220.304 151.942 220.304 150.136C220.304 148.33 221.494 147.308 222.894 147.308C224.294 147.308 225.498 148.372 225.498 150.15ZM232.201 147.28C233.517 147.28 234.637 148.106 234.623 149.604H229.779C229.919 148.106 230.955 147.28 232.201 147.28ZM235.785 151.634H234.413C234.133 152.46 233.405 153.048 232.257 153.048C230.955 153.048 229.863 152.194 229.765 150.64H235.897C235.925 150.374 235.939 150.15 235.939 149.87C235.939 147.77 234.483 146.202 232.257 146.202C230.017 146.202 228.463 147.728 228.463 150.15C228.463 152.586 230.073 154.126 232.257 154.126C234.161 154.126 235.393 153.034 235.785 151.634Z" fill="#444A6D"/>
<path d="M46.868 148.834C46.868 151.774 47.596 154 50.396 154C53.182 154 53.91 151.774 53.91 148.834C53.91 145.936 53.182 143.724 50.396 143.724C47.596 143.724 46.868 145.936 46.868 148.834ZM52.65 148.834C52.65 151.018 52.384 152.838 50.396 152.838C48.394 152.838 48.128 151.018 48.128 148.834C48.128 146.734 48.394 144.886 50.396 144.886C52.384 144.886 52.65 146.734 52.65 148.834ZM56.667 154H57.955V143.878H55.323V145.04H56.667V154Z" fill="#444A6D"/>
<g clip-path="url(#clip1_8121_396)">
<rect x="579.5" y="135.5" width="49" height="23" rx="7.5" fill="#F0F9FF" stroke="#0095FF"/>
<path d="M598.382 149.867H597.005V152H595.996V149.867H591.482V148.947L595.888 142.669H597.005V148.909H598.382V149.867ZM595.996 148.909V145.824C595.996 145.219 596.017 144.535 596.059 143.773H596.008C595.805 144.18 595.615 144.516 595.437 144.783L592.536 148.909H595.996ZM602.185 146.332C603.162 146.332 603.93 146.575 604.489 147.062C605.052 147.544 605.333 148.206 605.333 149.048C605.333 150.009 605.026 150.762 604.413 151.308C603.803 151.854 602.961 152.127 601.886 152.127C600.841 152.127 600.043 151.96 599.493 151.625V150.61C599.789 150.8 600.158 150.951 600.598 151.061C601.038 151.166 601.472 151.219 601.899 151.219C602.644 151.219 603.221 151.044 603.632 150.692C604.047 150.341 604.254 149.833 604.254 149.169C604.254 147.874 603.46 147.227 601.874 147.227C601.472 147.227 600.934 147.288 600.261 147.411L599.715 147.062L600.064 142.72H604.679V143.691H600.966L600.731 146.478C601.218 146.38 601.702 146.332 602.185 146.332ZM607.625 145.487C607.625 146.207 607.703 146.746 607.859 147.106C608.016 147.466 608.27 147.646 608.621 147.646C609.315 147.646 609.662 146.926 609.662 145.487C609.662 144.057 609.315 143.342 608.621 143.342C608.27 143.342 608.016 143.52 607.859 143.875C607.703 144.23 607.625 144.768 607.625 145.487ZM610.532 145.487C610.532 146.452 610.369 147.182 610.043 147.677C609.721 148.168 609.247 148.414 608.621 148.414C608.029 148.414 607.567 148.162 607.237 147.658C606.911 147.155 606.749 146.431 606.749 145.487C606.749 144.527 606.905 143.803 607.218 143.316C607.536 142.83 608.003 142.586 608.621 142.586C609.235 142.586 609.707 142.838 610.037 143.342C610.367 143.845 610.532 144.561 610.532 145.487ZM613.21 149.207C613.21 149.931 613.289 150.472 613.445 150.832C613.602 151.188 613.858 151.365 614.213 151.365C614.569 151.365 614.831 151.19 615 150.838C615.17 150.483 615.254 149.939 615.254 149.207C615.254 148.483 615.17 147.948 615 147.601C614.831 147.25 614.569 147.074 614.213 147.074C613.858 147.074 613.602 147.25 613.445 147.601C613.289 147.948 613.21 148.483 613.21 149.207ZM616.124 149.207C616.124 150.168 615.961 150.896 615.635 151.391C615.314 151.882 614.84 152.127 614.213 152.127C613.612 152.127 613.149 151.875 612.823 151.372C612.502 150.868 612.341 150.146 612.341 149.207C612.341 148.246 612.497 147.523 612.811 147.036C613.128 146.549 613.596 146.306 614.213 146.306C614.814 146.306 615.282 146.556 615.616 147.055C615.955 147.55 616.124 148.268 616.124 149.207ZM614.486 142.72L609.338 152H608.405L613.553 142.72H614.486Z" fill="#0095FF"/>
</g>
<rect x="353" y="146" width="180" height="4" rx="2" fill="#CDE7FF"/>
<rect x="353" y="146" width="140" height="4" rx="2" fill="#0095FF"/>
</g>
<g clip-path="url(#clip2_8121_396)">
<path d="M105.116 205.242H102.078V215H105.116C108.322 215 110.296 213.166 110.296 210.142C110.296 207.118 108.322 205.242 105.116 205.242ZM103.352 213.95V206.278H105.116C107.664 206.278 108.994 207.762 108.994 210.142C108.994 212.522 107.664 213.95 105.116 213.95H103.352ZM111.976 215H113.25V207.328H111.976V215ZM112.634 206.082C113.096 206.082 113.474 205.704 113.474 205.214C113.474 204.724 113.096 204.346 112.634 204.346C112.144 204.346 111.766 204.724 111.766 205.214C111.766 205.704 112.144 206.082 112.634 206.082ZM120.938 212.914C120.882 210.17 116.43 211.164 116.43 209.344C116.43 208.728 116.99 208.28 117.928 208.28C118.95 208.28 119.538 208.84 119.594 209.61H120.868C120.784 208.112 119.664 207.202 117.97 207.202C116.262 207.202 115.156 208.168 115.156 209.344C115.156 212.2 119.692 211.206 119.692 212.914C119.692 213.544 119.132 214.048 118.124 214.048C117.046 214.048 116.388 213.488 116.318 212.746H115.002C115.086 214.146 116.346 215.126 118.138 215.126C119.832 215.126 120.938 214.174 120.938 212.914ZM128.35 215H129.61V210.478C129.61 208.28 128.252 207.188 126.474 207.188C125.438 207.188 124.514 207.622 124.01 208.42V207.328H122.736V215H124.01V210.758C124.01 209.106 124.906 208.294 126.208 208.294C127.496 208.294 128.35 209.092 128.35 210.66V215ZM134.953 208.28C136.269 208.28 137.389 209.106 137.375 210.604H132.531C132.671 209.106 133.707 208.28 134.953 208.28ZM138.537 212.634H137.165C136.885 213.46 136.157 214.048 135.009 214.048C133.707 214.048 132.615 213.194 132.517 211.64H138.649C138.677 211.374 138.691 211.15 138.691 210.87C138.691 208.77 137.235 207.202 135.009 207.202C132.769 207.202 131.215 208.728 131.215 211.15C131.215 213.586 132.825 215.126 135.009 215.126C136.913 215.126 138.145 214.034 138.537 212.634ZM143.285 213.544L140.877 207.328H139.463L142.557 214.916L141.045 218.612H142.361L146.981 207.328H145.665L143.285 213.544ZM153.268 209.876V206.292H155.144C156.6 206.292 157.216 206.964 157.216 208.098C157.216 209.19 156.6 209.876 155.144 209.876H153.268ZM158.518 208.098C158.518 206.502 157.44 205.242 155.144 205.242H151.994V215H153.268V210.926H155.144C157.566 210.926 158.518 209.582 158.518 208.098ZM161.375 210.828C161.375 209.05 162.299 208.504 163.517 208.504H163.853V207.188C162.635 207.188 161.809 207.72 161.375 208.574V207.328H160.101V215H161.375V210.828ZM165.324 215H166.598V207.328H165.324V215ZM165.982 206.082C166.444 206.082 166.822 205.704 166.822 205.214C166.822 204.724 166.444 204.346 165.982 204.346C165.492 204.346 165.114 204.724 165.114 205.214C165.114 205.704 165.492 206.082 165.982 206.082ZM174.383 215H175.643V210.478C175.643 208.28 174.285 207.188 172.507 207.188C171.471 207.188 170.547 207.622 170.043 208.42V207.328H168.769V215H170.043V210.758C170.043 209.106 170.939 208.294 172.241 208.294C173.529 208.294 174.383 209.092 174.383 210.66V215ZM177.248 211.15C177.248 213.586 178.802 215.126 180.986 215.126C182.89 215.126 184.136 214.062 184.528 212.536H183.156C182.876 213.502 182.12 214.048 180.986 214.048C179.586 214.048 178.55 213.054 178.55 211.15C178.55 209.274 179.586 208.28 180.986 208.28C182.12 208.28 182.89 208.868 183.156 209.792H184.528C184.136 208.182 182.89 207.202 180.986 207.202C178.802 207.202 177.248 208.742 177.248 211.15ZM189.49 208.28C190.806 208.28 191.926 209.106 191.912 210.604H187.068C187.208 209.106 188.244 208.28 189.49 208.28ZM193.074 212.634H191.702C191.422 213.46 190.694 214.048 189.546 214.048C188.244 214.048 187.152 213.194 187.054 211.64H193.186C193.214 211.374 193.228 211.15 193.228 210.87C193.228 208.77 191.772 207.202 189.546 207.202C187.306 207.202 185.752 208.728 185.752 211.15C185.752 213.586 187.362 215.126 189.546 215.126C191.45 215.126 192.682 214.034 193.074 212.634ZM200.426 212.914C200.37 210.17 195.918 211.164 195.918 209.344C195.918 208.728 196.478 208.28 197.416 208.28C198.438 208.28 199.026 208.84 199.082 209.61H200.356C200.272 208.112 199.152 207.202 197.458 207.202C195.75 207.202 194.644 208.168 194.644 209.344C194.644 212.2 199.18 211.206 199.18 212.914C199.18 213.544 198.62 214.048 197.612 214.048C196.534 214.048 195.876 213.488 195.806 212.746H194.49C194.574 214.146 195.834 215.126 197.626 215.126C199.32 215.126 200.426 214.174 200.426 212.914ZM207.74 212.914C207.684 210.17 203.232 211.164 203.232 209.344C203.232 208.728 203.792 208.28 204.73 208.28C205.752 208.28 206.34 208.84 206.396 209.61H207.67C207.586 208.112 206.466 207.202 204.772 207.202C203.064 207.202 201.958 208.168 201.958 209.344C201.958 212.2 206.494 211.206 206.494 212.914C206.494 213.544 205.934 214.048 204.926 214.048C203.848 214.048 203.19 213.488 203.12 212.746H201.804C201.888 214.146 203.148 215.126 204.94 215.126C206.634 215.126 207.74 214.174 207.74 212.914ZM214.545 209.876V206.292H216.421C217.877 206.292 218.493 206.964 218.493 208.098C218.493 209.19 217.877 209.876 216.421 209.876H214.545ZM219.795 208.098C219.795 206.502 218.717 205.242 216.421 205.242H213.271V215H214.545V210.926H216.421C218.843 210.926 219.795 209.582 219.795 208.098ZM221.379 215H222.653V207.328H221.379V215ZM222.037 206.082C222.499 206.082 222.877 205.704 222.877 205.214C222.877 204.724 222.499 204.346 222.037 204.346C221.547 204.346 221.169 204.724 221.169 205.214C221.169 205.704 221.547 206.082 222.037 206.082ZM230.438 215H231.698V210.478C231.698 208.28 230.34 207.188 228.562 207.188C227.526 207.188 226.602 207.622 226.098 208.42V207.328H224.824V215H226.098V210.758C226.098 209.106 226.994 208.294 228.296 208.294C229.584 208.294 230.438 209.092 230.438 210.66V215ZM233.779 215H235.053V211.612L238.063 215H239.799L236.173 211.15L239.785 207.328H238.007L235.053 210.73V204.64H233.779V215ZM250.261 212.256C250.261 213.32 249.505 213.95 248.245 213.95H245.991V210.506H248.203C249.449 210.506 250.261 211.178 250.261 212.256ZM250.009 207.874C250.009 208.868 249.323 209.456 248.133 209.456H245.991V206.292H248.105C249.351 206.292 250.009 206.908 250.009 207.874ZM251.535 212.382C251.535 211.178 250.667 210.156 249.603 209.974C250.541 209.666 251.311 208.952 251.311 207.72C251.311 206.362 250.275 205.242 248.217 205.242H244.717V215H248.357C250.373 215 251.535 213.852 251.535 212.382ZM252.827 211.136C252.827 213.516 254.409 215.126 256.453 215.126C257.867 215.126 258.861 214.398 259.323 213.572V215H260.611V207.328H259.323V208.728C258.875 207.93 257.895 207.202 256.467 207.202C254.409 207.202 252.827 208.742 252.827 211.136ZM259.323 211.15C259.323 212.956 258.119 214.006 256.719 214.006C255.319 214.006 254.129 212.942 254.129 211.136C254.129 209.33 255.319 208.308 256.719 208.308C258.119 208.308 259.323 209.372 259.323 211.15ZM262.288 211.136C262.288 213.516 263.87 215.126 265.928 215.126C267.328 215.126 268.322 214.384 268.784 213.558V215.168C268.784 216.806 267.762 217.674 266.404 217.674C265.144 217.674 264.234 217.044 263.954 216.12H262.694C262.946 217.758 264.388 218.78 266.404 218.78C268.658 218.78 270.072 217.282 270.072 215.168V207.328H268.784V208.728C268.336 207.902 267.328 207.202 265.928 207.202C263.87 207.202 262.288 208.742 262.288 211.136ZM268.784 211.15C268.784 212.956 267.58 214.006 266.18 214.006C264.78 214.006 263.59 212.942 263.59 211.136C263.59 209.33 264.78 208.308 266.18 208.308C267.58 208.308 268.784 209.372 268.784 211.15ZM276.755 215H278.043V204.878H275.411V206.04H276.755V215ZM282.079 209.736C280.945 210.072 280.203 210.996 280.203 212.27C280.203 214.104 281.645 215.28 283.773 215.28C285.915 215.28 287.371 214.104 287.371 212.27C287.371 211.01 286.629 210.086 285.481 209.736C286.475 209.344 287.105 208.504 287.105 207.412C287.105 205.942 285.971 204.724 283.773 204.724C281.575 204.724 280.455 205.928 280.455 207.412C280.455 208.546 281.043 209.33 282.079 209.736ZM283.773 209.316C282.541 209.316 281.687 208.63 281.687 207.58C281.687 206.39 282.527 205.788 283.773 205.788C285.047 205.788 285.873 206.404 285.873 207.566C285.873 208.616 285.019 209.316 283.773 209.316ZM283.773 210.296C285.103 210.296 286.111 210.926 286.111 212.228C286.111 213.404 285.215 214.216 283.773 214.216C282.331 214.216 281.421 213.418 281.421 212.228C281.421 210.884 282.471 210.296 283.773 210.296ZM288.867 206.642H289.749L289.917 203.856H288.685L288.867 206.642Z" fill="#444A6D"/>
<path d="M46.868 209.834C46.868 212.774 47.596 215 50.396 215C53.182 215 53.91 212.774 53.91 209.834C53.91 206.936 53.182 204.724 50.396 204.724C47.596 204.724 46.868 206.936 46.868 209.834ZM52.65 209.834C52.65 212.018 52.384 213.838 50.396 213.838C48.394 213.838 48.128 212.018 48.128 209.834C48.128 207.734 48.394 205.886 50.396 205.886C52.384 205.886 52.65 207.734 52.65 209.834ZM55.505 214.888H62.239V213.824H57.423C59.229 212.354 61.945 210.212 61.945 207.692C61.945 205.816 60.713 204.696 58.809 204.696C56.989 204.696 55.631 205.816 55.547 207.972H56.779C56.835 206.698 57.507 205.788 58.823 205.788C60.195 205.788 60.685 206.628 60.685 207.748C60.685 209.82 58.165 211.836 55.505 213.978V214.888Z" fill="#444A6D"/>
<g clip-path="url(#clip3_8121_396)">
<rect x="579.5" y="196.5" width="49" height="23" rx="7.5" fill="#F0FDF4" stroke="#00E58F"/>
<path d="M597.944 213H591.844V212.092L594.288 209.636C595.033 208.882 595.524 208.345 595.761 208.023C595.998 207.702 596.175 207.389 596.294 207.084C596.412 206.779 596.472 206.451 596.472 206.1C596.472 205.605 596.321 205.214 596.021 204.926C595.721 204.634 595.304 204.488 594.771 204.488C594.385 204.488 594.019 204.551 593.672 204.678C593.33 204.805 592.947 205.036 592.523 205.37L591.965 204.653C592.82 203.942 593.751 203.586 594.758 203.586C595.63 203.586 596.313 203.811 596.808 204.259C597.303 204.704 597.551 205.302 597.551 206.056C597.551 206.644 597.386 207.226 597.056 207.801C596.726 208.377 596.108 209.105 595.202 209.985L593.171 211.972V212.022H597.944V213ZM605.384 207.681C605.384 211.312 603.979 213.127 601.169 213.127C600.678 213.127 600.289 213.085 600.001 213V212.092C600.34 212.202 600.725 212.257 601.156 212.257C602.172 212.257 602.938 211.944 603.454 211.318C603.975 210.687 604.258 209.722 604.305 208.423H604.229C603.996 208.775 603.687 209.043 603.302 209.229C602.917 209.411 602.483 209.502 602 209.502C601.18 209.502 600.528 209.257 600.045 208.766C599.563 208.275 599.322 207.59 599.322 206.709C599.322 205.745 599.59 204.983 600.128 204.424C600.67 203.866 601.381 203.586 602.261 203.586C602.891 203.586 603.441 203.749 603.911 204.075C604.385 204.397 604.749 204.869 605.003 205.491C605.257 206.109 605.384 206.839 605.384 207.681ZM602.261 204.488C601.656 204.488 601.188 204.682 600.858 205.072C600.528 205.461 600.363 206.003 600.363 206.697C600.363 207.306 600.515 207.786 600.82 208.138C601.125 208.485 601.588 208.658 602.21 208.658C602.595 208.658 602.948 208.58 603.27 208.423C603.596 208.267 603.852 208.053 604.038 207.782C604.224 207.511 604.317 207.228 604.317 206.932C604.317 206.487 604.231 206.077 604.057 205.7C603.884 205.324 603.64 205.027 603.327 204.812C603.018 204.596 602.663 204.488 602.261 204.488ZM607.625 206.487C607.625 207.207 607.703 207.746 607.859 208.106C608.016 208.466 608.27 208.646 608.621 208.646C609.315 208.646 609.662 207.926 609.662 206.487C609.662 205.057 609.315 204.342 608.621 204.342C608.27 204.342 608.016 204.52 607.859 204.875C607.703 205.23 607.625 205.768 607.625 206.487ZM610.532 206.487C610.532 207.452 610.369 208.182 610.043 208.677C609.721 209.168 609.247 209.414 608.621 209.414C608.029 209.414 607.567 209.162 607.237 208.658C606.911 208.155 606.749 207.431 606.749 206.487C606.749 205.527 606.905 204.803 607.218 204.316C607.536 203.83 608.003 203.586 608.621 203.586C609.235 203.586 609.707 203.838 610.037 204.342C610.367 204.845 610.532 205.561 610.532 206.487ZM613.21 210.207C613.21 210.931 613.289 211.472 613.445 211.832C613.602 212.188 613.858 212.365 614.213 212.365C614.569 212.365 614.831 212.19 615 211.838C615.17 211.483 615.254 210.939 615.254 210.207C615.254 209.483 615.17 208.948 615 208.601C614.831 208.25 614.569 208.074 614.213 208.074C613.858 208.074 613.602 208.25 613.445 208.601C613.289 208.948 613.21 209.483 613.21 210.207ZM616.124 210.207C616.124 211.168 615.961 211.896 615.635 212.391C615.314 212.882 614.84 213.127 614.213 213.127C613.612 213.127 613.149 212.875 612.823 212.372C612.502 211.868 612.341 211.146 612.341 210.207C612.341 209.246 612.497 208.523 612.811 208.036C613.128 207.549 613.596 207.306 614.213 207.306C614.814 207.306 615.282 207.556 615.616 208.055C615.955 208.55 616.124 209.268 616.124 210.207ZM614.486 203.72L609.338 213H608.405L613.553 203.72H614.486Z" fill="#00E58F"/>
</g>
<rect x="353" y="207" width="180" height="4" rx="2" fill="#8CFAC7"/>
<rect x="353" y="207" width="110" height="4" rx="2" fill="#00E096"/>
</g>
<rect x="20" y="238" width="645" height="1" fill="#EDF2F6"/>
<g clip-path="url(#clip4_8121_396)">
<path d="M107.622 273.256C107.622 274.32 106.866 274.95 105.606 274.95H103.352V271.506H105.564C106.81 271.506 107.622 272.178 107.622 273.256ZM107.37 268.874C107.37 269.868 106.684 270.456 105.494 270.456H103.352V267.292H105.466C106.712 267.292 107.37 267.908 107.37 268.874ZM108.896 273.382C108.896 272.178 108.028 271.156 106.964 270.974C107.902 270.666 108.672 269.952 108.672 268.72C108.672 267.362 107.636 266.242 105.578 266.242H102.078V276H105.718C107.734 276 108.896 274.852 108.896 273.382ZM110.188 272.136C110.188 274.516 111.77 276.126 113.814 276.126C115.228 276.126 116.222 275.398 116.684 274.572V276H117.972V268.328H116.684V269.728C116.236 268.93 115.256 268.202 113.828 268.202C111.77 268.202 110.188 269.742 110.188 272.136ZM116.684 272.15C116.684 273.956 115.48 275.006 114.08 275.006C112.68 275.006 111.49 273.942 111.49 272.136C111.49 270.33 112.68 269.308 114.08 269.308C115.48 269.308 116.684 270.372 116.684 272.15ZM120.405 273.9C120.405 275.44 121.175 276 122.533 276H123.681V274.922H122.743C121.959 274.922 121.679 274.656 121.679 273.9V269.378H123.681V268.328H121.679V266.396H120.405V268.328H119.411V269.378H120.405V273.9ZM125.224 276H126.498V271.758C126.498 270.106 127.394 269.294 128.696 269.294C129.984 269.294 130.838 270.092 130.838 271.66V276H132.098V271.478C132.098 269.28 130.74 268.188 129.032 268.188C127.954 268.188 127.002 268.622 126.498 269.434V265.64H125.224V276ZM135.454 271.828C135.454 270.05 136.378 269.504 137.596 269.504H137.932V268.188C136.714 268.188 135.888 268.72 135.454 269.574V268.328H134.18V276H135.454V271.828ZM146.682 272.15C146.682 269.728 144.988 268.202 142.804 268.202C140.634 268.202 138.926 269.728 138.926 272.15C138.926 274.586 140.578 276.126 142.748 276.126C144.932 276.126 146.682 274.586 146.682 272.15ZM140.228 272.15C140.228 270.218 141.446 269.308 142.79 269.308C144.106 269.308 145.38 270.218 145.38 272.15C145.38 274.096 144.078 275.006 142.748 275.006C141.418 275.006 140.228 274.096 140.228 272.15ZM155.637 272.15C155.637 269.728 153.943 268.202 151.759 268.202C149.589 268.202 147.881 269.728 147.881 272.15C147.881 274.586 149.533 276.126 151.703 276.126C153.887 276.126 155.637 274.586 155.637 272.15ZM149.183 272.15C149.183 270.218 150.401 269.308 151.745 269.308C153.061 269.308 154.335 270.218 154.335 272.15C154.335 274.096 153.033 275.006 151.703 275.006C150.373 275.006 149.183 274.096 149.183 272.15ZM168.386 276H169.646V271.478C169.646 269.28 168.288 268.188 166.538 268.188C165.362 268.188 164.27 268.79 163.822 269.896C163.318 268.748 162.268 268.188 161.008 268.188C160 268.188 159.09 268.622 158.586 269.434V268.328H157.312V276H158.586V271.772C158.586 270.12 159.468 269.294 160.756 269.294C162.016 269.294 162.856 270.092 162.856 271.66V276H164.116V271.772C164.116 270.12 164.998 269.294 166.286 269.294C167.546 269.294 168.386 270.092 168.386 271.66V276ZM180.719 266.228H175.469V276H180.719V274.95H176.743V271.59H180.299V270.54H176.743V267.278H180.719V266.228ZM188.162 273.914C188.106 271.17 183.654 272.164 183.654 270.344C183.654 269.728 184.214 269.28 185.152 269.28C186.174 269.28 186.762 269.84 186.818 270.61H188.092C188.008 269.112 186.888 268.202 185.194 268.202C183.486 268.202 182.38 269.168 182.38 270.344C182.38 273.2 186.916 272.206 186.916 273.914C186.916 274.544 186.356 275.048 185.348 275.048C184.27 275.048 183.612 274.488 183.542 273.746H182.226C182.31 275.146 183.57 276.126 185.362 276.126C187.056 276.126 188.162 275.174 188.162 273.914ZM195.477 273.914C195.421 271.17 190.969 272.164 190.969 270.344C190.969 269.728 191.529 269.28 192.467 269.28C193.489 269.28 194.077 269.84 194.133 270.61H195.407C195.323 269.112 194.203 268.202 192.509 268.202C190.801 268.202 189.695 269.168 189.695 270.344C189.695 273.2 194.231 272.206 194.231 273.914C194.231 274.544 193.671 275.048 192.663 275.048C191.585 275.048 190.927 274.488 190.857 273.746H189.541C189.625 275.146 190.885 276.126 192.677 276.126C194.371 276.126 195.477 275.174 195.477 273.914ZM200.537 269.28C201.853 269.28 202.973 270.106 202.959 271.604H198.115C198.255 270.106 199.291 269.28 200.537 269.28ZM204.121 273.634H202.749C202.469 274.46 201.741 275.048 200.593 275.048C199.291 275.048 198.199 274.194 198.101 272.64H204.233C204.261 272.374 204.275 272.15 204.275 271.87C204.275 269.77 202.819 268.202 200.593 268.202C198.353 268.202 196.799 269.728 196.799 272.15C196.799 274.586 198.409 276.126 200.593 276.126C202.497 276.126 203.729 275.034 204.121 273.634ZM211.571 276H212.831V271.478C212.831 269.28 211.473 268.188 209.695 268.188C208.659 268.188 207.735 268.622 207.231 269.42V268.328H205.957V276H207.231V271.758C207.231 270.106 208.127 269.294 209.429 269.294C210.717 269.294 211.571 270.092 211.571 271.66V276ZM215.192 273.9C215.192 275.44 215.962 276 217.32 276H218.468V274.922H217.53C216.746 274.922 216.466 274.656 216.466 273.9V269.378H218.468V268.328H216.466V266.396H215.192V268.328H214.198V269.378H215.192V273.9ZM220.012 276H221.286V268.328H220.012V276ZM220.67 267.082C221.132 267.082 221.51 266.704 221.51 266.214C221.51 265.724 221.132 265.346 220.67 265.346C220.18 265.346 219.802 265.724 219.802 266.214C219.802 266.704 220.18 267.082 220.67 267.082ZM222.981 272.136C222.981 274.516 224.563 276.126 226.607 276.126C228.021 276.126 229.015 275.398 229.477 274.572V276H230.765V268.328H229.477V269.728C229.029 268.93 228.049 268.202 226.621 268.202C224.563 268.202 222.981 269.742 222.981 272.136ZM229.477 272.15C229.477 273.956 228.273 275.006 226.873 275.006C225.473 275.006 224.283 273.942 224.283 272.136C224.283 270.33 225.473 269.308 226.873 269.308C228.273 269.308 229.477 270.372 229.477 272.15ZM232.918 276H234.192V265.64H232.918V276ZM241.879 273.914C241.823 271.17 237.371 272.164 237.371 270.344C237.371 269.728 237.931 269.28 238.869 269.28C239.891 269.28 240.479 269.84 240.535 270.61H241.809C241.725 269.112 240.605 268.202 238.911 268.202C237.203 268.202 236.097 269.168 236.097 270.344C236.097 273.2 240.633 272.206 240.633 273.914C240.633 274.544 240.073 275.048 239.065 275.048C237.987 275.048 237.329 274.488 237.259 273.746H235.943C236.027 275.146 237.287 276.126 239.079 276.126C240.773 276.126 241.879 275.174 241.879 273.914Z" fill="#444A6D"/>
<path d="M46.868 270.834C46.868 273.774 47.596 276 50.396 276C53.182 276 53.91 273.774 53.91 270.834C53.91 267.936 53.182 265.724 50.396 265.724C47.596 265.724 46.868 267.936 46.868 270.834ZM52.65 270.834C52.65 273.018 52.384 274.838 50.396 274.838C48.394 274.838 48.128 273.018 48.128 270.834C48.128 268.734 48.394 266.886 50.396 266.886C52.384 266.886 52.65 268.734 52.65 270.834ZM55.631 268.426H56.877C57.003 267.446 57.717 266.774 58.907 266.774C60.125 266.774 60.769 267.446 60.769 268.412C60.769 269.588 59.859 270.106 58.165 270.12H57.829V271.184H58.151C59.971 271.184 60.965 271.73 60.965 273.158C60.965 274.194 60.321 274.992 58.963 274.992C57.619 274.992 56.835 274.166 56.709 273.088H55.477C55.631 275.048 57.059 276.07 58.977 276.07C61.091 276.07 62.183 274.838 62.183 273.27C62.183 271.814 61.385 270.946 60.209 270.666V270.596C61.273 270.358 62.001 269.448 62.001 268.286C62.001 266.83 60.923 265.682 58.949 265.682C57.073 265.682 55.757 266.69 55.631 268.426Z" fill="#444A6D"/>
<g clip-path="url(#clip5_8121_396)">
<rect x="579.5" y="257.5" width="49" height="23" rx="7.5" fill="#FBF1FF" stroke="#884DFF"/>
<path d="M595.748 274H594.72V267.386C594.72 266.836 594.737 266.315 594.771 265.824C594.682 265.913 594.582 266.006 594.472 266.104C594.362 266.201 593.859 266.613 592.961 267.341L592.403 266.618L594.859 264.72H595.748V274ZM602.356 264.586C603.202 264.586 603.873 264.783 604.368 265.177C604.863 265.57 605.111 266.114 605.111 266.808C605.111 267.265 604.969 267.682 604.686 268.059C604.402 268.435 603.949 268.778 603.327 269.087C604.08 269.447 604.616 269.825 604.933 270.223C605.25 270.617 605.409 271.074 605.409 271.594C605.409 272.364 605.14 272.98 604.603 273.441C604.066 273.898 603.329 274.127 602.394 274.127C601.404 274.127 600.642 273.911 600.109 273.479C599.576 273.044 599.309 272.428 599.309 271.632C599.309 270.57 599.957 269.743 601.251 269.15C600.667 268.82 600.249 268.465 599.995 268.084C599.741 267.699 599.614 267.269 599.614 266.795C599.614 266.123 599.861 265.587 600.356 265.189C600.856 264.787 601.522 264.586 602.356 264.586ZM600.35 271.658C600.35 272.166 600.526 272.561 600.877 272.845C601.232 273.128 601.73 273.27 602.369 273.27C602.999 273.27 603.49 273.122 603.841 272.826C604.193 272.529 604.368 272.123 604.368 271.607C604.368 271.196 604.203 270.833 603.873 270.515C603.543 270.194 602.967 269.882 602.146 269.582C601.516 269.853 601.059 270.153 600.775 270.483C600.492 270.809 600.35 271.201 600.35 271.658ZM602.343 265.443C601.814 265.443 601.4 265.57 601.099 265.824C600.799 266.078 600.648 266.417 600.648 266.84C600.648 267.229 600.773 267.563 601.023 267.843C601.273 268.122 601.734 268.401 602.407 268.681C603.012 268.427 603.439 268.154 603.689 267.862C603.943 267.57 604.07 267.229 604.07 266.84C604.07 266.412 603.915 266.074 603.606 265.824C603.302 265.57 602.881 265.443 602.343 265.443ZM607.625 267.487C607.625 268.207 607.703 268.746 607.859 269.106C608.016 269.466 608.27 269.646 608.621 269.646C609.315 269.646 609.662 268.926 609.662 267.487C609.662 266.057 609.315 265.342 608.621 265.342C608.27 265.342 608.016 265.52 607.859 265.875C607.703 266.23 607.625 266.768 607.625 267.487ZM610.532 267.487C610.532 268.452 610.369 269.182 610.043 269.677C609.721 270.168 609.247 270.414 608.621 270.414C608.029 270.414 607.567 270.162 607.237 269.658C606.911 269.155 606.749 268.431 606.749 267.487C606.749 266.527 606.905 265.803 607.218 265.316C607.536 264.83 608.003 264.586 608.621 264.586C609.235 264.586 609.707 264.838 610.037 265.342C610.367 265.845 610.532 266.561 610.532 267.487ZM613.21 271.207C613.21 271.931 613.289 272.472 613.445 272.832C613.602 273.188 613.858 273.365 614.213 273.365C614.569 273.365 614.831 273.19 615 272.838C615.17 272.483 615.254 271.939 615.254 271.207C615.254 270.483 615.17 269.948 615 269.601C614.831 269.25 614.569 269.074 614.213 269.074C613.858 269.074 613.602 269.25 613.445 269.601C613.289 269.948 613.21 270.483 613.21 271.207ZM616.124 271.207C616.124 272.168 615.961 272.896 615.635 273.391C615.314 273.882 614.84 274.127 614.213 274.127C613.612 274.127 613.149 273.875 612.823 273.372C612.502 272.868 612.341 272.146 612.341 271.207C612.341 270.246 612.497 269.523 612.811 269.036C613.128 268.549 613.596 268.306 614.213 268.306C614.814 268.306 615.282 268.556 615.616 269.055C615.955 269.55 616.124 270.268 616.124 271.207ZM614.486 264.72L609.338 274H608.405L613.553 264.72H614.486Z" fill="#884DFF"/>
</g>
<rect x="353" y="268" width="180" height="4" rx="2" fill="#C5A8FF"/>
<rect x="353" y="268" width="100" height="4" rx="2" fill="#884DFF"/>
</g>
<rect x="20" y="299" width="645" height="1" fill="#EDF2F6"/>
<g clip-path="url(#clip6_8121_396)">
<path d="M108.63 337H109.974L106.46 327.298H104.99L101.462 337H102.806L103.59 334.83H107.846L108.63 337ZM107.482 333.794H103.954L105.718 328.866L107.482 333.794ZM112.786 330.742V329.328H111.512V340.64H112.786V335.586C113.262 336.37 114.256 337.126 115.656 337.126C117.714 337.126 119.296 335.516 119.296 333.136C119.296 330.742 117.714 329.202 115.656 329.202C114.256 329.202 113.248 329.93 112.786 330.742ZM117.994 333.136C117.994 334.942 116.804 336.006 115.39 336.006C114.004 336.006 112.786 334.956 112.786 333.15C112.786 331.372 114.004 330.308 115.39 330.308C116.804 330.308 117.994 331.33 117.994 333.136ZM122.247 330.742V329.328H120.973V340.64H122.247V335.586C122.723 336.37 123.717 337.126 125.117 337.126C127.175 337.126 128.757 335.516 128.757 333.136C128.757 330.742 127.175 329.202 125.117 329.202C123.717 329.202 122.709 329.93 122.247 330.742ZM127.455 333.136C127.455 334.942 126.265 336.006 124.851 336.006C123.465 336.006 122.247 334.956 122.247 333.15C122.247 331.372 123.465 330.308 124.851 330.308C126.265 330.308 127.455 331.33 127.455 333.136ZM130.433 337H131.707V326.64H130.433V337ZM137.141 330.28C138.457 330.28 139.577 331.106 139.563 332.604H134.719C134.859 331.106 135.895 330.28 137.141 330.28ZM140.725 334.634H139.353C139.073 335.46 138.345 336.048 137.197 336.048C135.895 336.048 134.803 335.194 134.705 333.64H140.837C140.865 333.374 140.879 333.15 140.879 332.87C140.879 330.77 139.423 329.202 137.197 329.202C134.957 329.202 133.403 330.728 133.403 333.15C133.403 335.586 135.013 337.126 137.197 337.126C139.101 337.126 140.333 336.034 140.725 334.634ZM152.635 334.34C152.635 330.728 147.371 332.296 147.371 329.776C147.371 328.726 148.197 328.18 149.247 328.208C150.437 328.222 151.053 328.964 151.137 329.622H152.537C152.383 328.138 151.165 327.116 149.303 327.116C147.371 327.116 146.069 328.208 146.069 329.818C146.069 333.444 151.347 331.764 151.347 334.396C151.347 335.32 150.619 336.02 149.387 336.02C148.029 336.02 147.455 335.208 147.371 334.396H146.013C146.041 336.006 147.427 337.098 149.387 337.098C151.501 337.098 152.635 335.726 152.635 334.34ZM165.584 337H166.844V332.478C166.844 330.28 165.486 329.188 163.736 329.188C162.56 329.188 161.468 329.79 161.02 330.896C160.516 329.748 159.466 329.188 158.206 329.188C157.198 329.188 156.288 329.622 155.784 330.434V329.328H154.51V337H155.784V332.772C155.784 331.12 156.666 330.294 157.954 330.294C159.214 330.294 160.054 331.092 160.054 332.66V337H161.314V332.772C161.314 331.12 162.196 330.294 163.484 330.294C164.744 330.294 165.584 331.092 165.584 332.66V337ZM168.457 333.136C168.457 335.516 170.039 337.126 172.083 337.126C173.497 337.126 174.491 336.398 174.953 335.572V337H176.241V329.328H174.953V330.728C174.505 329.93 173.525 329.202 172.097 329.202C170.039 329.202 168.457 330.742 168.457 333.136ZM174.953 333.15C174.953 334.956 173.749 336.006 172.349 336.006C170.949 336.006 169.759 334.942 169.759 333.136C169.759 331.33 170.949 330.308 172.349 330.308C173.749 330.308 174.953 331.372 174.953 333.15ZM179.668 332.828C179.668 331.05 180.592 330.504 181.81 330.504H182.146V329.188C180.928 329.188 180.102 329.72 179.668 330.574V329.328H178.394V337H179.668V332.828ZM183.897 334.9C183.897 336.44 184.667 337 186.025 337H187.173V335.922H186.235C185.451 335.922 185.171 335.656 185.171 334.9V330.378H187.173V329.328H185.171V327.396H183.897V329.328H182.903V330.378H183.897V334.9ZM190.215 337H191.531L193.379 330.91L195.227 337H196.543L198.937 329.328H197.677L195.941 335.782L194.079 329.328H192.777L190.873 335.768L189.109 329.328H187.807L190.215 337ZM199.725 333.136C199.725 335.516 201.307 337.126 203.351 337.126C204.765 337.126 205.759 336.398 206.221 335.572V337H207.509V329.328H206.221V330.728C205.773 329.93 204.793 329.202 203.365 329.202C201.307 329.202 199.725 330.742 199.725 333.136ZM206.221 333.15C206.221 334.956 205.017 336.006 203.617 336.006C202.217 336.006 201.027 334.942 201.027 333.136C201.027 331.33 202.217 330.308 203.617 330.308C205.017 330.308 206.221 331.372 206.221 333.15ZM209.942 334.9C209.942 336.44 210.712 337 212.07 337H213.218V335.922H212.28C211.496 335.922 211.216 335.656 211.216 334.9V330.378H213.218V329.328H211.216V327.396H209.942V329.328H208.948V330.378H209.942V334.9ZM214.286 333.15C214.286 335.586 215.84 337.126 218.024 337.126C219.928 337.126 221.174 336.062 221.566 334.536H220.194C219.914 335.502 219.158 336.048 218.024 336.048C216.624 336.048 215.588 335.054 215.588 333.15C215.588 331.274 216.624 330.28 218.024 330.28C219.158 330.28 219.928 330.868 220.194 331.792H221.566C221.174 330.182 219.928 329.202 218.024 329.202C215.84 329.202 214.286 330.742 214.286 333.15ZM223.266 337H224.54V332.758C224.54 331.106 225.436 330.294 226.738 330.294C228.026 330.294 228.88 331.092 228.88 332.66V337H230.14V332.478C230.14 330.28 228.782 329.188 227.074 329.188C225.996 329.188 225.044 329.622 224.54 330.434V326.64H223.266V337ZM235.483 330.28C236.799 330.28 237.919 331.106 237.905 332.604H233.061C233.201 331.106 234.237 330.28 235.483 330.28ZM239.067 334.634H237.695C237.415 335.46 236.687 336.048 235.539 336.048C234.237 336.048 233.145 335.194 233.047 333.64H239.179C239.207 333.374 239.221 333.15 239.221 332.87C239.221 330.77 237.765 329.202 235.539 329.202C233.299 329.202 231.745 330.728 231.745 333.15C231.745 335.586 233.355 337.126 235.539 337.126C237.443 337.126 238.675 336.034 239.067 334.634ZM246.418 334.914C246.362 332.17 241.91 333.164 241.91 331.344C241.91 330.728 242.47 330.28 243.408 330.28C244.43 330.28 245.018 330.84 245.074 331.61H246.348C246.264 330.112 245.144 329.202 243.45 329.202C241.742 329.202 240.636 330.168 240.636 331.344C240.636 334.2 245.172 333.206 245.172 334.914C245.172 335.544 244.612 336.048 243.604 336.048C242.526 336.048 241.868 335.488 241.798 334.746H240.482C240.566 336.146 241.826 337.126 243.618 337.126C245.312 337.126 246.418 336.174 246.418 334.914Z" fill="#444A6D"/>
<path d="M46.868 331.834C46.868 334.774 47.596 337 50.396 337C53.182 337 53.91 334.774 53.91 331.834C53.91 328.936 53.182 326.724 50.396 326.724C47.596 326.724 46.868 328.936 46.868 331.834ZM52.65 331.834C52.65 334.018 52.384 335.838 50.396 335.838C48.394 335.838 48.128 334.018 48.128 331.834C48.128 329.734 48.394 327.886 50.396 327.886C52.384 327.886 52.65 329.734 52.65 331.834ZM60.531 337H61.791V334.746H63.191V333.64H61.791V326.976H60.265L55.351 333.78V334.746H60.531V337ZM56.821 333.64L60.587 328.306V333.64H56.821Z" fill="#444A6D"/>
<g clip-path="url(#clip7_8121_396)">
<rect x="579.5" y="318.5" width="49" height="23" rx="7.5" fill="#FEF6E6" stroke="#FF8900"/>
<path d="M597.944 335H591.844V334.092L594.288 331.636C595.033 330.882 595.524 330.345 595.761 330.023C595.998 329.702 596.175 329.389 596.294 329.084C596.412 328.779 596.472 328.451 596.472 328.1C596.472 327.605 596.321 327.214 596.021 326.926C595.721 326.634 595.304 326.488 594.771 326.488C594.385 326.488 594.019 326.551 593.672 326.678C593.33 326.805 592.947 327.036 592.523 327.37L591.965 326.653C592.82 325.942 593.751 325.586 594.758 325.586C595.63 325.586 596.313 325.811 596.808 326.259C597.303 326.704 597.551 327.302 597.551 328.056C597.551 328.644 597.386 329.226 597.056 329.801C596.726 330.377 596.108 331.105 595.202 331.985L593.171 333.972V334.022H597.944V335ZM602.185 329.332C603.162 329.332 603.93 329.575 604.489 330.062C605.052 330.544 605.333 331.206 605.333 332.048C605.333 333.009 605.026 333.762 604.413 334.308C603.803 334.854 602.961 335.127 601.886 335.127C600.841 335.127 600.043 334.96 599.493 334.625V333.61C599.789 333.8 600.158 333.951 600.598 334.061C601.038 334.166 601.472 334.219 601.899 334.219C602.644 334.219 603.221 334.044 603.632 333.692C604.047 333.341 604.254 332.833 604.254 332.169C604.254 330.874 603.46 330.227 601.874 330.227C601.472 330.227 600.934 330.288 600.261 330.411L599.715 330.062L600.064 325.72H604.679V326.691H600.966L600.731 329.478C601.218 329.38 601.702 329.332 602.185 329.332ZM607.625 328.487C607.625 329.207 607.703 329.746 607.859 330.106C608.016 330.466 608.27 330.646 608.621 330.646C609.315 330.646 609.662 329.926 609.662 328.487C609.662 327.057 609.315 326.342 608.621 326.342C608.27 326.342 608.016 326.52 607.859 326.875C607.703 327.23 607.625 327.768 607.625 328.487ZM610.532 328.487C610.532 329.452 610.369 330.182 610.043 330.677C609.721 331.168 609.247 331.414 608.621 331.414C608.029 331.414 607.567 331.162 607.237 330.658C606.911 330.155 606.749 329.431 606.749 328.487C606.749 327.527 606.905 326.803 607.218 326.316C607.536 325.83 608.003 325.586 608.621 325.586C609.235 325.586 609.707 325.838 610.037 326.342C610.367 326.845 610.532 327.561 610.532 328.487ZM613.21 332.207C613.21 332.931 613.289 333.472 613.445 333.832C613.602 334.188 613.858 334.365 614.213 334.365C614.569 334.365 614.831 334.19 615 333.838C615.17 333.483 615.254 332.939 615.254 332.207C615.254 331.483 615.17 330.948 615 330.601C614.831 330.25 614.569 330.074 614.213 330.074C613.858 330.074 613.602 330.25 613.445 330.601C613.289 330.948 613.21 331.483 613.21 332.207ZM616.124 332.207C616.124 333.168 615.961 333.896 615.635 334.391C615.314 334.882 614.84 335.127 614.213 335.127C613.612 335.127 613.149 334.875 612.823 334.372C612.502 333.868 612.341 333.146 612.341 332.207C612.341 331.246 612.497 330.523 612.811 330.036C613.128 329.549 613.596 329.306 614.213 329.306C614.814 329.306 615.282 329.556 615.616 330.055C615.955 330.55 616.124 331.268 616.124 332.207ZM614.486 325.72L609.338 335H608.405L613.553 325.72H614.486Z" fill="#FF8900"/>
</g>
<rect x="353" y="329" width="180" height="4" rx="2" fill="#FFD5A4"/>
<rect x="353" y="329" width="60" height="4" rx="2" fill="#FF8F0D"/>
</g>
<defs>
<filter id="filter0_d_8121_396" x="0" y="0" width="685" height="391" filterUnits="userSpaceOnUse" color-interpolation-filters="sRGB">
<feFlood flood-opacity="0" result="BackgroundImageFix"/>
<feColorMatrix in="SourceAlpha" type="matrix" values="0 0 0 0 0 0 0 0 0 0 0 0 0 0 0 0 0 0 127 0" result="hardAlpha"/>
<feOffset dy="4"/>
<feGaussianBlur stdDeviation="10"/>
<feColorMatrix type="matrix" values="0 0 0 0 0.93198 0 0 0 0 0.93198 0 0 0 0 0.93198 0 0 0 0.501967 0"/>
<feBlend mode="normal" in2="BackgroundImageFix" result="effect1_dropShadow_8121_396"/>
<feBlend mode="normal" in="SourceGraphic" in2="effect1_dropShadow_8121_396" result="shape"/>
</filter>
<clipPath id="clip0_8121_396">
<rect width="583" height="24" fill="white" transform="translate(46 135)"/>
</clipPath>
<clipPath id="clip1_8121_396">
<rect width="50" height="24" fill="white" transform="translate(579 135)"/>
</clipPath>
<clipPath id="clip2_8121_396">
<rect width="583" height="24" fill="white" transform="translate(46 196)"/>
</clipPath>
<clipPath id="clip3_8121_396">
<rect width="50" height="24" fill="white" transform="translate(579 196)"/>
</clipPath>
<clipPath id="clip4_8121_396">
<rect width="583" height="24" fill="white" transform="translate(46 257)"/>
</clipPath>
<clipPath id="clip5_8121_396">
<rect width="50" height="24" fill="white" transform="translate(579 257)"/>
</clipPath>
<clipPath id="clip6_8121_396">
<rect width="583" height="24" fill="white" transform="translate(46 318)"/>
</clipPath>
<clipPath id="clip7_8121_396">
<rect width="50" height="24" fill="white" transform="translate(579 318)"/>
</clipPath>
</defs>
</svg>
