<svg width="591" height="348" viewBox="0 0 591 348" fill="none" xmlns="http://www.w3.org/2000/svg">
<mask id="mask0_8121_217" style="mask-type:luminance" maskUnits="userSpaceOnUse" x="0" y="0" width="591" height="348">
<rect width="591" height="348" rx="12" fill="white"/>
</mask>
<g mask="url(#mask0_8121_217)">
<g filter="url(#filter0_d_8121_217)">
<rect width="593.017" height="348" rx="20" fill="white"/>
<rect x="0.5" y="0.5" width="592.017" height="347" rx="19.5" stroke="#F8F9FA"/>
</g>
</g>
<path d="M36.12 44.14L32.28 33.04H29.28L34.4 47H37.8L42.92 33.04H39.94L36.12 44.14ZM44.5988 47H47.3988V35.92H44.5988V47ZM46.0188 34.6C46.9988 34.6 47.7388 33.88 47.7388 32.96C47.7388 32.04 46.9988 31.32 46.0188 31.32C45.0188 31.32 44.2988 32.04 44.2988 32.96C44.2988 33.88 45.0188 34.6 46.0188 34.6ZM58.7652 43.84C58.6852 39.78 52.5452 41.04 52.5452 39.02C52.5452 38.38 53.0852 37.96 54.1252 37.96C55.2252 37.96 55.9052 38.54 55.9852 39.4H58.6652C58.5052 37.2 56.8852 35.74 54.2052 35.74C51.4652 35.74 49.8252 37.22 49.8252 39.06C49.8252 43.12 56.0852 41.86 56.0852 43.84C56.0852 44.48 55.4852 44.98 54.3852 44.98C53.2652 44.98 52.4852 44.34 52.3852 43.5H49.5652C49.6852 45.56 51.6252 47.18 54.4052 47.18C57.1052 47.18 58.7652 45.74 58.7652 43.84ZM61.0636 47H63.8636V35.92H61.0636V47ZM62.4836 34.6C63.4636 34.6 64.2036 33.88 64.2036 32.96C64.2036 32.04 63.4636 31.32 62.4836 31.32C61.4836 31.32 60.7636 32.04 60.7636 32.96C60.7636 33.88 61.4836 34.6 62.4836 34.6ZM67.07 43.56C67.07 46.1 68.49 47 70.61 47H72.37V44.64H71.07C70.19 44.64 69.89 44.32 69.89 43.58V38.22H72.37V35.92H69.89V33.18H67.07V35.92H65.75V38.22H67.07V43.56ZM85.0839 41.46C85.0839 37.96 82.5839 35.74 79.3839 35.74C76.1839 35.74 73.6839 37.96 73.6839 41.46C73.6839 44.94 76.1039 47.18 79.3039 47.18C82.5239 47.18 85.0839 44.94 85.0839 41.46ZM76.5239 41.46C76.5239 39.24 77.8639 38.18 79.3439 38.18C80.8239 38.18 82.2039 39.24 82.2039 41.46C82.2039 43.66 80.7839 44.74 79.3039 44.74C77.8039 44.74 76.5239 43.66 76.5239 41.46ZM89.9378 41.48C89.9378 39.34 90.9378 38.7 92.5978 38.7H93.3378V35.76C91.7978 35.76 90.6378 36.5 89.9378 37.64V35.92H87.1378V47H89.9378V41.48ZM99.9894 47H102.789V33.04H99.9894V47ZM113.316 47H116.116V40.5C116.116 37.44 114.276 35.76 111.696 35.76C110.276 35.76 109.076 36.36 108.356 37.3V35.92H105.556V47H108.356V40.88C108.356 39.1 109.336 38.14 110.856 38.14C112.336 38.14 113.316 39.1 113.316 40.88V47ZM127.378 43.84C127.298 39.78 121.158 41.04 121.158 39.02C121.158 38.38 121.698 37.96 122.738 37.96C123.838 37.96 124.518 38.54 124.598 39.4H127.278C127.118 37.2 125.498 35.74 122.818 35.74C120.078 35.74 118.438 37.22 118.438 39.06C118.438 43.12 124.698 41.86 124.698 43.84C124.698 44.48 124.098 44.98 122.998 44.98C121.878 44.98 121.098 44.34 120.998 43.5H118.178C118.298 45.56 120.238 47.18 123.018 47.18C125.718 47.18 127.378 45.74 127.378 43.84ZM129.677 47H132.477V35.92H129.677V47ZM131.097 34.6C132.077 34.6 132.817 33.88 132.817 32.96C132.817 32.04 132.077 31.32 131.097 31.32C130.097 31.32 129.377 32.04 129.377 32.96C129.377 33.88 130.097 34.6 131.097 34.6ZM134.523 41.42C134.523 44.88 136.763 47.18 139.583 47.18C141.323 47.18 142.583 46.32 143.243 45.36V47.08C143.243 49.14 142.043 50.02 140.503 50.02C139.103 50.02 138.063 49.36 137.783 48.36H135.003C135.283 50.9 137.463 52.46 140.583 52.46C144.223 52.46 146.063 50.08 146.063 47.08V35.92H143.243V37.5C142.583 36.54 141.323 35.74 139.583 35.74C136.763 35.74 134.523 37.96 134.523 41.42ZM143.243 41.46C143.243 43.56 141.843 44.72 140.303 44.72C138.803 44.72 137.383 43.52 137.383 41.42C137.383 39.32 138.803 38.2 140.303 38.2C141.843 38.2 143.243 39.36 143.243 41.46ZM148.798 47H151.598V40.88C151.598 39.1 152.578 38.14 154.098 38.14C155.578 38.14 156.558 39.1 156.558 40.88V47H159.358V40.5C159.358 37.44 157.538 35.76 155.038 35.76C153.558 35.76 152.318 36.36 151.598 37.3V32.2H148.798V47ZM162.461 43.56C162.461 46.1 163.881 47 166.001 47H167.761V44.64H166.461C165.581 44.64 165.281 44.32 165.281 43.58V38.22H167.761V35.92H165.281V33.18H162.461V35.92H161.141V38.22H162.461V43.56ZM178.375 43.84C178.295 39.78 172.155 41.04 172.155 39.02C172.155 38.38 172.695 37.96 173.735 37.96C174.835 37.96 175.515 38.54 175.595 39.4H178.275C178.115 37.2 176.495 35.74 173.815 35.74C171.075 35.74 169.435 37.22 169.435 39.06C169.435 43.12 175.695 41.86 175.695 43.84C175.695 44.48 175.095 44.98 173.995 44.98C172.875 44.98 172.095 44.34 171.995 43.5H169.175C169.295 45.56 171.235 47.18 174.015 47.18C176.715 47.18 178.375 45.74 178.375 43.84Z" fill="#05004E"/>
<g clip-path="url(#clip0_8121_217)">
<rect x="51" y="257" width="516" height="1" fill="#464E5F" fill-opacity="0.04"/>
<rect x="51" y="216" width="516" height="1" fill="#464E5F" fill-opacity="0.04"/>
<rect x="51" y="175" width="516" height="1" fill="#464E5F" fill-opacity="0.04"/>
<rect x="51" y="134" width="516" height="1" fill="#464E5F" fill-opacity="0.04"/>
<rect x="51" y="93" width="516" height="1" fill="#464E5F" fill-opacity="0.04"/>
</g>
<path opacity="0.7" d="M37.2088 257.572C37.2088 260.092 37.8328 262 40.2328 262C42.6208 262 43.2448 260.092 43.2448 257.572C43.2448 255.088 42.6208 253.192 40.2328 253.192C37.8328 253.192 37.2088 255.088 37.2088 257.572ZM42.1648 257.572C42.1648 259.444 41.9368 261.004 40.2328 261.004C38.5168 261.004 38.2888 259.444 38.2888 257.572C38.2888 255.772 38.5168 254.188 40.2328 254.188C41.9368 254.188 42.1648 255.772 42.1648 257.572Z" fill="#7B91B0"/>
<path opacity="0.7" d="M26.6939 221H27.7979V212.324H25.5419V213.32H26.6939V221ZM29.6737 216.572C29.6737 219.092 30.2977 221 32.6977 221C35.0857 221 35.7097 219.092 35.7097 216.572C35.7097 214.088 35.0857 212.192 32.6977 212.192C30.2977 212.192 29.6737 214.088 29.6737 216.572ZM34.6297 216.572C34.6297 218.444 34.4017 220.004 32.6977 220.004C30.9817 220.004 30.7537 218.444 30.7537 216.572C30.7537 214.772 30.9817 213.188 32.6977 213.188C34.4017 213.188 34.6297 214.772 34.6297 216.572ZM37.2088 216.572C37.2088 219.092 37.8328 221 40.2328 221C42.6208 221 43.2448 219.092 43.2448 216.572C43.2448 214.088 42.6208 212.192 40.2328 212.192C37.8328 212.192 37.2088 214.088 37.2088 216.572ZM42.1648 216.572C42.1648 218.444 41.9368 220.004 40.2328 220.004C38.5168 220.004 38.2888 218.444 38.2888 216.572C38.2888 214.772 38.5168 213.188 40.2328 213.188C41.9368 213.188 42.1648 214.772 42.1648 216.572Z" fill="#7B91B0"/>
<path opacity="0.7" d="M22.6393 178.904H28.4113V177.992H24.2833C25.8313 176.732 28.1593 174.896 28.1593 172.736C28.1593 171.128 27.1033 170.168 25.4713 170.168C23.9113 170.168 22.7473 171.128 22.6753 172.976H23.7313C23.7793 171.884 24.3553 171.104 25.4833 171.104C26.6593 171.104 27.0793 171.824 27.0793 172.784C27.0793 174.56 24.9193 176.288 22.6393 178.124V178.904ZM29.6737 174.572C29.6737 177.092 30.2977 179 32.6977 179C35.0857 179 35.7097 177.092 35.7097 174.572C35.7097 172.088 35.0857 170.192 32.6977 170.192C30.2977 170.192 29.6737 172.088 29.6737 174.572ZM34.6297 174.572C34.6297 176.444 34.4017 178.004 32.6977 178.004C30.9817 178.004 30.7537 176.444 30.7537 174.572C30.7537 172.772 30.9817 171.188 32.6977 171.188C34.4017 171.188 34.6297 172.772 34.6297 174.572ZM37.2088 174.572C37.2088 177.092 37.8328 179 40.2328 179C42.6208 179 43.2448 177.092 43.2448 174.572C43.2448 172.088 42.6208 170.192 40.2328 170.192C37.8328 170.192 37.2088 172.088 37.2088 174.572ZM42.1648 174.572C42.1648 176.444 41.9368 178.004 40.2328 178.004C38.5168 178.004 38.2888 176.444 38.2888 174.572C38.2888 172.772 38.5168 171.188 40.2328 171.188C41.9368 171.188 42.1648 172.772 42.1648 174.572Z" fill="#7B91B0"/>
<path opacity="0.7" d="M22.5833 132.508H23.6513C23.7593 131.668 24.3713 131.092 25.3913 131.092C26.4353 131.092 26.9873 131.668 26.9873 132.496C26.9873 133.504 26.2073 133.948 24.7553 133.96H24.4673V134.872H24.7433C26.3033 134.872 27.1553 135.34 27.1553 136.564C27.1553 137.452 26.6033 138.136 25.4393 138.136C24.2873 138.136 23.6153 137.428 23.5073 136.504H22.4513C22.5833 138.184 23.8073 139.06 25.4513 139.06C27.2633 139.06 28.1993 138.004 28.1993 136.66C28.1993 135.412 27.5153 134.668 26.5073 134.428V134.368C27.4193 134.164 28.0433 133.384 28.0433 132.388C28.0433 131.14 27.1193 130.156 25.4273 130.156C23.8193 130.156 22.6913 131.02 22.5833 132.508ZM29.6737 134.572C29.6737 137.092 30.2977 139 32.6977 139C35.0857 139 35.7097 137.092 35.7097 134.572C35.7097 132.088 35.0857 130.192 32.6977 130.192C30.2977 130.192 29.6737 132.088 29.6737 134.572ZM34.6297 134.572C34.6297 136.444 34.4017 138.004 32.6977 138.004C30.9817 138.004 30.7537 136.444 30.7537 134.572C30.7537 132.772 30.9817 131.188 32.6977 131.188C34.4017 131.188 34.6297 132.772 34.6297 134.572ZM37.2088 134.572C37.2088 137.092 37.8328 139 40.2328 139C42.6208 139 43.2448 137.092 43.2448 134.572C43.2448 132.088 42.6208 130.192 40.2328 130.192C37.8328 130.192 37.2088 132.088 37.2088 134.572ZM42.1648 134.572C42.1648 136.444 41.9368 138.004 40.2328 138.004C38.5168 138.004 38.2888 136.444 38.2888 134.572C38.2888 132.772 38.5168 131.188 40.2328 131.188C41.9368 131.188 42.1648 132.772 42.1648 134.572Z" fill="#7B91B0"/>
<path opacity="0.7" d="M26.3028 98H27.3828V96.068H28.5828V95.12H27.3828V89.408H26.0748L21.8628 95.24V96.068H26.3028V98ZM23.1228 95.12L26.3508 90.548V95.12H23.1228ZM29.6737 93.572C29.6737 96.092 30.2977 98 32.6977 98C35.0857 98 35.7097 96.092 35.7097 93.572C35.7097 91.088 35.0857 89.192 32.6977 89.192C30.2977 89.192 29.6737 91.088 29.6737 93.572ZM34.6297 93.572C34.6297 95.444 34.4017 97.004 32.6977 97.004C30.9817 97.004 30.7537 95.444 30.7537 93.572C30.7537 91.772 30.9817 90.188 32.6977 90.188C34.4017 90.188 34.6297 91.772 34.6297 93.572ZM37.2088 93.572C37.2088 96.092 37.8328 98 40.2328 98C42.6208 98 43.2448 96.092 43.2448 93.572C43.2448 91.088 42.6208 89.192 40.2328 89.192C37.8328 89.192 37.2088 91.088 37.2088 93.572ZM42.1648 93.572C42.1648 95.444 41.9368 97.004 40.2328 97.004C38.5168 97.004 38.2888 95.444 38.2888 93.572C38.2888 91.772 38.5168 90.188 40.2328 90.188C41.9368 90.188 42.1648 91.772 42.1648 93.572Z" fill="#7B91B0"/>
<path d="M70.7416 270.1C70.235 270.1 69.8233 270 69.5066 269.8C69.19 269.597 68.9583 269.315 68.8116 268.955C68.665 268.592 68.5916 268.168 68.5916 267.685C68.5916 267.635 68.5916 267.587 68.5916 267.54C68.5916 267.49 68.5916 267.442 68.5916 267.395H69.4316C69.4316 267.425 69.4316 267.458 69.4316 267.495C69.4316 267.528 69.4316 267.563 69.4316 267.6C69.4316 267.94 69.475 268.24 69.5616 268.5C69.6483 268.76 69.7866 268.963 69.9766 269.11C70.17 269.257 70.425 269.33 70.7416 269.33C71.055 269.33 71.3066 269.257 71.4966 269.11C71.6866 268.963 71.825 268.755 71.9116 268.485C71.9983 268.212 72.0416 267.89 72.0416 267.52V262.625H72.8916V267.63C72.8916 267.987 72.8533 268.315 72.7766 268.615C72.7 268.915 72.5766 269.177 72.4066 269.4C72.24 269.62 72.02 269.792 71.7466 269.915C71.4733 270.038 71.1383 270.1 70.7416 270.1ZM76.2118 270.1C75.8085 270.1 75.4551 270.037 75.1518 269.91C74.8518 269.783 74.6185 269.602 74.4518 269.365C74.2851 269.125 74.2018 268.838 74.2018 268.505C74.2018 268.158 74.2918 267.87 74.4718 267.64C74.6518 267.407 74.9051 267.225 75.2318 267.095C75.5585 266.965 75.9385 266.878 76.3718 266.835C77.0251 266.768 77.4901 266.703 77.7668 266.64C78.0435 266.573 78.1818 266.467 78.1818 266.32C78.1818 266.317 78.1818 266.315 78.1818 266.315C78.1818 266.312 78.1818 266.308 78.1818 266.305C78.1818 265.998 78.0568 265.77 77.8068 265.62C77.5568 265.467 77.1951 265.39 76.7218 265.39C76.2285 265.39 75.8451 265.477 75.5718 265.65C75.2985 265.82 75.1618 266.097 75.1618 266.48H74.3218C74.3218 266.083 74.4235 265.747 74.6268 265.47C74.8301 265.19 75.1118 264.977 75.4718 264.83C75.8351 264.683 76.2535 264.61 76.7268 264.61C77.1601 264.61 77.5501 264.677 77.8968 264.81C78.2468 264.94 78.5235 265.135 78.7268 265.395C78.9335 265.652 79.0368 265.97 79.0368 266.35C79.0368 266.42 79.0368 266.49 79.0368 266.56C79.0368 266.627 79.0368 266.695 79.0368 266.765V269C79.0368 269.117 79.0418 269.23 79.0518 269.34C79.0618 269.45 79.0785 269.547 79.1018 269.63C79.1318 269.73 79.1651 269.812 79.2018 269.875C79.2385 269.935 79.2685 269.977 79.2918 270H78.4368C78.4201 269.983 78.3951 269.945 78.3618 269.885C78.3285 269.822 78.2968 269.748 78.2668 269.665C78.2435 269.598 78.2251 269.515 78.2118 269.415C78.1985 269.312 78.1918 269.205 78.1918 269.095L78.3318 269.19C78.2285 269.37 78.0768 269.528 77.8768 269.665C77.6801 269.802 77.4418 269.908 77.1618 269.985C76.8818 270.062 76.5651 270.1 76.2118 270.1ZM76.3468 269.335C76.6901 269.335 77.0001 269.283 77.2768 269.18C77.5535 269.073 77.7735 268.917 77.9368 268.71C78.1001 268.503 78.1818 268.247 78.1818 267.94V266.885L78.3718 267.205C78.1585 267.288 77.8918 267.357 77.5718 267.41C77.2551 267.46 76.9235 267.502 76.5768 267.535C76.0735 267.582 75.6935 267.67 75.4368 267.8C75.1835 267.93 75.0568 268.148 75.0568 268.455C75.0568 268.745 75.1618 268.965 75.3718 269.115C75.5818 269.262 75.9068 269.335 76.3468 269.335ZM84.2505 270V267.455C84.2505 267.302 84.2505 267.177 84.2505 267.08C84.2505 266.98 84.2505 266.885 84.2505 266.795C84.2505 266.518 84.2039 266.277 84.1105 266.07C84.0172 265.863 83.8705 265.703 83.6705 265.59C83.4705 265.477 83.2089 265.42 82.8855 265.42C82.6022 265.42 82.3389 265.493 82.0955 265.64C81.8555 265.783 81.6622 265.978 81.5155 266.225C81.3722 266.468 81.3005 266.742 81.3005 267.045L80.8155 266.86C80.8155 266.443 80.9172 266.065 81.1205 265.725C81.3272 265.385 81.6005 265.115 81.9405 264.915C82.2839 264.712 82.6572 264.61 83.0605 264.61C83.4705 264.61 83.8289 264.688 84.1355 264.845C84.4422 265.002 84.6789 265.227 84.8455 265.52C85.0155 265.81 85.1005 266.16 85.1005 266.57C85.1005 266.717 85.1005 266.877 85.1005 267.05C85.1005 267.223 85.1005 267.385 85.1005 267.535V270H84.2505ZM80.4505 270V264.69H81.3005V270H80.4505Z" fill="#464E5F"/>
<path d="M115.415 263.375L115.8 262.89V266.26L115.525 265.99H118.51V266.74H115.525L115.8 266.455V270H114.95V262.625H118.955V263.375H115.415ZM120.012 267.685V266.925H124.117L123.967 267.175C123.967 267.155 123.967 267.137 123.967 267.12C123.967 267.1 123.967 267.082 123.967 267.065C123.967 266.758 123.902 266.478 123.772 266.225C123.645 265.968 123.455 265.763 123.202 265.61C122.948 265.457 122.635 265.38 122.262 265.38C121.885 265.38 121.553 265.46 121.267 265.62C120.98 265.78 120.757 266.007 120.597 266.3C120.437 266.59 120.357 266.937 120.357 267.34C120.357 267.75 120.433 268.103 120.587 268.4C120.743 268.697 120.965 268.925 121.252 269.085C121.538 269.245 121.878 269.325 122.272 269.325C122.552 269.325 122.795 269.297 123.002 269.24C123.208 269.18 123.378 269.102 123.512 269.005C123.648 268.905 123.752 268.797 123.822 268.68C123.892 268.563 123.933 268.447 123.947 268.33H124.797C124.78 268.543 124.713 268.755 124.597 268.965C124.48 269.175 124.315 269.367 124.102 269.54C123.888 269.71 123.627 269.847 123.317 269.95C123.007 270.053 122.65 270.105 122.247 270.105C121.713 270.105 121.243 269.988 120.837 269.755C120.43 269.522 120.11 269.198 119.877 268.785C119.647 268.372 119.532 267.897 119.532 267.36C119.532 266.817 119.648 266.34 119.882 265.93C120.115 265.517 120.437 265.193 120.847 264.96C121.257 264.727 121.725 264.61 122.252 264.61C122.788 264.61 123.253 264.727 123.647 264.96C124.04 265.193 124.343 265.513 124.557 265.92C124.77 266.323 124.877 266.783 124.877 267.3C124.877 267.353 124.875 267.423 124.872 267.51C124.868 267.597 124.863 267.655 124.857 267.685H120.012ZM128.797 270.1C128.387 270.1 128.003 270 127.647 269.8C127.29 269.597 127 269.318 126.777 268.965C126.557 268.612 126.447 268.208 126.447 267.755C126.447 267.745 126.447 267.737 126.447 267.73C126.447 267.723 126.447 267.715 126.447 267.705L127.057 267.69C127.057 267.697 127.057 267.705 127.057 267.715C127.057 267.722 127.057 267.728 127.057 267.735C127.057 268.022 127.132 268.283 127.282 268.52C127.435 268.757 127.635 268.945 127.882 269.085C128.128 269.225 128.393 269.295 128.677 269.295C129.147 269.295 129.537 269.135 129.847 268.815C130.16 268.492 130.317 268 130.317 267.34C130.317 266.677 130.162 266.187 129.852 265.87C129.542 265.55 129.15 265.39 128.677 265.39C128.393 265.39 128.128 265.46 127.882 265.6C127.635 265.737 127.435 265.922 127.282 266.155C127.132 266.388 127.057 266.65 127.057 266.94L126.447 266.92C126.447 266.463 126.557 266.062 126.777 265.715C127 265.368 127.29 265.098 127.647 264.905C128.003 264.708 128.387 264.61 128.797 264.61C129.227 264.61 129.623 264.717 129.987 264.93C130.35 265.14 130.642 265.448 130.862 265.855C131.082 266.262 131.192 266.757 131.192 267.34C131.192 267.933 131.083 268.437 130.867 268.85C130.65 269.26 130.36 269.572 129.997 269.785C129.633 269.995 129.233 270.1 128.797 270.1ZM126.202 270V262.185H127.057V270H126.202Z" fill="#464E5F"/>
<path d="M154.249 262.625H155.719V270H154.909V263.305L154.934 263.315L153.054 270H151.834L149.944 263.31L149.969 263.3V270H149.159V262.625H150.629L152.439 269.315H152.429L154.249 262.625ZM159.134 270.1C158.73 270.1 158.377 270.037 158.074 269.91C157.774 269.783 157.54 269.602 157.374 269.365C157.207 269.125 157.124 268.838 157.124 268.505C157.124 268.158 157.214 267.87 157.394 267.64C157.574 267.407 157.827 267.225 158.154 267.095C158.48 266.965 158.86 266.878 159.294 266.835C159.947 266.768 160.412 266.703 160.689 266.64C160.965 266.573 161.104 266.467 161.104 266.32C161.104 266.317 161.104 266.315 161.104 266.315C161.104 266.312 161.104 266.308 161.104 266.305C161.104 265.998 160.979 265.77 160.729 265.62C160.479 265.467 160.117 265.39 159.644 265.39C159.15 265.39 158.767 265.477 158.494 265.65C158.22 265.82 158.084 266.097 158.084 266.48H157.244C157.244 266.083 157.345 265.747 157.549 265.47C157.752 265.19 158.034 264.977 158.394 264.83C158.757 264.683 159.175 264.61 159.649 264.61C160.082 264.61 160.472 264.677 160.819 264.81C161.169 264.94 161.445 265.135 161.649 265.395C161.855 265.652 161.959 265.97 161.959 266.35C161.959 266.42 161.959 266.49 161.959 266.56C161.959 266.627 161.959 266.695 161.959 266.765V269C161.959 269.117 161.964 269.23 161.974 269.34C161.984 269.45 162 269.547 162.024 269.63C162.054 269.73 162.087 269.812 162.124 269.875C162.16 269.935 162.19 269.977 162.214 270H161.359C161.342 269.983 161.317 269.945 161.284 269.885C161.25 269.822 161.219 269.748 161.189 269.665C161.165 269.598 161.147 269.515 161.134 269.415C161.12 269.312 161.114 269.205 161.114 269.095L161.254 269.19C161.15 269.37 160.999 269.528 160.799 269.665C160.602 269.802 160.364 269.908 160.084 269.985C159.804 270.062 159.487 270.1 159.134 270.1ZM159.269 269.335C159.612 269.335 159.922 269.283 160.199 269.18C160.475 269.073 160.695 268.917 160.859 268.71C161.022 268.503 161.104 268.247 161.104 267.94V266.885L161.294 267.205C161.08 267.288 160.814 267.357 160.494 267.41C160.177 267.46 159.845 267.502 159.499 267.535C158.995 267.582 158.615 267.67 158.359 267.8C158.105 267.93 157.979 268.148 157.979 268.455C157.979 268.745 158.084 268.965 158.294 269.115C158.504 269.262 158.829 269.335 159.269 269.335ZM163.372 270V264.69H164.222V266.32L163.942 266.22C163.962 266.023 164.012 265.83 164.092 265.64C164.172 265.447 164.282 265.273 164.422 265.12C164.566 264.963 164.744 264.84 164.957 264.75C165.171 264.657 165.421 264.61 165.707 264.61C165.921 264.61 166.094 264.628 166.227 264.665C166.364 264.698 166.449 264.725 166.482 264.745L166.262 265.58C166.229 265.557 166.161 265.527 166.057 265.49C165.957 265.453 165.814 265.435 165.627 265.435C165.351 265.435 165.121 265.485 164.937 265.585C164.757 265.685 164.614 265.818 164.507 265.985C164.404 266.148 164.331 266.327 164.287 266.52C164.244 266.713 164.222 266.905 164.222 267.095V270H163.372Z" fill="#464E5F"/>
<path d="M195.643 270L197.673 262.605H199.003L201.018 270H200.138L198.333 263.16H198.343L196.523 270H195.643ZM196.693 268.045V267.295H199.983V268.045H196.693ZM202.17 272.185V264.69H203.02V272.185H202.17ZM204.765 270.1C204.355 270.1 203.972 270 203.615 269.8C203.259 269.597 202.969 269.318 202.745 268.965C202.525 268.612 202.415 268.208 202.415 267.755C202.415 267.745 202.415 267.737 202.415 267.73C202.415 267.723 202.415 267.715 202.415 267.705L203.025 267.69C203.025 267.697 203.025 267.705 203.025 267.715C203.025 267.722 203.025 267.728 203.025 267.735C203.025 268.022 203.1 268.283 203.25 268.52C203.404 268.757 203.604 268.945 203.85 269.085C204.097 269.225 204.362 269.295 204.645 269.295C205.115 269.295 205.505 269.135 205.815 268.815C206.129 268.492 206.285 268 206.285 267.34C206.285 266.677 206.13 266.187 205.82 265.87C205.51 265.55 205.119 265.39 204.645 265.39C204.362 265.39 204.097 265.46 203.85 265.6C203.604 265.737 203.404 265.922 203.25 266.155C203.1 266.388 203.025 266.65 203.025 266.94L202.415 266.92C202.415 266.463 202.525 266.062 202.745 265.715C202.969 265.368 203.259 265.098 203.615 264.905C203.972 264.708 204.355 264.61 204.765 264.61C205.195 264.61 205.592 264.717 205.955 264.93C206.319 265.14 206.61 265.448 206.83 265.855C207.05 266.262 207.16 266.757 207.16 267.34C207.16 267.933 207.052 268.437 206.835 268.85C206.619 269.26 206.329 269.572 205.965 269.785C205.602 269.995 205.202 270.1 204.765 270.1ZM208.489 270V264.69H209.339V266.32L209.059 266.22C209.079 266.023 209.129 265.83 209.209 265.64C209.289 265.447 209.399 265.273 209.539 265.12C209.682 264.963 209.86 264.84 210.074 264.75C210.287 264.657 210.537 264.61 210.824 264.61C211.037 264.61 211.21 264.628 211.344 264.665C211.48 264.698 211.565 264.725 211.599 264.745L211.379 265.58C211.345 265.557 211.277 265.527 211.174 265.49C211.074 265.453 210.93 265.435 210.744 265.435C210.467 265.435 210.237 265.485 210.054 265.585C209.874 265.685 209.73 265.818 209.624 265.985C209.52 266.148 209.447 266.327 209.404 266.52C209.36 266.713 209.339 266.905 209.339 267.095V270H208.489Z" fill="#464E5F"/>
<path d="M246.256 262.625H247.726V270H246.916V263.305L246.941 263.315L245.061 270H243.841L241.951 263.31L241.976 263.3V270H241.166V262.625H242.636L244.446 269.315H244.436L246.256 262.625ZM251.141 270.1C250.737 270.1 250.384 270.037 250.081 269.91C249.781 269.783 249.547 269.602 249.381 269.365C249.214 269.125 249.131 268.838 249.131 268.505C249.131 268.158 249.221 267.87 249.401 267.64C249.581 267.407 249.834 267.225 250.161 267.095C250.487 266.965 250.867 266.878 251.301 266.835C251.954 266.768 252.419 266.703 252.696 266.64C252.972 266.573 253.111 266.467 253.111 266.32C253.111 266.317 253.111 266.315 253.111 266.315C253.111 266.312 253.111 266.308 253.111 266.305C253.111 265.998 252.986 265.77 252.736 265.62C252.486 265.467 252.124 265.39 251.651 265.39C251.157 265.39 250.774 265.477 250.501 265.65C250.227 265.82 250.091 266.097 250.091 266.48H249.251C249.251 266.083 249.352 265.747 249.556 265.47C249.759 265.19 250.041 264.977 250.401 264.83C250.764 264.683 251.182 264.61 251.656 264.61C252.089 264.61 252.479 264.677 252.826 264.81C253.176 264.94 253.452 265.135 253.656 265.395C253.862 265.652 253.966 265.97 253.966 266.35C253.966 266.42 253.966 266.49 253.966 266.56C253.966 266.627 253.966 266.695 253.966 266.765V269C253.966 269.117 253.971 269.23 253.981 269.34C253.991 269.45 254.007 269.547 254.031 269.63C254.061 269.73 254.094 269.812 254.131 269.875C254.167 269.935 254.197 269.977 254.221 270H253.366C253.349 269.983 253.324 269.945 253.291 269.885C253.257 269.822 253.226 269.748 253.196 269.665C253.172 269.598 253.154 269.515 253.141 269.415C253.127 269.312 253.121 269.205 253.121 269.095L253.261 269.19C253.157 269.37 253.006 269.528 252.806 269.665C252.609 269.802 252.371 269.908 252.091 269.985C251.811 270.062 251.494 270.1 251.141 270.1ZM251.276 269.335C251.619 269.335 251.929 269.283 252.206 269.18C252.482 269.073 252.702 268.917 252.866 268.71C253.029 268.503 253.111 268.247 253.111 267.94V266.885L253.301 267.205C253.087 267.288 252.821 267.357 252.501 267.41C252.184 267.46 251.852 267.502 251.506 267.535C251.002 267.582 250.622 267.67 250.366 267.8C250.112 267.93 249.986 268.148 249.986 268.455C249.986 268.745 250.091 268.965 250.301 269.115C250.511 269.262 250.836 269.335 251.276 269.335ZM255.344 272.24C255.211 272.24 255.089 272.232 254.979 272.215C254.869 272.202 254.801 272.188 254.774 272.175V271.435C254.817 271.455 254.889 271.472 254.989 271.485C255.089 271.498 255.189 271.505 255.289 271.505C255.502 271.505 255.682 271.46 255.829 271.37C255.976 271.283 256.099 271.163 256.199 271.01C256.299 270.86 256.381 270.69 256.444 270.5L256.604 270.03L254.774 264.69H255.664L257.134 269.265H257.014L258.454 264.69H259.329L257.384 270.455C257.274 270.778 257.141 271.075 256.984 271.345C256.831 271.615 256.624 271.832 256.364 271.995C256.107 272.158 255.767 272.24 255.344 272.24Z" fill="#464E5F"/>
<path d="M288.79 270.1C288.284 270.1 287.872 270 287.555 269.8C287.239 269.597 287.007 269.315 286.86 268.955C286.714 268.592 286.64 268.168 286.64 267.685C286.64 267.635 286.64 267.587 286.64 267.54C286.64 267.49 286.64 267.442 286.64 267.395H287.48C287.48 267.425 287.48 267.458 287.48 267.495C287.48 267.528 287.48 267.563 287.48 267.6C287.48 267.94 287.524 268.24 287.61 268.5C287.697 268.76 287.835 268.963 288.025 269.11C288.219 269.257 288.474 269.33 288.79 269.33C289.104 269.33 289.355 269.257 289.545 269.11C289.735 268.963 289.874 268.755 289.96 268.485C290.047 268.212 290.09 267.89 290.09 267.52V262.625H290.94V267.63C290.94 267.987 290.902 268.315 290.825 268.615C290.749 268.915 290.625 269.177 290.455 269.4C290.289 269.62 290.069 269.792 289.795 269.915C289.522 270.038 289.187 270.1 288.79 270.1ZM294.366 270.095C293.986 270.095 293.669 270.03 293.416 269.9C293.162 269.767 292.961 269.595 292.811 269.385C292.664 269.175 292.559 268.948 292.496 268.705C292.436 268.458 292.406 268.222 292.406 267.995C292.406 267.868 292.406 267.738 292.406 267.605C292.406 267.468 292.406 267.332 292.406 267.195V264.69H293.261V267.085C293.261 267.208 293.261 267.33 293.261 267.45C293.261 267.57 293.261 267.683 293.261 267.79C293.261 268.06 293.297 268.31 293.371 268.54C293.447 268.77 293.579 268.957 293.766 269.1C293.952 269.24 294.209 269.31 294.536 269.31C294.842 269.31 295.111 269.218 295.341 269.035C295.571 268.848 295.751 268.617 295.881 268.34C296.011 268.06 296.076 267.782 296.076 267.505L296.571 267.71C296.571 268.003 296.519 268.292 296.416 268.575C296.312 268.855 296.164 269.11 295.971 269.34C295.781 269.57 295.549 269.753 295.276 269.89C295.006 270.027 294.702 270.095 294.366 270.095ZM296.076 270V264.69H296.926V270H296.076ZM302.202 270V267.455C302.202 267.302 302.202 267.177 302.202 267.08C302.202 266.98 302.202 266.885 302.202 266.795C302.202 266.518 302.155 266.277 302.062 266.07C301.968 265.863 301.822 265.703 301.622 265.59C301.422 265.477 301.16 265.42 300.837 265.42C300.553 265.42 300.29 265.493 300.047 265.64C299.807 265.783 299.613 265.978 299.467 266.225C299.323 266.468 299.252 266.742 299.252 267.045L298.767 266.86C298.767 266.443 298.868 266.065 299.072 265.725C299.278 265.385 299.552 265.115 299.892 264.915C300.235 264.712 300.608 264.61 301.012 264.61C301.422 264.61 301.78 264.688 302.087 264.845C302.393 265.002 302.63 265.227 302.797 265.52C302.967 265.81 303.052 266.16 303.052 266.57C303.052 266.717 303.052 266.877 303.052 267.05C303.052 267.223 303.052 267.385 303.052 267.535V270H302.202ZM298.402 270V264.69H299.252V270H298.402Z" fill="#464E5F"/>
<path d="M334.79 270.1C334.284 270.1 333.872 270 333.555 269.8C333.239 269.597 333.007 269.315 332.86 268.955C332.714 268.592 332.64 268.168 332.64 267.685C332.64 267.635 332.64 267.587 332.64 267.54C332.64 267.49 332.64 267.442 332.64 267.395H333.48C333.48 267.425 333.48 267.458 333.48 267.495C333.48 267.528 333.48 267.563 333.48 267.6C333.48 267.94 333.524 268.24 333.61 268.5C333.697 268.76 333.835 268.963 334.025 269.11C334.219 269.257 334.474 269.33 334.79 269.33C335.104 269.33 335.355 269.257 335.545 269.11C335.735 268.963 335.874 268.755 335.96 268.485C336.047 268.212 336.09 267.89 336.09 267.52V262.625H336.94V267.63C336.94 267.987 336.902 268.315 336.825 268.615C336.749 268.915 336.625 269.177 336.455 269.4C336.289 269.62 336.069 269.792 335.795 269.915C335.522 270.038 335.187 270.1 334.79 270.1ZM340.366 270.095C339.986 270.095 339.669 270.03 339.416 269.9C339.162 269.767 338.961 269.595 338.811 269.385C338.664 269.175 338.559 268.948 338.496 268.705C338.436 268.458 338.406 268.222 338.406 267.995C338.406 267.868 338.406 267.738 338.406 267.605C338.406 267.468 338.406 267.332 338.406 267.195V264.69H339.261V267.085C339.261 267.208 339.261 267.33 339.261 267.45C339.261 267.57 339.261 267.683 339.261 267.79C339.261 268.06 339.297 268.31 339.371 268.54C339.447 268.77 339.579 268.957 339.766 269.1C339.952 269.24 340.209 269.31 340.536 269.31C340.842 269.31 341.111 269.218 341.341 269.035C341.571 268.848 341.751 268.617 341.881 268.34C342.011 268.06 342.076 267.782 342.076 267.505L342.571 267.71C342.571 268.003 342.519 268.292 342.416 268.575C342.312 268.855 342.164 269.11 341.971 269.34C341.781 269.57 341.549 269.753 341.276 269.89C341.006 270.027 340.702 270.095 340.366 270.095ZM342.076 270V264.69H342.926V270H342.076ZM348.202 270V267.455C348.202 267.302 348.202 267.177 348.202 267.08C348.202 266.98 348.202 266.885 348.202 266.795C348.202 266.518 348.155 266.277 348.062 266.07C347.968 265.863 347.822 265.703 347.622 265.59C347.422 265.477 347.16 265.42 346.837 265.42C346.553 265.42 346.29 265.493 346.047 265.64C345.807 265.783 345.613 265.978 345.467 266.225C345.323 266.468 345.252 266.742 345.252 267.045L344.767 266.86C344.767 266.443 344.868 266.065 345.072 265.725C345.278 265.385 345.552 265.115 345.892 264.915C346.235 264.712 346.608 264.61 347.012 264.61C347.422 264.61 347.78 264.688 348.087 264.845C348.393 265.002 348.63 265.227 348.797 265.52C348.967 265.81 349.052 266.16 349.052 266.57C349.052 266.717 349.052 266.877 349.052 267.05C349.052 267.223 349.052 267.385 349.052 267.535V270H348.202ZM344.402 270V264.69H345.252V270H344.402Z" fill="#464E5F"/>
<path d="M382.622 270.1C382.115 270.1 381.703 270 381.387 269.8C381.07 269.597 380.838 269.315 380.692 268.955C380.545 268.592 380.472 268.168 380.472 267.685C380.472 267.635 380.472 267.587 380.472 267.54C380.472 267.49 380.472 267.442 380.472 267.395H381.312C381.312 267.425 381.312 267.458 381.312 267.495C381.312 267.528 381.312 267.563 381.312 267.6C381.312 267.94 381.355 268.24 381.442 268.5C381.528 268.76 381.667 268.963 381.857 269.11C382.05 269.257 382.305 269.33 382.622 269.33C382.935 269.33 383.187 269.257 383.377 269.11C383.567 268.963 383.705 268.755 383.792 268.485C383.878 268.212 383.922 267.89 383.922 267.52V262.625H384.772V267.63C384.772 267.987 384.733 268.315 384.657 268.615C384.58 268.915 384.457 269.177 384.287 269.4C384.12 269.62 383.9 269.792 383.627 269.915C383.353 270.038 383.018 270.1 382.622 270.1ZM388.197 270.095C387.817 270.095 387.5 270.03 387.247 269.9C386.993 269.767 386.792 269.595 386.642 269.385C386.495 269.175 386.39 268.948 386.327 268.705C386.267 268.458 386.237 268.222 386.237 267.995C386.237 267.868 386.237 267.738 386.237 267.605C386.237 267.468 386.237 267.332 386.237 267.195V264.69H387.092V267.085C387.092 267.208 387.092 267.33 387.092 267.45C387.092 267.57 387.092 267.683 387.092 267.79C387.092 268.06 387.128 268.31 387.202 268.54C387.278 268.77 387.41 268.957 387.597 269.1C387.783 269.24 388.04 269.31 388.367 269.31C388.673 269.31 388.942 269.218 389.172 269.035C389.402 268.848 389.582 268.617 389.712 268.34C389.842 268.06 389.907 267.782 389.907 267.505L390.402 267.71C390.402 268.003 390.35 268.292 390.247 268.575C390.143 268.855 389.995 269.11 389.802 269.34C389.612 269.57 389.38 269.753 389.107 269.89C388.837 270.027 388.533 270.095 388.197 270.095ZM389.907 270V264.69H390.757V270H389.907ZM393.148 262.185V270H392.308V262.185H393.148Z" fill="#464E5F"/>
<path d="M414.465 270.1C413.955 270.1 413.519 270.02 413.155 269.86C412.795 269.697 412.519 269.452 412.325 269.125C412.132 268.798 412.035 268.392 412.035 267.905C412.035 267.838 412.035 267.782 412.035 267.735C412.035 267.688 412.035 267.632 412.035 267.565H412.89C412.89 267.628 412.89 267.682 412.89 267.725C412.89 267.768 412.89 267.823 412.89 267.89C412.89 268.4 413.024 268.768 413.29 268.995C413.557 269.218 413.945 269.33 414.455 269.33C414.982 269.33 415.38 269.24 415.65 269.06C415.92 268.88 416.055 268.588 416.055 268.185C416.055 267.902 415.977 267.667 415.82 267.48C415.667 267.29 415.454 267.13 415.18 267C414.907 266.867 414.589 266.745 414.225 266.635C413.815 266.508 413.449 266.348 413.125 266.155C412.805 265.962 412.552 265.723 412.365 265.44C412.182 265.153 412.09 264.805 412.09 264.395C412.09 263.995 412.187 263.657 412.38 263.38C412.577 263.103 412.85 262.893 413.2 262.75C413.55 262.607 413.957 262.535 414.42 262.535C414.91 262.535 415.335 262.612 415.695 262.765C416.059 262.915 416.339 263.145 416.535 263.455C416.735 263.762 416.835 264.148 416.835 264.615C416.835 264.688 416.835 264.752 416.835 264.805C416.835 264.855 416.835 264.917 416.835 264.99H415.98C415.98 264.927 415.98 264.87 415.98 264.82C415.98 264.77 415.98 264.713 415.98 264.65C415.98 264.163 415.849 263.818 415.585 263.615C415.322 263.408 414.939 263.305 414.435 263.305C413.952 263.305 413.579 263.39 413.315 263.56C413.052 263.73 412.92 264.008 412.92 264.395C412.92 264.685 413 264.925 413.16 265.115C413.324 265.302 413.545 265.462 413.825 265.595C414.105 265.725 414.425 265.85 414.785 265.97C415.222 266.113 415.597 266.277 415.91 266.46C416.227 266.64 416.469 266.865 416.635 267.135C416.805 267.405 416.89 267.745 416.89 268.155C416.89 268.565 416.792 268.915 416.595 269.205C416.402 269.495 416.124 269.717 415.76 269.87C415.4 270.023 414.969 270.1 414.465 270.1ZM418.439 267.685V266.925H422.544L422.394 267.175C422.394 267.155 422.394 267.137 422.394 267.12C422.394 267.1 422.394 267.082 422.394 267.065C422.394 266.758 422.329 266.478 422.199 266.225C422.073 265.968 421.883 265.763 421.629 265.61C421.376 265.457 421.063 265.38 420.689 265.38C420.313 265.38 419.981 265.46 419.694 265.62C419.408 265.78 419.184 266.007 419.024 266.3C418.864 266.59 418.784 266.937 418.784 267.34C418.784 267.75 418.861 268.103 419.014 268.4C419.171 268.697 419.393 268.925 419.679 269.085C419.966 269.245 420.306 269.325 420.699 269.325C420.979 269.325 421.223 269.297 421.429 269.24C421.636 269.18 421.806 269.102 421.939 269.005C422.076 268.905 422.179 268.797 422.249 268.68C422.319 268.563 422.361 268.447 422.374 268.33H423.224C423.208 268.543 423.141 268.755 423.024 268.965C422.908 269.175 422.743 269.367 422.529 269.54C422.316 269.71 422.054 269.847 421.744 269.95C421.434 270.053 421.078 270.105 420.674 270.105C420.141 270.105 419.671 269.988 419.264 269.755C418.858 269.522 418.538 269.198 418.304 268.785C418.074 268.372 417.959 267.897 417.959 267.36C417.959 266.817 418.076 266.34 418.309 265.93C418.543 265.517 418.864 265.193 419.274 264.96C419.684 264.727 420.153 264.61 420.679 264.61C421.216 264.61 421.681 264.727 422.074 264.96C422.468 265.193 422.771 265.513 422.984 265.92C423.198 266.323 423.304 266.783 423.304 267.3C423.304 267.353 423.303 267.423 423.299 267.51C423.296 267.597 423.291 267.655 423.284 267.685H418.439ZM424.629 272.185V264.69H425.479V272.185H424.629ZM427.224 270.1C426.814 270.1 426.431 270 426.074 269.8C425.718 269.597 425.428 269.318 425.204 268.965C424.984 268.612 424.874 268.208 424.874 267.755C424.874 267.745 424.874 267.737 424.874 267.73C424.874 267.723 424.874 267.715 424.874 267.705L425.484 267.69C425.484 267.697 425.484 267.705 425.484 267.715C425.484 267.722 425.484 267.728 425.484 267.735C425.484 268.022 425.559 268.283 425.709 268.52C425.863 268.757 426.063 268.945 426.309 269.085C426.556 269.225 426.821 269.295 427.104 269.295C427.574 269.295 427.964 269.135 428.274 268.815C428.588 268.492 428.744 268 428.744 267.34C428.744 266.677 428.589 266.187 428.279 265.87C427.969 265.55 427.578 265.39 427.104 265.39C426.821 265.39 426.556 265.46 426.309 265.6C426.063 265.737 425.863 265.922 425.709 266.155C425.559 266.388 425.484 266.65 425.484 266.94L424.874 266.92C424.874 266.463 424.984 266.062 425.204 265.715C425.428 265.368 425.718 265.098 426.074 264.905C426.431 264.708 426.814 264.61 427.224 264.61C427.654 264.61 428.051 264.717 428.414 264.93C428.778 265.14 429.069 265.448 429.289 265.855C429.509 266.262 429.619 266.757 429.619 267.34C429.619 267.933 429.511 268.437 429.294 268.85C429.078 269.26 428.788 269.572 428.424 269.785C428.061 269.995 427.661 270.1 427.224 270.1ZM432.94 270.08C432.777 270.08 432.617 270.062 432.46 270.025C432.304 269.988 432.162 269.923 432.035 269.83C431.912 269.733 431.814 269.598 431.74 269.425C431.667 269.248 431.63 269.022 431.63 268.745C431.63 268.675 431.63 268.603 431.63 268.53C431.63 268.453 431.63 268.373 431.63 268.29V265.44H430.335V264.69H431.165C431.279 264.69 431.367 264.687 431.43 264.68C431.494 264.67 431.539 264.648 431.565 264.615C431.595 264.578 431.614 264.523 431.62 264.45C431.627 264.373 431.63 264.268 431.63 264.135V262.93H432.485V264.69H434.145V265.44H432.485V268.015C432.485 268.088 432.485 268.16 432.485 268.23C432.485 268.3 432.485 268.365 432.485 268.425C432.485 268.708 432.519 268.93 432.585 269.09C432.655 269.25 432.81 269.33 433.05 269.33C433.147 269.33 433.239 269.322 433.325 269.305C433.412 269.288 433.477 269.272 433.52 269.255V269.995C433.464 270.015 433.384 270.033 433.28 270.05C433.18 270.07 433.067 270.08 432.94 270.08Z" fill="#464E5F"/>
<path d="M462.705 270.1C462.275 270.1 461.88 270.015 461.52 269.845C461.163 269.675 460.852 269.428 460.585 269.105C460.322 268.778 460.117 268.38 459.97 267.91C459.827 267.44 459.755 266.905 459.755 266.305C459.755 265.705 459.827 265.172 459.97 264.705C460.117 264.235 460.322 263.84 460.585 263.52C460.852 263.197 461.165 262.952 461.525 262.785C461.885 262.618 462.278 262.535 462.705 262.535C463.135 262.535 463.53 262.618 463.89 262.785C464.25 262.952 464.562 263.197 464.825 263.52C465.092 263.84 465.297 264.235 465.44 264.705C465.587 265.172 465.66 265.705 465.66 266.305C465.66 266.905 465.587 267.44 465.44 267.91C465.297 268.38 465.092 268.778 464.825 269.105C464.562 269.428 464.25 269.675 463.89 269.845C463.53 270.015 463.135 270.1 462.705 270.1ZM462.705 269.33C463.115 269.33 463.477 269.218 463.79 268.995C464.103 268.772 464.348 268.437 464.525 267.99C464.702 267.54 464.79 266.978 464.79 266.305C464.79 265.628 464.7 265.068 464.52 264.625C464.343 264.182 464.098 263.852 463.785 263.635C463.472 263.418 463.112 263.31 462.705 263.31C462.302 263.31 461.942 263.418 461.625 263.635C461.312 263.852 461.065 264.182 460.885 264.625C460.708 265.068 460.62 265.628 460.62 266.305C460.62 266.982 460.708 267.545 460.885 267.995C461.065 268.442 461.312 268.777 461.625 269C461.942 269.22 462.302 269.33 462.705 269.33ZM469.449 270.1C468.942 270.1 468.482 269.99 468.069 269.77C467.656 269.547 467.327 269.228 467.084 268.815C466.844 268.402 466.724 267.91 466.724 267.34C466.724 266.77 466.844 266.282 467.084 265.875C467.327 265.465 467.656 265.152 468.069 264.935C468.482 264.718 468.942 264.61 469.449 264.61C469.836 264.61 470.181 264.67 470.484 264.79C470.787 264.907 471.044 265.063 471.254 265.26C471.464 265.457 471.624 265.673 471.734 265.91C471.847 266.143 471.904 266.377 471.904 266.61C471.904 266.613 471.904 266.618 471.904 266.625C471.904 266.632 471.904 266.638 471.904 266.645H471.059C471.059 266.628 471.057 266.61 471.054 266.59C471.051 266.567 471.047 266.543 471.044 266.52C471.017 266.297 470.932 266.102 470.789 265.935C470.646 265.765 470.459 265.632 470.229 265.535C469.999 265.438 469.737 265.39 469.444 265.39C469.114 265.39 468.807 265.462 468.524 265.605C468.244 265.745 468.017 265.96 467.844 266.25C467.674 266.537 467.589 266.9 467.589 267.34C467.589 267.777 467.674 268.142 467.844 268.435C468.014 268.728 468.239 268.95 468.519 269.1C468.802 269.247 469.111 269.32 469.444 269.32C469.804 269.32 470.101 269.263 470.334 269.15C470.567 269.037 470.742 268.887 470.859 268.7C470.979 268.51 471.046 268.307 471.059 268.09H471.904C471.904 268.33 471.851 268.57 471.744 268.81C471.637 269.047 471.481 269.263 471.274 269.46C471.067 269.653 470.811 269.808 470.504 269.925C470.201 270.042 469.849 270.1 469.449 270.1ZM475.22 270.08C475.057 270.08 474.897 270.062 474.74 270.025C474.584 269.988 474.442 269.923 474.315 269.83C474.192 269.733 474.094 269.598 474.02 269.425C473.947 269.248 473.91 269.022 473.91 268.745C473.91 268.675 473.91 268.603 473.91 268.53C473.91 268.453 473.91 268.373 473.91 268.29V265.44H472.615V264.69H473.445C473.559 264.69 473.647 264.687 473.71 264.68C473.774 264.67 473.819 264.648 473.845 264.615C473.875 264.578 473.894 264.523 473.9 264.45C473.907 264.373 473.91 264.268 473.91 264.135V262.93H474.765V264.69H476.425V265.44H474.765V268.015C474.765 268.088 474.765 268.16 474.765 268.23C474.765 268.3 474.765 268.365 474.765 268.425C474.765 268.708 474.799 268.93 474.865 269.09C474.935 269.25 475.09 269.33 475.33 269.33C475.427 269.33 475.519 269.322 475.605 269.305C475.692 269.288 475.757 269.272 475.8 269.255V269.995C475.744 270.015 475.664 270.033 475.56 270.05C475.46 270.07 475.347 270.08 475.22 270.08Z" fill="#464E5F"/>
<path d="M506.846 270H506.016V262.625H507.411L510.541 269.51L510.476 269.55V262.625H511.306V270H509.891L506.771 263.125L506.846 263.09V270ZM515.29 270.095C514.756 270.095 514.285 269.977 513.875 269.74C513.468 269.5 513.148 269.173 512.915 268.76C512.685 268.343 512.57 267.87 512.57 267.34C512.57 266.81 512.685 266.34 512.915 265.93C513.148 265.52 513.468 265.198 513.875 264.965C514.285 264.732 514.756 264.615 515.29 264.615C515.823 264.615 516.293 264.732 516.7 264.965C517.11 265.198 517.43 265.52 517.66 265.93C517.893 266.34 518.01 266.81 518.01 267.34C518.01 267.87 517.893 268.343 517.66 268.76C517.43 269.173 517.11 269.5 516.7 269.74C516.293 269.977 515.823 270.095 515.29 270.095ZM515.29 269.315C515.656 269.315 515.98 269.233 516.26 269.07C516.54 268.907 516.758 268.677 516.915 268.38C517.075 268.083 517.155 267.737 517.155 267.34C517.155 266.943 517.075 266.6 516.915 266.31C516.758 266.017 516.54 265.792 516.26 265.635C515.98 265.475 515.656 265.395 515.29 265.395C514.926 265.395 514.603 265.475 514.32 265.635C514.04 265.792 513.82 266.017 513.66 266.31C513.503 266.6 513.425 266.943 513.425 267.34C513.425 267.737 513.503 268.083 513.66 268.38C513.82 268.677 514.04 268.907 514.32 269.07C514.603 269.233 514.926 269.315 515.29 269.315ZM523.387 264.69L521.607 270H520.492L518.672 264.69H519.552L521.117 269.55H520.982L522.507 264.69H523.387Z" fill="#464E5F"/>
<path d="M552.045 270V262.625H553.895C554.382 262.625 554.82 262.71 555.21 262.88C555.603 263.05 555.938 263.295 556.215 263.615C556.495 263.932 556.71 264.318 556.86 264.775C557.01 265.228 557.085 265.74 557.085 266.31C557.085 266.88 557.01 267.393 556.86 267.85C556.71 268.303 556.495 268.69 556.215 269.01C555.938 269.33 555.603 269.575 555.21 269.745C554.82 269.915 554.382 270 553.895 270H552.045ZM552.905 269.735L552.52 269.25H553.795C554.268 269.25 554.687 269.132 555.05 268.895C555.417 268.655 555.703 268.315 555.91 267.875C556.117 267.435 556.22 266.913 556.22 266.31C556.22 265.703 556.117 265.182 555.91 264.745C555.703 264.305 555.417 263.967 555.05 263.73C554.687 263.493 554.268 263.375 553.795 263.375H552.52L552.905 262.89V269.735ZM558.63 267.685V266.925H562.735L562.585 267.175C562.585 267.155 562.585 267.137 562.585 267.12C562.585 267.1 562.585 267.082 562.585 267.065C562.585 266.758 562.52 266.478 562.39 266.225C562.263 265.968 562.073 265.763 561.82 265.61C561.567 265.457 561.253 265.38 560.88 265.38C560.503 265.38 560.172 265.46 559.885 265.62C559.598 265.78 559.375 266.007 559.215 266.3C559.055 266.59 558.975 266.937 558.975 267.34C558.975 267.75 559.052 268.103 559.205 268.4C559.362 268.697 559.583 268.925 559.87 269.085C560.157 269.245 560.497 269.325 560.89 269.325C561.17 269.325 561.413 269.297 561.62 269.24C561.827 269.18 561.997 269.102 562.13 269.005C562.267 268.905 562.37 268.797 562.44 268.68C562.51 268.563 562.552 268.447 562.565 268.33H563.415C563.398 268.543 563.332 268.755 563.215 268.965C563.098 269.175 562.933 269.367 562.72 269.54C562.507 269.71 562.245 269.847 561.935 269.95C561.625 270.053 561.268 270.105 560.865 270.105C560.332 270.105 559.862 269.988 559.455 269.755C559.048 269.522 558.728 269.198 558.495 268.785C558.265 268.372 558.15 267.897 558.15 267.36C558.15 266.817 558.267 266.34 558.5 265.93C558.733 265.517 559.055 265.193 559.465 264.96C559.875 264.727 560.343 264.61 560.87 264.61C561.407 264.61 561.872 264.727 562.265 264.96C562.658 265.193 562.962 265.513 563.175 265.92C563.388 266.323 563.495 266.783 563.495 267.3C563.495 267.353 563.493 267.423 563.49 267.51C563.487 267.597 563.482 267.655 563.475 267.685H558.63ZM566.85 270.1C566.53 270.1 566.233 270.067 565.96 270C565.69 269.93 565.453 269.83 565.25 269.7C565.05 269.567 564.893 269.403 564.78 269.21C564.67 269.017 564.615 268.795 564.615 268.545C564.615 268.518 564.615 268.492 564.615 268.465C564.615 268.435 564.615 268.41 564.615 268.39H565.47C565.47 268.41 565.47 268.427 565.47 268.44C565.47 268.453 565.47 268.473 565.47 268.5C565.47 268.77 565.595 268.977 565.845 269.12C566.095 269.26 566.436 269.33 566.87 269.33C567.136 269.33 567.375 269.303 567.585 269.25C567.795 269.197 567.96 269.115 568.08 269.005C568.203 268.895 568.265 268.757 568.265 268.59C568.265 268.313 568.135 268.117 567.875 268C567.618 267.88 567.233 267.777 566.72 267.69C566.45 267.643 566.193 267.583 565.95 267.51C565.706 267.433 565.49 267.335 565.3 267.215C565.113 267.095 564.965 266.947 564.855 266.77C564.748 266.59 564.695 266.375 564.695 266.125C564.695 265.802 564.79 265.528 564.98 265.305C565.173 265.078 565.433 264.907 565.76 264.79C566.086 264.67 566.45 264.61 566.85 264.61C567.236 264.61 567.593 264.672 567.92 264.795C568.246 264.918 568.508 265.098 568.705 265.335C568.905 265.568 569.005 265.857 569.005 266.2C569.005 266.213 569.005 266.23 569.005 266.25C569.005 266.267 569.005 266.283 569.005 266.3H568.155C568.155 266.283 568.155 266.27 568.155 266.26C568.155 266.25 568.155 266.238 568.155 266.225C568.155 266.032 568.093 265.873 567.97 265.75C567.846 265.623 567.686 265.53 567.49 265.47C567.293 265.407 567.083 265.375 566.86 265.375C566.65 265.375 566.443 265.398 566.24 265.445C566.036 265.488 565.868 265.562 565.735 265.665C565.601 265.768 565.535 265.91 565.535 266.09C565.535 266.27 565.596 266.415 565.72 266.525C565.846 266.632 566.023 266.72 566.25 266.79C566.48 266.857 566.75 266.918 567.06 266.975C567.336 267.025 567.598 267.088 567.845 267.165C568.091 267.238 568.308 267.333 568.495 267.45C568.685 267.567 568.833 267.715 568.94 267.895C569.05 268.072 569.105 268.288 569.105 268.545C569.105 268.805 569.045 269.032 568.925 269.225C568.808 269.418 568.645 269.58 568.435 269.71C568.228 269.84 567.988 269.937 567.715 270C567.445 270.067 567.156 270.1 566.85 270.1Z" fill="#464E5F"/>
<g clip-path="url(#clip1_8121_217)">
<mask id="mask1_8121_217" style="mask-type:luminance" maskUnits="userSpaceOnUse" x="67" y="94" width="484" height="163">
<rect x="67" y="94" width="484" height="163" fill="white"/>
</mask>
<g mask="url(#mask1_8121_217)">
<path d="M62 156.699C74 131.366 113.4 88.999 175 122.199C252 163.699 267 191.199 341 156.699C415 122.199 449 114.699 507 156.699C553.4 190.299 580 170.699 587.5 156.699" stroke="#3CD856" stroke-width="4"/>
<path d="M62 130C87 101.5 111.4 127.8 173 161C250 202.5 255.473 176.014 328.5 139.5C395.5 106 447.5 142 505.5 184C551.9 217.6 581.5 198 589 184" stroke="#8950FC" stroke-width="4"/>
<path d="M62 130C87 101.5 111.4 127.8 173 161C250 202.5 255.473 176.014 328.5 139.5C395.5 106 447.5 142 505.5 184C551.9 217.6 581.5 198 589 184" stroke="#A700FF" stroke-width="4"/>
<path d="M62 161.147C87 132.647 111.4 158.947 173 192.147C250 233.647 250.973 158.514 324 122C391 88.5 449 129.5 507 171.5C553.4 205.1 581.5 229.147 589 215.147" stroke="#EF4444" stroke-width="4"/>
</g>
</g>
<circle cx="387" cy="110" r="7" fill="#F64E60"/>
<path d="M387 259.469L387 91.5314" stroke="#F64E60" stroke-dasharray="2 2"/>
<g clip-path="url(#clip2_8121_217)">
<g clip-path="url(#clip3_8121_217)">
<rect x="364" y="312" width="12" height="12" rx="2" fill="#3CD856"/>
<path d="M387.074 317.76C387.074 318.896 386.796 319.742 386.24 320.298C385.684 320.85 384.916 321.126 383.936 321.126C382.96 321.126 382.194 320.85 381.638 320.298C381.086 319.742 380.81 318.896 380.81 317.76C380.81 317.592 380.81 317.414 380.81 317.226C380.81 317.034 380.81 316.834 380.81 316.626V312.15H382.112V316.77C382.112 316.962 382.112 317.14 382.112 317.304C382.112 317.468 382.112 317.618 382.112 317.754C382.112 318.554 382.264 319.132 382.568 319.488C382.872 319.84 383.328 320.016 383.936 320.016C384.548 320.016 385.006 319.84 385.31 319.488C385.618 319.132 385.772 318.554 385.772 317.754V312.15H387.074V317.76ZM393.275 321V318.06C393.275 317.888 393.275 317.742 393.275 317.622C393.275 317.502 393.275 317.39 393.275 317.286C393.275 316.974 393.227 316.7 393.131 316.464C393.035 316.224 392.877 316.038 392.657 315.906C392.437 315.77 392.143 315.702 391.775 315.702C391.451 315.702 391.157 315.782 390.893 315.942C390.633 316.102 390.425 316.32 390.269 316.596C390.117 316.868 390.041 317.178 390.041 317.526L389.483 317.25C389.483 316.734 389.605 316.272 389.849 315.864C390.093 315.452 390.419 315.126 390.827 314.886C391.239 314.646 391.689 314.526 392.177 314.526C392.681 314.526 393.111 314.624 393.467 314.82C393.827 315.012 394.101 315.288 394.289 315.648C394.481 316.004 394.577 316.43 394.577 316.926C394.577 317.11 394.577 317.314 394.577 317.538C394.577 317.762 394.577 317.978 394.577 318.186V321H393.275ZM388.739 321V314.628H390.041V321H388.739ZM396.233 321V314.628H397.517V321H396.233ZM396.881 313.308C396.657 313.308 396.463 313.248 396.299 313.128C396.139 313.004 396.059 312.834 396.059 312.618C396.059 312.406 396.139 312.24 396.299 312.12C396.463 311.996 396.657 311.934 396.881 311.934C397.101 311.934 397.291 311.996 397.451 312.12C397.615 312.24 397.697 312.406 397.697 312.618C397.697 312.834 397.615 313.004 397.451 313.128C397.291 313.248 397.101 313.308 396.881 313.308ZM401.89 321.126C401.366 321.126 400.884 321 400.444 320.748C400.004 320.492 399.652 320.116 399.388 319.62C399.124 319.124 398.992 318.518 398.992 317.802C398.992 317.102 399.126 316.508 399.394 316.02C399.662 315.532 400.016 315.162 400.456 314.91C400.896 314.654 401.374 314.526 401.89 314.526C402.386 314.526 402.846 314.646 403.27 314.886C403.698 315.126 404.042 315.46 404.302 315.888C404.562 316.312 404.692 316.802 404.692 317.358C404.692 317.374 404.692 317.39 404.692 317.406C404.692 317.418 404.692 317.43 404.692 317.442L403.936 317.466C403.936 317.454 403.936 317.442 403.936 317.43C403.936 317.414 403.936 317.4 403.936 317.388C403.936 317.056 403.852 316.762 403.684 316.506C403.516 316.246 403.294 316.042 403.018 315.894C402.746 315.742 402.456 315.666 402.148 315.666C401.632 315.666 401.2 315.84 400.852 316.188C400.504 316.532 400.33 317.07 400.33 317.802C400.33 318.53 400.504 319.07 400.852 319.422C401.204 319.77 401.636 319.944 402.148 319.944C402.468 319.944 402.764 319.868 403.036 319.716C403.308 319.56 403.526 319.348 403.69 319.08C403.854 318.812 403.936 318.506 403.936 318.162L404.692 318.192C404.692 318.744 404.566 319.242 404.314 319.686C404.066 320.13 403.73 320.482 403.306 320.742C402.886 320.998 402.414 321.126 401.89 321.126ZM403.936 323.622V314.628H405.238V323.622H403.936ZM409.225 321.114C408.773 321.114 408.397 321.038 408.097 320.886C407.797 320.73 407.559 320.528 407.383 320.28C407.207 320.028 407.083 319.754 407.011 319.458C406.939 319.158 406.903 318.866 406.903 318.582C406.903 318.434 406.903 318.28 406.903 318.12C406.903 317.956 406.903 317.792 406.903 317.628V314.628H408.211V317.442C408.211 317.586 408.211 317.728 408.211 317.868C408.211 318.004 408.211 318.132 408.211 318.252C408.211 318.56 408.251 318.844 408.331 319.104C408.411 319.36 408.551 319.568 408.751 319.728C408.955 319.884 409.239 319.962 409.603 319.962C409.943 319.962 410.239 319.862 410.491 319.662C410.743 319.458 410.939 319.202 411.079 318.894C411.219 318.582 411.289 318.27 411.289 317.958L411.859 318.264C411.859 318.632 411.797 318.986 411.673 319.326C411.553 319.666 411.379 319.972 411.151 320.244C410.923 320.512 410.645 320.724 410.317 320.88C409.993 321.036 409.629 321.114 409.225 321.114ZM411.289 321V314.628H412.591V321H411.289ZM414.701 318.27V317.256H419.393L419.213 317.556C419.213 317.532 419.213 317.508 419.213 317.484C419.213 317.456 419.213 317.432 419.213 317.412C419.213 317.088 419.143 316.79 419.003 316.518C418.863 316.242 418.653 316.022 418.373 315.858C418.097 315.69 417.751 315.606 417.335 315.606C416.919 315.606 416.553 315.696 416.237 315.876C415.925 316.052 415.681 316.304 415.505 316.632C415.333 316.956 415.247 317.346 415.247 317.802C415.247 318.266 415.331 318.666 415.499 319.002C415.667 319.334 415.909 319.59 416.225 319.77C416.541 319.95 416.919 320.04 417.359 320.04C417.667 320.04 417.933 320.01 418.157 319.95C418.385 319.886 418.571 319.802 418.715 319.698C418.863 319.594 418.975 319.482 419.051 319.362C419.127 319.238 419.171 319.116 419.183 318.996H420.479C420.455 319.256 420.369 319.514 420.221 319.77C420.077 320.022 419.871 320.252 419.603 320.46C419.339 320.664 419.015 320.828 418.631 320.952C418.251 321.072 417.813 321.132 417.317 321.132C416.653 321.132 416.071 320.992 415.571 320.712C415.071 320.432 414.681 320.044 414.401 319.548C414.121 319.048 413.981 318.476 413.981 317.832C413.981 317.176 414.123 316.6 414.407 316.104C414.691 315.608 415.085 315.222 415.589 314.946C416.093 314.666 416.671 314.526 417.323 314.526C417.987 314.526 418.561 314.666 419.045 314.946C419.533 315.226 419.909 315.612 420.173 316.104C420.437 316.596 420.569 317.162 420.569 317.802C420.569 317.878 420.567 317.966 420.563 318.066C420.559 318.166 420.553 318.234 420.545 318.27H414.701ZM431.722 317.868C431.722 318.236 431.654 318.61 431.518 318.99C431.382 319.37 431.176 319.722 430.9 320.046C430.624 320.37 430.276 320.632 429.856 320.832C429.436 321.028 428.942 321.126 428.374 321.126C427.602 321.126 426.944 320.932 426.4 320.544C425.86 320.152 425.448 319.614 425.164 318.93C424.88 318.246 424.738 317.462 424.738 316.578C424.738 315.69 424.88 314.906 425.164 314.226C425.448 313.542 425.86 313.006 426.4 312.618C426.944 312.23 427.602 312.036 428.374 312.036C429.018 312.036 429.566 312.162 430.018 312.414C430.474 312.666 430.836 312.99 431.104 313.386C431.376 313.782 431.556 314.194 431.644 314.622C431.696 314.854 431.722 315.074 431.722 315.282H430.414C430.414 315.17 430.404 315.048 430.384 314.916C430.34 314.596 430.232 314.302 430.06 314.034C429.892 313.766 429.666 313.552 429.382 313.392C429.102 313.232 428.766 313.152 428.374 313.152C427.918 313.152 427.516 313.28 427.168 313.536C426.82 313.788 426.548 314.168 426.352 314.676C426.16 315.184 426.064 315.818 426.064 316.578C426.064 317.334 426.16 317.968 426.352 318.48C426.548 318.988 426.82 319.372 427.168 319.632C427.516 319.888 427.918 320.016 428.374 320.016C428.706 320.016 428.998 319.956 429.25 319.836C429.502 319.716 429.714 319.554 429.886 319.35C430.058 319.146 430.188 318.916 430.276 318.66C430.368 318.404 430.414 318.14 430.414 317.868H431.722ZM435.463 321.114C435.011 321.114 434.635 321.038 434.335 320.886C434.035 320.73 433.797 320.528 433.621 320.28C433.445 320.028 433.321 319.754 433.249 319.458C433.177 319.158 433.141 318.866 433.141 318.582C433.141 318.434 433.141 318.28 433.141 318.12C433.141 317.956 433.141 317.792 433.141 317.628V314.628H434.449V317.442C434.449 317.586 434.449 317.728 434.449 317.868C434.449 318.004 434.449 318.132 434.449 318.252C434.449 318.56 434.489 318.844 434.569 319.104C434.649 319.36 434.789 319.568 434.989 319.728C435.193 319.884 435.477 319.962 435.841 319.962C436.181 319.962 436.477 319.862 436.729 319.662C436.981 319.458 437.177 319.202 437.317 318.894C437.457 318.582 437.527 318.27 437.527 317.958L438.097 318.264C438.097 318.632 438.035 318.986 437.911 319.326C437.791 319.666 437.617 319.972 437.389 320.244C437.161 320.512 436.883 320.724 436.555 320.88C436.231 321.036 435.867 321.114 435.463 321.114ZM437.527 321V314.628H438.829V321H437.527ZM442.985 321.126C442.605 321.126 442.247 321.084 441.911 321C441.575 320.916 441.279 320.794 441.023 320.634C440.771 320.47 440.573 320.268 440.429 320.028C440.289 319.788 440.219 319.51 440.219 319.194C440.219 319.166 440.219 319.138 440.219 319.11C440.219 319.078 440.219 319.052 440.219 319.032H441.515C441.515 319.052 441.515 319.07 441.515 319.086C441.515 319.102 441.515 319.124 441.515 319.152C441.515 319.444 441.649 319.666 441.917 319.818C442.189 319.966 442.557 320.04 443.021 320.04C443.293 320.04 443.541 320.012 443.765 319.956C443.993 319.9 444.173 319.814 444.305 319.698C444.441 319.582 444.509 319.434 444.509 319.254C444.509 318.962 444.365 318.754 444.077 318.63C443.793 318.506 443.361 318.396 442.781 318.3C442.465 318.244 442.159 318.172 441.863 318.084C441.571 317.996 441.307 317.88 441.071 317.736C440.839 317.588 440.653 317.406 440.513 317.19C440.377 316.97 440.309 316.706 440.309 316.398C440.309 315.998 440.429 315.658 440.669 315.378C440.909 315.098 441.233 314.886 441.641 314.742C442.049 314.598 442.499 314.526 442.991 314.526C443.467 314.526 443.907 314.604 444.311 314.76C444.719 314.912 445.047 315.134 445.295 315.426C445.543 315.714 445.667 316.068 445.667 316.488C445.667 316.504 445.667 316.522 445.667 316.542C445.667 316.562 445.667 316.58 445.667 316.596H444.377C444.377 316.58 444.377 316.566 444.377 316.554C444.377 316.542 444.377 316.528 444.377 316.512C444.377 316.304 444.311 316.134 444.179 316.002C444.047 315.87 443.875 315.772 443.663 315.708C443.455 315.64 443.233 315.606 442.997 315.606C442.781 315.606 442.563 315.63 442.343 315.678C442.127 315.722 441.947 315.8 441.803 315.912C441.659 316.02 441.587 316.168 441.587 316.356C441.587 316.548 441.657 316.702 441.797 316.818C441.937 316.93 442.135 317.024 442.391 317.1C442.647 317.172 442.945 317.238 443.285 317.298C443.597 317.354 443.901 317.426 444.197 317.514C444.493 317.598 444.759 317.71 444.995 317.85C445.235 317.99 445.425 318.17 445.565 318.39C445.709 318.61 445.781 318.88 445.781 319.2C445.781 319.532 445.705 319.818 445.553 320.058C445.401 320.298 445.193 320.498 444.929 320.658C444.669 320.814 444.371 320.93 444.035 321.006C443.703 321.086 443.353 321.126 442.985 321.126ZM449.834 321.108C449.622 321.108 449.41 321.086 449.198 321.042C448.99 320.998 448.798 320.918 448.622 320.802C448.45 320.682 448.312 320.512 448.208 320.292C448.104 320.072 448.052 319.784 448.052 319.428C448.052 319.344 448.052 319.256 448.052 319.164C448.052 319.072 448.052 318.978 448.052 318.882V315.708H446.522V314.628H447.326C447.498 314.628 447.632 314.622 447.728 314.61C447.828 314.594 447.9 314.56 447.944 314.508C447.992 314.452 448.022 314.364 448.034 314.244C448.046 314.124 448.052 313.96 448.052 313.752V312.522H449.354V314.628H451.304V315.708H449.354V318.534C449.354 318.614 449.354 318.694 449.354 318.774C449.354 318.854 449.354 318.928 449.354 318.996C449.354 319.316 449.392 319.568 449.468 319.752C449.548 319.936 449.728 320.028 450.008 320.028C450.128 320.028 450.242 320.018 450.35 319.998C450.458 319.978 450.54 319.956 450.596 319.932V320.994C450.524 321.022 450.422 321.048 450.29 321.072C450.158 321.096 450.006 321.108 449.834 321.108ZM455.438 321.12C454.782 321.12 454.202 320.978 453.698 320.694C453.198 320.41 452.806 320.02 452.522 319.524C452.242 319.024 452.102 318.452 452.102 317.808C452.102 317.168 452.242 316.602 452.522 316.11C452.806 315.614 453.198 315.228 453.698 314.952C454.202 314.672 454.782 314.532 455.438 314.532C456.094 314.532 456.672 314.672 457.172 314.952C457.676 315.228 458.068 315.614 458.348 316.11C458.632 316.602 458.774 317.168 458.774 317.808C458.774 318.452 458.632 319.024 458.348 319.524C458.068 320.02 457.676 320.41 457.172 320.694C456.672 320.978 456.094 321.12 455.438 321.12ZM455.438 320.004C455.838 320.004 456.19 319.914 456.494 319.734C456.798 319.554 457.036 319.3 457.208 318.972C457.38 318.64 457.466 318.252 457.466 317.808C457.466 317.368 457.38 316.986 457.208 316.662C457.036 316.338 456.798 316.088 456.494 315.912C456.19 315.736 455.838 315.648 455.438 315.648C455.042 315.648 454.69 315.736 454.382 315.912C454.078 316.088 453.84 316.338 453.668 316.662C453.496 316.986 453.41 317.368 453.41 317.808C453.41 318.252 453.496 318.64 453.668 318.972C453.84 319.3 454.078 319.554 454.382 319.734C454.69 319.914 455.042 320.004 455.438 320.004ZM464.165 321V318.3C464.165 318.056 464.165 317.846 464.165 317.67C464.165 317.49 464.165 317.338 464.165 317.214C464.165 317.058 464.153 316.892 464.129 316.716C464.109 316.54 464.061 316.376 463.985 316.224C463.913 316.068 463.799 315.942 463.643 315.846C463.487 315.75 463.273 315.702 463.001 315.702C462.729 315.702 462.499 315.756 462.311 315.864C462.123 315.972 461.971 316.116 461.855 316.296C461.739 316.472 461.655 316.67 461.603 316.89C461.551 317.106 461.525 317.324 461.525 317.544L460.973 317.244C460.973 316.744 461.071 316.29 461.267 315.882C461.467 315.47 461.747 315.142 462.107 314.898C462.471 314.65 462.899 314.526 463.391 314.526C463.891 314.526 464.291 314.63 464.591 314.838C464.895 315.042 465.115 315.322 465.251 315.678C465.387 316.03 465.455 316.43 465.455 316.878C465.455 317.042 465.455 317.256 465.455 317.52C465.455 317.784 465.455 318.09 465.455 318.438V321H464.165ZM460.223 321V314.628H461.525V321H460.223ZM468.089 321V318.306C468.089 318.042 468.089 317.822 468.089 317.646C468.089 317.466 468.089 317.316 468.089 317.196C468.089 317.032 468.079 316.864 468.059 316.692C468.039 316.516 467.991 316.354 467.915 316.206C467.839 316.058 467.721 315.938 467.561 315.846C467.405 315.75 467.187 315.702 466.907 315.702C466.631 315.702 466.399 315.756 466.211 315.864C466.027 315.968 465.879 316.108 465.767 316.284C465.655 316.456 465.575 316.646 465.527 316.854C465.479 317.062 465.455 317.268 465.455 317.472L464.903 317.184C464.903 316.704 464.999 316.262 465.191 315.858C465.387 315.454 465.663 315.132 466.019 314.892C466.379 314.648 466.805 314.526 467.297 314.526C467.777 314.526 468.171 314.622 468.479 314.814C468.787 315.006 469.015 315.272 469.163 315.612C469.311 315.952 469.385 316.346 469.385 316.794C469.385 316.966 469.385 317.182 469.385 317.442C469.385 317.702 469.385 318.004 469.385 318.348V321H468.089ZM471.502 318.27V317.256H476.194L476.014 317.556C476.014 317.532 476.014 317.508 476.014 317.484C476.014 317.456 476.014 317.432 476.014 317.412C476.014 317.088 475.944 316.79 475.804 316.518C475.664 316.242 475.454 316.022 475.174 315.858C474.898 315.69 474.552 315.606 474.136 315.606C473.72 315.606 473.354 315.696 473.038 315.876C472.726 316.052 472.482 316.304 472.306 316.632C472.134 316.956 472.048 317.346 472.048 317.802C472.048 318.266 472.132 318.666 472.3 319.002C472.468 319.334 472.71 319.59 473.026 319.77C473.342 319.95 473.72 320.04 474.16 320.04C474.468 320.04 474.734 320.01 474.958 319.95C475.186 319.886 475.372 319.802 475.516 319.698C475.664 319.594 475.776 319.482 475.852 319.362C475.928 319.238 475.972 319.116 475.984 318.996H477.28C477.256 319.256 477.17 319.514 477.022 319.77C476.878 320.022 476.672 320.252 476.404 320.46C476.14 320.664 475.816 320.828 475.432 320.952C475.052 321.072 474.614 321.132 474.118 321.132C473.454 321.132 472.872 320.992 472.372 320.712C471.872 320.432 471.482 320.044 471.202 319.548C470.922 319.048 470.782 318.476 470.782 317.832C470.782 317.176 470.924 316.6 471.208 316.104C471.492 315.608 471.886 315.222 472.39 314.946C472.894 314.666 473.472 314.526 474.124 314.526C474.788 314.526 475.362 314.666 475.846 314.946C476.334 315.226 476.71 315.612 476.974 316.104C477.238 316.596 477.37 317.162 477.37 317.802C477.37 317.878 477.368 317.966 477.364 318.066C477.36 318.166 477.354 318.234 477.346 318.27H471.502ZM478.821 321V314.628H480.123V316.662L479.775 316.506C479.803 316.246 479.869 315.998 479.973 315.762C480.077 315.526 480.215 315.316 480.387 315.132C480.563 314.944 480.779 314.796 481.035 314.688C481.291 314.58 481.587 314.526 481.923 314.526C482.179 314.526 482.385 314.546 482.541 314.586C482.701 314.626 482.799 314.658 482.835 314.682L482.559 315.906C482.519 315.878 482.437 315.842 482.313 315.798C482.193 315.754 482.025 315.732 481.809 315.732C481.481 315.732 481.209 315.79 480.993 315.906C480.777 316.022 480.605 316.176 480.477 316.368C480.349 316.56 480.257 316.77 480.201 316.998C480.149 317.222 480.123 317.448 480.123 317.676V321H478.821ZM486.274 321.126C485.894 321.126 485.536 321.084 485.2 321C484.864 320.916 484.568 320.794 484.312 320.634C484.06 320.47 483.862 320.268 483.718 320.028C483.578 319.788 483.508 319.51 483.508 319.194C483.508 319.166 483.508 319.138 483.508 319.11C483.508 319.078 483.508 319.052 483.508 319.032H484.804C484.804 319.052 484.804 319.07 484.804 319.086C484.804 319.102 484.804 319.124 484.804 319.152C484.804 319.444 484.938 319.666 485.206 319.818C485.478 319.966 485.846 320.04 486.31 320.04C486.582 320.04 486.83 320.012 487.054 319.956C487.282 319.9 487.462 319.814 487.594 319.698C487.73 319.582 487.798 319.434 487.798 319.254C487.798 318.962 487.654 318.754 487.366 318.63C487.082 318.506 486.65 318.396 486.07 318.3C485.754 318.244 485.448 318.172 485.152 318.084C484.86 317.996 484.596 317.88 484.36 317.736C484.128 317.588 483.942 317.406 483.802 317.19C483.666 316.97 483.598 316.706 483.598 316.398C483.598 315.998 483.718 315.658 483.958 315.378C484.198 315.098 484.522 314.886 484.93 314.742C485.338 314.598 485.788 314.526 486.28 314.526C486.756 314.526 487.196 314.604 487.6 314.76C488.008 314.912 488.336 315.134 488.584 315.426C488.832 315.714 488.956 316.068 488.956 316.488C488.956 316.504 488.956 316.522 488.956 316.542C488.956 316.562 488.956 316.58 488.956 316.596H487.666C487.666 316.58 487.666 316.566 487.666 316.554C487.666 316.542 487.666 316.528 487.666 316.512C487.666 316.304 487.6 316.134 487.468 316.002C487.336 315.87 487.164 315.772 486.952 315.708C486.744 315.64 486.522 315.606 486.286 315.606C486.07 315.606 485.852 315.63 485.632 315.678C485.416 315.722 485.236 315.8 485.092 315.912C484.948 316.02 484.876 316.168 484.876 316.356C484.876 316.548 484.946 316.702 485.086 316.818C485.226 316.93 485.424 317.024 485.68 317.1C485.936 317.172 486.234 317.238 486.574 317.298C486.886 317.354 487.19 317.426 487.486 317.514C487.782 317.598 488.048 317.71 488.284 317.85C488.524 317.99 488.714 318.17 488.854 318.39C488.998 318.61 489.07 318.88 489.07 319.2C489.07 319.532 488.994 319.818 488.842 320.058C488.69 320.298 488.482 320.498 488.218 320.658C487.958 320.814 487.66 320.93 487.324 321.006C486.992 321.086 486.642 321.126 486.274 321.126Z" fill="#464E5F"/>
</g>
<g clip-path="url(#clip4_8121_217)">
<rect x="238" y="312" width="12" height="12" rx="2" fill="#EF4444"/>
<path d="M256.076 321H254.81V312.15H256.886L260.378 320.382L260.222 320.442V312.15H261.494V321H259.388L255.908 312.78L256.076 312.726V321ZM263.623 318.27V317.256H268.315L268.135 317.556C268.135 317.532 268.135 317.508 268.135 317.484C268.135 317.456 268.135 317.432 268.135 317.412C268.135 317.088 268.065 316.79 267.925 316.518C267.785 316.242 267.575 316.022 267.295 315.858C267.019 315.69 266.673 315.606 266.257 315.606C265.841 315.606 265.475 315.696 265.159 315.876C264.847 316.052 264.603 316.304 264.427 316.632C264.255 316.956 264.169 317.346 264.169 317.802C264.169 318.266 264.253 318.666 264.421 319.002C264.589 319.334 264.831 319.59 265.147 319.77C265.463 319.95 265.841 320.04 266.281 320.04C266.589 320.04 266.855 320.01 267.079 319.95C267.307 319.886 267.493 319.802 267.637 319.698C267.785 319.594 267.897 319.482 267.973 319.362C268.049 319.238 268.093 319.116 268.105 318.996H269.401C269.377 319.256 269.291 319.514 269.143 319.77C268.999 320.022 268.793 320.252 268.525 320.46C268.261 320.664 267.937 320.828 267.553 320.952C267.173 321.072 266.735 321.132 266.239 321.132C265.575 321.132 264.993 320.992 264.493 320.712C263.993 320.432 263.603 320.044 263.323 319.548C263.043 319.048 262.903 318.476 262.903 317.832C262.903 317.176 263.045 316.6 263.329 316.104C263.613 315.608 264.007 315.222 264.511 314.946C265.015 314.666 265.593 314.526 266.245 314.526C266.909 314.526 267.483 314.666 267.967 314.946C268.455 315.226 268.831 315.612 269.095 316.104C269.359 316.596 269.491 317.162 269.491 317.802C269.491 317.878 269.489 317.966 269.485 318.066C269.481 318.166 269.475 318.234 269.467 318.27H263.623ZM275.914 321L274.282 314.628H275.338L276.904 320.526H276.682L277.702 314.628H279.052L277.708 321H275.914ZM271.564 321L270.214 314.628H271.564L272.596 320.526H272.368L273.922 314.628H274.978L273.37 321H271.564ZM289.902 317.868C289.902 318.236 289.834 318.61 289.698 318.99C289.562 319.37 289.356 319.722 289.08 320.046C288.804 320.37 288.456 320.632 288.036 320.832C287.616 321.028 287.122 321.126 286.554 321.126C285.782 321.126 285.124 320.932 284.58 320.544C284.04 320.152 283.628 319.614 283.344 318.93C283.06 318.246 282.918 317.462 282.918 316.578C282.918 315.69 283.06 314.906 283.344 314.226C283.628 313.542 284.04 313.006 284.58 312.618C285.124 312.23 285.782 312.036 286.554 312.036C287.198 312.036 287.746 312.162 288.198 312.414C288.654 312.666 289.016 312.99 289.284 313.386C289.556 313.782 289.736 314.194 289.824 314.622C289.876 314.854 289.902 315.074 289.902 315.282H288.594C288.594 315.17 288.584 315.048 288.564 314.916C288.52 314.596 288.412 314.302 288.24 314.034C288.072 313.766 287.846 313.552 287.562 313.392C287.282 313.232 286.946 313.152 286.554 313.152C286.098 313.152 285.696 313.28 285.348 313.536C285 313.788 284.728 314.168 284.532 314.676C284.34 315.184 284.244 315.818 284.244 316.578C284.244 317.334 284.34 317.968 284.532 318.48C284.728 318.988 285 319.372 285.348 319.632C285.696 319.888 286.098 320.016 286.554 320.016C286.886 320.016 287.178 319.956 287.43 319.836C287.682 319.716 287.894 319.554 288.066 319.35C288.238 319.146 288.368 318.916 288.456 318.66C288.548 318.404 288.594 318.14 288.594 317.868H289.902ZM293.643 321.114C293.191 321.114 292.815 321.038 292.515 320.886C292.215 320.73 291.977 320.528 291.801 320.28C291.625 320.028 291.501 319.754 291.429 319.458C291.357 319.158 291.321 318.866 291.321 318.582C291.321 318.434 291.321 318.28 291.321 318.12C291.321 317.956 291.321 317.792 291.321 317.628V314.628H292.629V317.442C292.629 317.586 292.629 317.728 292.629 317.868C292.629 318.004 292.629 318.132 292.629 318.252C292.629 318.56 292.669 318.844 292.749 319.104C292.829 319.36 292.969 319.568 293.169 319.728C293.373 319.884 293.657 319.962 294.021 319.962C294.361 319.962 294.657 319.862 294.909 319.662C295.161 319.458 295.357 319.202 295.497 318.894C295.637 318.582 295.707 318.27 295.707 317.958L296.277 318.264C296.277 318.632 296.215 318.986 296.091 319.326C295.971 319.666 295.797 319.972 295.569 320.244C295.341 320.512 295.063 320.724 294.735 320.88C294.411 321.036 294.047 321.114 293.643 321.114ZM295.707 321V314.628H297.009V321H295.707ZM301.165 321.126C300.785 321.126 300.427 321.084 300.091 321C299.755 320.916 299.459 320.794 299.203 320.634C298.951 320.47 298.753 320.268 298.609 320.028C298.469 319.788 298.399 319.51 298.399 319.194C298.399 319.166 298.399 319.138 298.399 319.11C298.399 319.078 298.399 319.052 298.399 319.032H299.695C299.695 319.052 299.695 319.07 299.695 319.086C299.695 319.102 299.695 319.124 299.695 319.152C299.695 319.444 299.829 319.666 300.097 319.818C300.369 319.966 300.737 320.04 301.201 320.04C301.473 320.04 301.721 320.012 301.945 319.956C302.173 319.9 302.353 319.814 302.485 319.698C302.621 319.582 302.689 319.434 302.689 319.254C302.689 318.962 302.545 318.754 302.257 318.63C301.973 318.506 301.541 318.396 300.961 318.3C300.645 318.244 300.339 318.172 300.043 318.084C299.751 317.996 299.487 317.88 299.251 317.736C299.019 317.588 298.833 317.406 298.693 317.19C298.557 316.97 298.489 316.706 298.489 316.398C298.489 315.998 298.609 315.658 298.849 315.378C299.089 315.098 299.413 314.886 299.821 314.742C300.229 314.598 300.679 314.526 301.171 314.526C301.647 314.526 302.087 314.604 302.491 314.76C302.899 314.912 303.227 315.134 303.475 315.426C303.723 315.714 303.847 316.068 303.847 316.488C303.847 316.504 303.847 316.522 303.847 316.542C303.847 316.562 303.847 316.58 303.847 316.596H302.557C302.557 316.58 302.557 316.566 302.557 316.554C302.557 316.542 302.557 316.528 302.557 316.512C302.557 316.304 302.491 316.134 302.359 316.002C302.227 315.87 302.055 315.772 301.843 315.708C301.635 315.64 301.413 315.606 301.177 315.606C300.961 315.606 300.743 315.63 300.523 315.678C300.307 315.722 300.127 315.8 299.983 315.912C299.839 316.02 299.767 316.168 299.767 316.356C299.767 316.548 299.837 316.702 299.977 316.818C300.117 316.93 300.315 317.024 300.571 317.1C300.827 317.172 301.125 317.238 301.465 317.298C301.777 317.354 302.081 317.426 302.377 317.514C302.673 317.598 302.939 317.71 303.175 317.85C303.415 317.99 303.605 318.17 303.745 318.39C303.889 318.61 303.961 318.88 303.961 319.2C303.961 319.532 303.885 319.818 303.733 320.058C303.581 320.298 303.373 320.498 303.109 320.658C302.849 320.814 302.551 320.93 302.215 321.006C301.883 321.086 301.533 321.126 301.165 321.126ZM308.014 321.108C307.802 321.108 307.59 321.086 307.378 321.042C307.17 320.998 306.978 320.918 306.802 320.802C306.63 320.682 306.492 320.512 306.388 320.292C306.284 320.072 306.232 319.784 306.232 319.428C306.232 319.344 306.232 319.256 306.232 319.164C306.232 319.072 306.232 318.978 306.232 318.882V315.708H304.702V314.628H305.506C305.678 314.628 305.812 314.622 305.908 314.61C306.008 314.594 306.08 314.56 306.124 314.508C306.172 314.452 306.202 314.364 306.214 314.244C306.226 314.124 306.232 313.96 306.232 313.752V312.522H307.534V314.628H309.484V315.708H307.534V318.534C307.534 318.614 307.534 318.694 307.534 318.774C307.534 318.854 307.534 318.928 307.534 318.996C307.534 319.316 307.572 319.568 307.648 319.752C307.728 319.936 307.908 320.028 308.188 320.028C308.308 320.028 308.422 320.018 308.53 319.998C308.638 319.978 308.72 319.956 308.776 319.932V320.994C308.704 321.022 308.602 321.048 308.47 321.072C308.338 321.096 308.186 321.108 308.014 321.108ZM313.618 321.12C312.962 321.12 312.382 320.978 311.878 320.694C311.378 320.41 310.986 320.02 310.702 319.524C310.422 319.024 310.282 318.452 310.282 317.808C310.282 317.168 310.422 316.602 310.702 316.11C310.986 315.614 311.378 315.228 311.878 314.952C312.382 314.672 312.962 314.532 313.618 314.532C314.274 314.532 314.852 314.672 315.352 314.952C315.856 315.228 316.248 315.614 316.528 316.11C316.812 316.602 316.954 317.168 316.954 317.808C316.954 318.452 316.812 319.024 316.528 319.524C316.248 320.02 315.856 320.41 315.352 320.694C314.852 320.978 314.274 321.12 313.618 321.12ZM313.618 320.004C314.018 320.004 314.37 319.914 314.674 319.734C314.978 319.554 315.216 319.3 315.388 318.972C315.56 318.64 315.646 318.252 315.646 317.808C315.646 317.368 315.56 316.986 315.388 316.662C315.216 316.338 314.978 316.088 314.674 315.912C314.37 315.736 314.018 315.648 313.618 315.648C313.222 315.648 312.87 315.736 312.562 315.912C312.258 316.088 312.02 316.338 311.848 316.662C311.676 316.986 311.59 317.368 311.59 317.808C311.59 318.252 311.676 318.64 311.848 318.972C312.02 319.3 312.258 319.554 312.562 319.734C312.87 319.914 313.222 320.004 313.618 320.004ZM322.345 321V318.3C322.345 318.056 322.345 317.846 322.345 317.67C322.345 317.49 322.345 317.338 322.345 317.214C322.345 317.058 322.333 316.892 322.309 316.716C322.289 316.54 322.241 316.376 322.165 316.224C322.093 316.068 321.979 315.942 321.823 315.846C321.667 315.75 321.453 315.702 321.181 315.702C320.909 315.702 320.679 315.756 320.491 315.864C320.303 315.972 320.151 316.116 320.035 316.296C319.919 316.472 319.835 316.67 319.783 316.89C319.731 317.106 319.705 317.324 319.705 317.544L319.153 317.244C319.153 316.744 319.251 316.29 319.447 315.882C319.647 315.47 319.927 315.142 320.287 314.898C320.651 314.65 321.079 314.526 321.571 314.526C322.071 314.526 322.471 314.63 322.771 314.838C323.075 315.042 323.295 315.322 323.431 315.678C323.567 316.03 323.635 316.43 323.635 316.878C323.635 317.042 323.635 317.256 323.635 317.52C323.635 317.784 323.635 318.09 323.635 318.438V321H322.345ZM318.403 321V314.628H319.705V321H318.403ZM326.269 321V318.306C326.269 318.042 326.269 317.822 326.269 317.646C326.269 317.466 326.269 317.316 326.269 317.196C326.269 317.032 326.259 316.864 326.239 316.692C326.219 316.516 326.171 316.354 326.095 316.206C326.019 316.058 325.901 315.938 325.741 315.846C325.585 315.75 325.367 315.702 325.087 315.702C324.811 315.702 324.579 315.756 324.391 315.864C324.207 315.968 324.059 316.108 323.947 316.284C323.835 316.456 323.755 316.646 323.707 316.854C323.659 317.062 323.635 317.268 323.635 317.472L323.083 317.184C323.083 316.704 323.179 316.262 323.371 315.858C323.567 315.454 323.843 315.132 324.199 314.892C324.559 314.648 324.985 314.526 325.477 314.526C325.957 314.526 326.351 314.622 326.659 314.814C326.967 315.006 327.195 315.272 327.343 315.612C327.491 315.952 327.565 316.346 327.565 316.794C327.565 316.966 327.565 317.182 327.565 317.442C327.565 317.702 327.565 318.004 327.565 318.348V321H326.269ZM329.681 318.27V317.256H334.373L334.193 317.556C334.193 317.532 334.193 317.508 334.193 317.484C334.193 317.456 334.193 317.432 334.193 317.412C334.193 317.088 334.123 316.79 333.983 316.518C333.843 316.242 333.633 316.022 333.353 315.858C333.077 315.69 332.731 315.606 332.315 315.606C331.899 315.606 331.533 315.696 331.217 315.876C330.905 316.052 330.661 316.304 330.485 316.632C330.313 316.956 330.227 317.346 330.227 317.802C330.227 318.266 330.311 318.666 330.479 319.002C330.647 319.334 330.889 319.59 331.205 319.77C331.521 319.95 331.899 320.04 332.339 320.04C332.647 320.04 332.913 320.01 333.137 319.95C333.365 319.886 333.551 319.802 333.695 319.698C333.843 319.594 333.955 319.482 334.031 319.362C334.107 319.238 334.151 319.116 334.163 318.996H335.459C335.435 319.256 335.349 319.514 335.201 319.77C335.057 320.022 334.851 320.252 334.583 320.46C334.319 320.664 333.995 320.828 333.611 320.952C333.231 321.072 332.793 321.132 332.297 321.132C331.633 321.132 331.051 320.992 330.551 320.712C330.051 320.432 329.661 320.044 329.381 319.548C329.101 319.048 328.961 318.476 328.961 317.832C328.961 317.176 329.103 316.6 329.387 316.104C329.671 315.608 330.065 315.222 330.569 314.946C331.073 314.666 331.651 314.526 332.303 314.526C332.967 314.526 333.541 314.666 334.025 314.946C334.513 315.226 334.889 315.612 335.153 316.104C335.417 316.596 335.549 317.162 335.549 317.802C335.549 317.878 335.547 317.966 335.543 318.066C335.539 318.166 335.533 318.234 335.525 318.27H329.681ZM337.001 321V314.628H338.303V316.662L337.955 316.506C337.983 316.246 338.049 315.998 338.153 315.762C338.257 315.526 338.395 315.316 338.567 315.132C338.743 314.944 338.959 314.796 339.215 314.688C339.471 314.58 339.767 314.526 340.103 314.526C340.359 314.526 340.565 314.546 340.721 314.586C340.881 314.626 340.979 314.658 341.015 314.682L340.739 315.906C340.699 315.878 340.617 315.842 340.493 315.798C340.373 315.754 340.205 315.732 339.989 315.732C339.661 315.732 339.389 315.79 339.173 315.906C338.957 316.022 338.785 316.176 338.657 316.368C338.529 316.56 338.437 316.77 338.381 316.998C338.329 317.222 338.303 317.448 338.303 317.676V321H337.001ZM344.454 321.126C344.074 321.126 343.716 321.084 343.38 321C343.044 320.916 342.748 320.794 342.492 320.634C342.24 320.47 342.042 320.268 341.898 320.028C341.758 319.788 341.688 319.51 341.688 319.194C341.688 319.166 341.688 319.138 341.688 319.11C341.688 319.078 341.688 319.052 341.688 319.032H342.984C342.984 319.052 342.984 319.07 342.984 319.086C342.984 319.102 342.984 319.124 342.984 319.152C342.984 319.444 343.118 319.666 343.386 319.818C343.658 319.966 344.026 320.04 344.49 320.04C344.762 320.04 345.01 320.012 345.234 319.956C345.462 319.9 345.642 319.814 345.774 319.698C345.91 319.582 345.978 319.434 345.978 319.254C345.978 318.962 345.834 318.754 345.546 318.63C345.262 318.506 344.83 318.396 344.25 318.3C343.934 318.244 343.628 318.172 343.332 318.084C343.04 317.996 342.776 317.88 342.54 317.736C342.308 317.588 342.122 317.406 341.982 317.19C341.846 316.97 341.778 316.706 341.778 316.398C341.778 315.998 341.898 315.658 342.138 315.378C342.378 315.098 342.702 314.886 343.11 314.742C343.518 314.598 343.968 314.526 344.46 314.526C344.936 314.526 345.376 314.604 345.78 314.76C346.188 314.912 346.516 315.134 346.764 315.426C347.012 315.714 347.136 316.068 347.136 316.488C347.136 316.504 347.136 316.522 347.136 316.542C347.136 316.562 347.136 316.58 347.136 316.596H345.846C345.846 316.58 345.846 316.566 345.846 316.554C345.846 316.542 345.846 316.528 345.846 316.512C345.846 316.304 345.78 316.134 345.648 316.002C345.516 315.87 345.344 315.772 345.132 315.708C344.924 315.64 344.702 315.606 344.466 315.606C344.25 315.606 344.032 315.63 343.812 315.678C343.596 315.722 343.416 315.8 343.272 315.912C343.128 316.02 343.056 316.168 343.056 316.356C343.056 316.548 343.126 316.702 343.266 316.818C343.406 316.93 343.604 317.024 343.86 317.1C344.116 317.172 344.414 317.238 344.754 317.298C345.066 317.354 345.37 317.426 345.666 317.514C345.962 317.598 346.228 317.71 346.464 317.85C346.704 317.99 346.894 318.17 347.034 318.39C347.178 318.61 347.25 318.88 347.25 319.2C347.25 319.532 347.174 319.818 347.022 320.058C346.87 320.298 346.662 320.498 346.398 320.658C346.138 320.814 345.84 320.93 345.504 321.006C345.172 321.086 344.822 321.126 344.454 321.126Z" fill="#464E5F"/>
</g>
<g clip-path="url(#clip5_8121_217)">
<rect x="107" y="312" width="12" height="12" rx="2" fill="#A700FF"/>
<path d="M123.81 321V312.15H125.112V320.604L124.524 319.896H128.538V321H123.81ZM132.965 321.12C132.309 321.12 131.729 320.978 131.225 320.694C130.725 320.41 130.333 320.02 130.049 319.524C129.769 319.024 129.629 318.452 129.629 317.808C129.629 317.168 129.769 316.602 130.049 316.11C130.333 315.614 130.725 315.228 131.225 314.952C131.729 314.672 132.309 314.532 132.965 314.532C133.621 314.532 134.199 314.672 134.699 314.952C135.203 315.228 135.595 315.614 135.875 316.11C136.159 316.602 136.301 317.168 136.301 317.808C136.301 318.452 136.159 319.024 135.875 319.524C135.595 320.02 135.203 320.41 134.699 320.694C134.199 320.978 133.621 321.12 132.965 321.12ZM132.965 320.004C133.365 320.004 133.717 319.914 134.021 319.734C134.325 319.554 134.563 319.3 134.735 318.972C134.907 318.64 134.993 318.252 134.993 317.808C134.993 317.368 134.907 316.986 134.735 316.662C134.563 316.338 134.325 316.088 134.021 315.912C133.717 315.736 133.365 315.648 132.965 315.648C132.569 315.648 132.217 315.736 131.909 315.912C131.605 316.088 131.367 316.338 131.195 316.662C131.023 316.986 130.937 317.368 130.937 317.808C130.937 318.252 131.023 318.64 131.195 318.972C131.367 319.3 131.605 319.554 131.909 319.734C132.217 319.914 132.569 320.004 132.965 320.004ZM137.693 323.712C137.521 323.712 137.363 323.702 137.219 323.682C137.079 323.666 136.993 323.65 136.961 323.634V322.572C137.013 322.596 137.099 322.616 137.219 322.632C137.343 322.648 137.471 322.656 137.603 322.656C137.839 322.656 138.041 322.608 138.209 322.512C138.381 322.416 138.525 322.282 138.641 322.11C138.761 321.942 138.857 321.75 138.929 321.534L139.091 321.054L136.895 314.628H138.251L139.889 320.028H139.721L141.317 314.628H142.655L140.369 321.468C140.229 321.896 140.057 322.278 139.853 322.614C139.649 322.954 139.377 323.222 139.037 323.418C138.697 323.614 138.249 323.712 137.693 323.712ZM145.677 321.126C145.197 321.126 144.775 321.05 144.411 320.898C144.051 320.746 143.771 320.528 143.571 320.244C143.371 319.96 143.271 319.618 143.271 319.218C143.271 318.79 143.383 318.436 143.607 318.156C143.835 317.876 144.147 317.66 144.543 317.508C144.943 317.352 145.397 317.25 145.905 317.202C146.661 317.126 147.193 317.052 147.501 316.98C147.813 316.908 147.969 316.79 147.969 316.626C147.969 316.622 147.969 316.618 147.969 316.614C147.969 316.29 147.831 316.044 147.555 315.876C147.279 315.708 146.885 315.624 146.373 315.624C145.833 315.624 145.415 315.72 145.119 315.912C144.827 316.1 144.681 316.4 144.681 316.812H143.403C143.403 316.324 143.529 315.91 143.781 315.57C144.037 315.23 144.389 314.972 144.837 314.796C145.285 314.616 145.799 314.526 146.379 314.526C146.911 314.526 147.395 314.608 147.831 314.772C148.271 314.932 148.621 315.172 148.881 315.492C149.141 315.812 149.271 316.21 149.271 316.686C149.271 316.77 149.271 316.854 149.271 316.938C149.271 317.018 149.271 317.1 149.271 317.184V319.728C149.271 319.876 149.277 320.02 149.289 320.16C149.301 320.296 149.323 320.418 149.355 320.526C149.391 320.65 149.433 320.752 149.481 320.832C149.533 320.912 149.575 320.968 149.607 321H148.311C148.287 320.976 148.251 320.926 148.203 320.85C148.159 320.77 148.119 320.678 148.083 320.574C148.047 320.474 148.019 320.36 147.999 320.232C147.983 320.1 147.975 319.958 147.975 319.806L148.215 319.974C148.095 320.206 147.913 320.408 147.669 320.58C147.429 320.752 147.139 320.886 146.799 320.982C146.463 321.078 146.089 321.126 145.677 321.126ZM145.947 320.046C146.319 320.046 146.657 319.988 146.961 319.872C147.269 319.752 147.515 319.572 147.699 319.332C147.883 319.088 147.975 318.782 147.975 318.414V317.358L148.281 317.76C148.025 317.86 147.711 317.942 147.339 318.006C146.971 318.066 146.591 318.116 146.199 318.156C145.659 318.204 145.253 318.298 144.981 318.438C144.709 318.574 144.573 318.802 144.573 319.122C144.573 319.43 144.685 319.662 144.909 319.818C145.137 319.97 145.483 320.046 145.947 320.046ZM152.226 311.622V321H150.942V311.622H152.226ZM163.671 317.868C163.671 318.236 163.603 318.61 163.467 318.99C163.331 319.37 163.125 319.722 162.849 320.046C162.573 320.37 162.225 320.632 161.805 320.832C161.385 321.028 160.891 321.126 160.323 321.126C159.551 321.126 158.893 320.932 158.349 320.544C157.809 320.152 157.397 319.614 157.113 318.93C156.829 318.246 156.687 317.462 156.687 316.578C156.687 315.69 156.829 314.906 157.113 314.226C157.397 313.542 157.809 313.006 158.349 312.618C158.893 312.23 159.551 312.036 160.323 312.036C160.967 312.036 161.515 312.162 161.967 312.414C162.423 312.666 162.785 312.99 163.053 313.386C163.325 313.782 163.505 314.194 163.593 314.622C163.645 314.854 163.671 315.074 163.671 315.282H162.363C162.363 315.17 162.353 315.048 162.333 314.916C162.289 314.596 162.181 314.302 162.009 314.034C161.841 313.766 161.615 313.552 161.331 313.392C161.051 313.232 160.715 313.152 160.323 313.152C159.867 313.152 159.465 313.28 159.117 313.536C158.769 313.788 158.497 314.168 158.301 314.676C158.109 315.184 158.013 315.818 158.013 316.578C158.013 317.334 158.109 317.968 158.301 318.48C158.497 318.988 158.769 319.372 159.117 319.632C159.465 319.888 159.867 320.016 160.323 320.016C160.655 320.016 160.947 319.956 161.199 319.836C161.451 319.716 161.663 319.554 161.835 319.35C162.007 319.146 162.137 318.916 162.225 318.66C162.317 318.404 162.363 318.14 162.363 317.868H163.671ZM167.412 321.114C166.96 321.114 166.584 321.038 166.284 320.886C165.984 320.73 165.746 320.528 165.57 320.28C165.394 320.028 165.27 319.754 165.198 319.458C165.126 319.158 165.09 318.866 165.09 318.582C165.09 318.434 165.09 318.28 165.09 318.12C165.09 317.956 165.09 317.792 165.09 317.628V314.628H166.398V317.442C166.398 317.586 166.398 317.728 166.398 317.868C166.398 318.004 166.398 318.132 166.398 318.252C166.398 318.56 166.438 318.844 166.518 319.104C166.598 319.36 166.738 319.568 166.938 319.728C167.142 319.884 167.426 319.962 167.79 319.962C168.13 319.962 168.426 319.862 168.678 319.662C168.93 319.458 169.126 319.202 169.266 318.894C169.406 318.582 169.476 318.27 169.476 317.958L170.046 318.264C170.046 318.632 169.984 318.986 169.86 319.326C169.74 319.666 169.566 319.972 169.338 320.244C169.11 320.512 168.832 320.724 168.504 320.88C168.18 321.036 167.816 321.114 167.412 321.114ZM169.476 321V314.628H170.778V321H169.476ZM174.934 321.126C174.554 321.126 174.196 321.084 173.86 321C173.524 320.916 173.228 320.794 172.972 320.634C172.72 320.47 172.522 320.268 172.378 320.028C172.238 319.788 172.168 319.51 172.168 319.194C172.168 319.166 172.168 319.138 172.168 319.11C172.168 319.078 172.168 319.052 172.168 319.032H173.464C173.464 319.052 173.464 319.07 173.464 319.086C173.464 319.102 173.464 319.124 173.464 319.152C173.464 319.444 173.598 319.666 173.866 319.818C174.138 319.966 174.506 320.04 174.97 320.04C175.242 320.04 175.49 320.012 175.714 319.956C175.942 319.9 176.122 319.814 176.254 319.698C176.39 319.582 176.458 319.434 176.458 319.254C176.458 318.962 176.314 318.754 176.026 318.63C175.742 318.506 175.31 318.396 174.73 318.3C174.414 318.244 174.108 318.172 173.812 318.084C173.52 317.996 173.256 317.88 173.02 317.736C172.788 317.588 172.602 317.406 172.462 317.19C172.326 316.97 172.258 316.706 172.258 316.398C172.258 315.998 172.378 315.658 172.618 315.378C172.858 315.098 173.182 314.886 173.59 314.742C173.998 314.598 174.448 314.526 174.94 314.526C175.416 314.526 175.856 314.604 176.26 314.76C176.668 314.912 176.996 315.134 177.244 315.426C177.492 315.714 177.616 316.068 177.616 316.488C177.616 316.504 177.616 316.522 177.616 316.542C177.616 316.562 177.616 316.58 177.616 316.596H176.326C176.326 316.58 176.326 316.566 176.326 316.554C176.326 316.542 176.326 316.528 176.326 316.512C176.326 316.304 176.26 316.134 176.128 316.002C175.996 315.87 175.824 315.772 175.612 315.708C175.404 315.64 175.182 315.606 174.946 315.606C174.73 315.606 174.512 315.63 174.292 315.678C174.076 315.722 173.896 315.8 173.752 315.912C173.608 316.02 173.536 316.168 173.536 316.356C173.536 316.548 173.606 316.702 173.746 316.818C173.886 316.93 174.084 317.024 174.34 317.1C174.596 317.172 174.894 317.238 175.234 317.298C175.546 317.354 175.85 317.426 176.146 317.514C176.442 317.598 176.708 317.71 176.944 317.85C177.184 317.99 177.374 318.17 177.514 318.39C177.658 318.61 177.73 318.88 177.73 319.2C177.73 319.532 177.654 319.818 177.502 320.058C177.35 320.298 177.142 320.498 176.878 320.658C176.618 320.814 176.32 320.93 175.984 321.006C175.652 321.086 175.302 321.126 174.934 321.126ZM181.783 321.108C181.571 321.108 181.359 321.086 181.147 321.042C180.939 320.998 180.747 320.918 180.571 320.802C180.399 320.682 180.261 320.512 180.157 320.292C180.053 320.072 180.001 319.784 180.001 319.428C180.001 319.344 180.001 319.256 180.001 319.164C180.001 319.072 180.001 318.978 180.001 318.882V315.708H178.471V314.628H179.275C179.447 314.628 179.581 314.622 179.677 314.61C179.777 314.594 179.849 314.56 179.893 314.508C179.941 314.452 179.971 314.364 179.983 314.244C179.995 314.124 180.001 313.96 180.001 313.752V312.522H181.303V314.628H183.253V315.708H181.303V318.534C181.303 318.614 181.303 318.694 181.303 318.774C181.303 318.854 181.303 318.928 181.303 318.996C181.303 319.316 181.341 319.568 181.417 319.752C181.497 319.936 181.677 320.028 181.957 320.028C182.077 320.028 182.191 320.018 182.299 319.998C182.407 319.978 182.489 319.956 182.545 319.932V320.994C182.473 321.022 182.371 321.048 182.239 321.072C182.107 321.096 181.955 321.108 181.783 321.108ZM187.387 321.12C186.731 321.12 186.151 320.978 185.647 320.694C185.147 320.41 184.755 320.02 184.471 319.524C184.191 319.024 184.051 318.452 184.051 317.808C184.051 317.168 184.191 316.602 184.471 316.11C184.755 315.614 185.147 315.228 185.647 314.952C186.151 314.672 186.731 314.532 187.387 314.532C188.043 314.532 188.621 314.672 189.121 314.952C189.625 315.228 190.017 315.614 190.297 316.11C190.581 316.602 190.723 317.168 190.723 317.808C190.723 318.452 190.581 319.024 190.297 319.524C190.017 320.02 189.625 320.41 189.121 320.694C188.621 320.978 188.043 321.12 187.387 321.12ZM187.387 320.004C187.787 320.004 188.139 319.914 188.443 319.734C188.747 319.554 188.985 319.3 189.157 318.972C189.329 318.64 189.415 318.252 189.415 317.808C189.415 317.368 189.329 316.986 189.157 316.662C188.985 316.338 188.747 316.088 188.443 315.912C188.139 315.736 187.787 315.648 187.387 315.648C186.991 315.648 186.639 315.736 186.331 315.912C186.027 316.088 185.789 316.338 185.617 316.662C185.445 316.986 185.359 317.368 185.359 317.808C185.359 318.252 185.445 318.64 185.617 318.972C185.789 319.3 186.027 319.554 186.331 319.734C186.639 319.914 186.991 320.004 187.387 320.004ZM196.114 321V318.3C196.114 318.056 196.114 317.846 196.114 317.67C196.114 317.49 196.114 317.338 196.114 317.214C196.114 317.058 196.102 316.892 196.078 316.716C196.058 316.54 196.01 316.376 195.934 316.224C195.862 316.068 195.748 315.942 195.592 315.846C195.436 315.75 195.222 315.702 194.95 315.702C194.678 315.702 194.448 315.756 194.26 315.864C194.072 315.972 193.92 316.116 193.804 316.296C193.688 316.472 193.604 316.67 193.552 316.89C193.5 317.106 193.474 317.324 193.474 317.544L192.922 317.244C192.922 316.744 193.02 316.29 193.216 315.882C193.416 315.47 193.696 315.142 194.056 314.898C194.42 314.65 194.848 314.526 195.34 314.526C195.84 314.526 196.24 314.63 196.54 314.838C196.844 315.042 197.064 315.322 197.2 315.678C197.336 316.03 197.404 316.43 197.404 316.878C197.404 317.042 197.404 317.256 197.404 317.52C197.404 317.784 197.404 318.09 197.404 318.438V321H196.114ZM192.172 321V314.628H193.474V321H192.172ZM200.038 321V318.306C200.038 318.042 200.038 317.822 200.038 317.646C200.038 317.466 200.038 317.316 200.038 317.196C200.038 317.032 200.028 316.864 200.008 316.692C199.988 316.516 199.94 316.354 199.864 316.206C199.788 316.058 199.67 315.938 199.51 315.846C199.354 315.75 199.136 315.702 198.856 315.702C198.58 315.702 198.348 315.756 198.16 315.864C197.976 315.968 197.828 316.108 197.716 316.284C197.604 316.456 197.524 316.646 197.476 316.854C197.428 317.062 197.404 317.268 197.404 317.472L196.852 317.184C196.852 316.704 196.948 316.262 197.14 315.858C197.336 315.454 197.612 315.132 197.968 314.892C198.328 314.648 198.754 314.526 199.246 314.526C199.726 314.526 200.12 314.622 200.428 314.814C200.736 315.006 200.964 315.272 201.112 315.612C201.26 315.952 201.334 316.346 201.334 316.794C201.334 316.966 201.334 317.182 201.334 317.442C201.334 317.702 201.334 318.004 201.334 318.348V321H200.038ZM203.451 318.27V317.256H208.143L207.963 317.556C207.963 317.532 207.963 317.508 207.963 317.484C207.963 317.456 207.963 317.432 207.963 317.412C207.963 317.088 207.893 316.79 207.753 316.518C207.613 316.242 207.403 316.022 207.123 315.858C206.847 315.69 206.501 315.606 206.085 315.606C205.669 315.606 205.303 315.696 204.987 315.876C204.675 316.052 204.431 316.304 204.255 316.632C204.083 316.956 203.997 317.346 203.997 317.802C203.997 318.266 204.081 318.666 204.249 319.002C204.417 319.334 204.659 319.59 204.975 319.77C205.291 319.95 205.669 320.04 206.109 320.04C206.417 320.04 206.683 320.01 206.907 319.95C207.135 319.886 207.321 319.802 207.465 319.698C207.613 319.594 207.725 319.482 207.801 319.362C207.877 319.238 207.921 319.116 207.933 318.996H209.229C209.205 319.256 209.119 319.514 208.971 319.77C208.827 320.022 208.621 320.252 208.353 320.46C208.089 320.664 207.765 320.828 207.381 320.952C207.001 321.072 206.563 321.132 206.067 321.132C205.403 321.132 204.821 320.992 204.321 320.712C203.821 320.432 203.431 320.044 203.151 319.548C202.871 319.048 202.731 318.476 202.731 317.832C202.731 317.176 202.873 316.6 203.157 316.104C203.441 315.608 203.835 315.222 204.339 314.946C204.843 314.666 205.421 314.526 206.073 314.526C206.737 314.526 207.311 314.666 207.795 314.946C208.283 315.226 208.659 315.612 208.923 316.104C209.187 316.596 209.319 317.162 209.319 317.802C209.319 317.878 209.317 317.966 209.313 318.066C209.309 318.166 209.303 318.234 209.295 318.27H203.451ZM210.77 321V314.628H212.072V316.662L211.724 316.506C211.752 316.246 211.818 315.998 211.922 315.762C212.026 315.526 212.164 315.316 212.336 315.132C212.512 314.944 212.728 314.796 212.984 314.688C213.24 314.58 213.536 314.526 213.872 314.526C214.128 314.526 214.334 314.546 214.49 314.586C214.65 314.626 214.748 314.658 214.784 314.682L214.508 315.906C214.468 315.878 214.386 315.842 214.262 315.798C214.142 315.754 213.974 315.732 213.758 315.732C213.43 315.732 213.158 315.79 212.942 315.906C212.726 316.022 212.554 316.176 212.426 316.368C212.298 316.56 212.206 316.77 212.15 316.998C212.098 317.222 212.072 317.448 212.072 317.676V321H210.77ZM218.223 321.126C217.843 321.126 217.485 321.084 217.149 321C216.813 320.916 216.517 320.794 216.261 320.634C216.009 320.47 215.811 320.268 215.667 320.028C215.527 319.788 215.457 319.51 215.457 319.194C215.457 319.166 215.457 319.138 215.457 319.11C215.457 319.078 215.457 319.052 215.457 319.032H216.753C216.753 319.052 216.753 319.07 216.753 319.086C216.753 319.102 216.753 319.124 216.753 319.152C216.753 319.444 216.887 319.666 217.155 319.818C217.427 319.966 217.795 320.04 218.259 320.04C218.531 320.04 218.779 320.012 219.003 319.956C219.231 319.9 219.411 319.814 219.543 319.698C219.679 319.582 219.747 319.434 219.747 319.254C219.747 318.962 219.603 318.754 219.315 318.63C219.031 318.506 218.599 318.396 218.019 318.3C217.703 318.244 217.397 318.172 217.101 318.084C216.809 317.996 216.545 317.88 216.309 317.736C216.077 317.588 215.891 317.406 215.751 317.19C215.615 316.97 215.547 316.706 215.547 316.398C215.547 315.998 215.667 315.658 215.907 315.378C216.147 315.098 216.471 314.886 216.879 314.742C217.287 314.598 217.737 314.526 218.229 314.526C218.705 314.526 219.145 314.604 219.549 314.76C219.957 314.912 220.285 315.134 220.533 315.426C220.781 315.714 220.905 316.068 220.905 316.488C220.905 316.504 220.905 316.522 220.905 316.542C220.905 316.562 220.905 316.58 220.905 316.596H219.615C219.615 316.58 219.615 316.566 219.615 316.554C219.615 316.542 219.615 316.528 219.615 316.512C219.615 316.304 219.549 316.134 219.417 316.002C219.285 315.87 219.113 315.772 218.901 315.708C218.693 315.64 218.471 315.606 218.235 315.606C218.019 315.606 217.801 315.63 217.581 315.678C217.365 315.722 217.185 315.8 217.041 315.912C216.897 316.02 216.825 316.168 216.825 316.356C216.825 316.548 216.895 316.702 217.035 316.818C217.175 316.93 217.373 317.024 217.629 317.1C217.885 317.172 218.183 317.238 218.523 317.298C218.835 317.354 219.139 317.426 219.435 317.514C219.731 317.598 219.997 317.71 220.233 317.85C220.473 317.99 220.663 318.17 220.803 318.39C220.947 318.61 221.019 318.88 221.019 319.2C221.019 319.532 220.943 319.818 220.791 320.058C220.639 320.298 220.431 320.498 220.167 320.658C219.907 320.814 219.609 320.93 219.273 321.006C218.941 321.086 218.591 321.126 218.223 321.126Z" fill="#464E5F"/>
</g>
</g>
<defs>
<filter id="filter0_d_8121_217" x="-20" y="-16" width="633.017" height="388" filterUnits="userSpaceOnUse" color-interpolation-filters="sRGB">
<feFlood flood-opacity="0" result="BackgroundImageFix"/>
<feColorMatrix in="SourceAlpha" type="matrix" values="0 0 0 0 0 0 0 0 0 0 0 0 0 0 0 0 0 0 127 0" result="hardAlpha"/>
<feOffset dy="4"/>
<feGaussianBlur stdDeviation="10"/>
<feColorMatrix type="matrix" values="0 0 0 0 0.93198 0 0 0 0 0.93198 0 0 0 0 0.93198 0 0 0 0.501967 0"/>
<feBlend mode="normal" in2="BackgroundImageFix" result="effect1_dropShadow_8121_217"/>
<feBlend mode="normal" in="SourceGraphic" in2="effect1_dropShadow_8121_217" result="shape"/>
</filter>
<clipPath id="clip0_8121_217">
<rect width="516" height="165" fill="white" transform="translate(51 93)"/>
</clipPath>
<clipPath id="clip1_8121_217">
<rect width="484" height="163" fill="white" transform="translate(67 94)"/>
</clipPath>
<clipPath id="clip2_8121_217">
<rect width="386.268" height="12" fill="white" transform="translate(102.87 312)"/>
</clipPath>
<clipPath id="clip3_8121_217">
<rect width="126" height="12" fill="white" transform="translate(364 312)"/>
</clipPath>
<clipPath id="clip4_8121_217">
<rect width="110" height="12" fill="white" transform="translate(238 312)"/>
</clipPath>
<clipPath id="clip5_8121_217">
<rect width="115" height="12" fill="white" transform="translate(107 312)"/>
</clipPath>
</defs>
</svg>
