<svg width="411" height="389" viewBox="0 0 411 389" fill="none" xmlns="http://www.w3.org/2000/svg">
<g filter="url(#filter0_d_8121_363)">
<rect x="20" y="16" width="371" height="349" rx="26" fill="white"/>
<rect x="20.5" y="16.5" width="370" height="348" rx="25.5" stroke="#EDF2F6"/>
</g>
<rect x="23" y="283" width="368" height="1" fill="#EDF2F6"/>
<path d="M251.798 337.16C251.63 335.802 250.636 334.542 248.648 334.542C246.1 334.542 245.036 336.474 245.036 339.666C245.036 342.914 245.806 345 248.774 345C250.958 345 252.12 343.53 252.12 341.598C252.12 339.47 250.818 338.238 248.984 338.238C247.92 338.238 246.912 338.686 246.408 339.526C246.45 336.852 247.192 335.872 248.634 335.872C249.642 335.872 250.132 336.334 250.328 337.16H251.798ZM248.634 339.582C249.978 339.582 250.594 340.45 250.594 341.668C250.594 342.872 249.866 343.67 248.69 343.67C247.332 343.67 246.59 342.83 246.59 341.57C246.59 340.212 247.584 339.582 248.634 339.582ZM253.794 337.314H255.348C255.446 336.6 255.964 335.928 257.084 335.928C258.176 335.928 258.75 336.516 258.75 337.398C258.75 338.49 257.868 338.91 256.426 338.924H256.048V340.24H256.412C258.078 340.24 258.946 340.702 258.946 342.046C258.946 342.998 258.358 343.726 257.168 343.726C255.964 343.726 255.264 342.998 255.194 342.046H253.654C253.752 344.048 255.25 345.056 257.182 345.056C259.31 345.056 260.458 343.824 260.458 342.2C260.458 340.786 259.772 339.904 258.708 339.582V339.526C259.506 339.26 260.276 338.434 260.276 337.216C260.276 335.732 259.17 334.556 257.14 334.556C255.278 334.556 253.906 335.55 253.794 337.314ZM262.555 334.766V340.66H264.067C264.333 339.904 264.963 339.386 265.901 339.386C267.231 339.386 267.889 340.142 267.889 341.472C267.889 342.732 267.273 343.67 265.901 343.67C264.823 343.67 264.095 343.11 263.885 342.242H262.331C262.569 343.838 263.787 345 265.887 345C268.253 345 269.415 343.46 269.415 341.43C269.415 339.89 268.645 338.028 266.139 338.028C265.229 338.028 264.403 338.448 264.025 338.952V336.166H268.715V334.766H262.555Z" fill="#222B45"/>
<path d="M252.48 317.96C252.48 313.832 246.464 315.624 246.464 312.744C246.464 311.544 247.408 310.92 248.608 310.952C249.968 310.968 250.672 311.816 250.768 312.568H252.368C252.192 310.872 250.8 309.704 248.672 309.704C246.464 309.704 244.976 310.952 244.976 312.792C244.976 316.936 251.008 315.016 251.008 318.024C251.008 319.08 250.176 319.88 248.768 319.88C247.216 319.88 246.56 318.952 246.464 318.024H244.912C244.944 319.864 246.528 321.112 248.768 321.112C251.184 321.112 252.48 319.544 252.48 317.96ZM258.351 313.32C259.855 313.32 261.135 314.264 261.119 315.976H255.583C255.743 314.264 256.927 313.32 258.351 313.32ZM262.447 318.296H260.879C260.559 319.24 259.727 319.912 258.415 319.912C256.927 319.912 255.679 318.936 255.567 317.16H262.575C262.607 316.856 262.623 316.6 262.623 316.28C262.623 313.88 260.959 312.088 258.415 312.088C255.855 312.088 254.079 313.832 254.079 316.6C254.079 319.384 255.919 321.144 258.415 321.144C260.591 321.144 261.999 319.896 262.447 318.296ZM266.001 316.232C266.001 314.2 267.057 313.576 268.449 313.576H268.833V312.072C267.441 312.072 266.497 312.68 266.001 313.656V312.232H264.545V321H266.001V316.232ZM269.473 312.232L272.913 321H274.609L278.049 312.232H276.497L273.777 319.656L271.041 312.232H269.473ZM279.482 321H280.938V312.232H279.482V321ZM280.234 310.808C280.762 310.808 281.194 310.376 281.194 309.816C281.194 309.256 280.762 308.824 280.234 308.824C279.674 308.824 279.242 309.256 279.242 309.816C279.242 310.376 279.674 310.808 280.234 310.808ZM282.876 316.6C282.876 319.384 284.652 321.144 287.148 321.144C289.324 321.144 290.748 319.928 291.196 318.184H289.628C289.308 319.288 288.444 319.912 287.148 319.912C285.548 319.912 284.364 318.776 284.364 316.6C284.364 314.456 285.548 313.32 287.148 313.32C288.444 313.32 289.324 313.992 289.628 315.048H291.196C290.748 313.208 289.324 312.088 287.148 312.088C284.652 312.088 282.876 313.848 282.876 316.6ZM296.866 313.32C298.37 313.32 299.65 314.264 299.634 315.976H294.098C294.258 314.264 295.442 313.32 296.866 313.32ZM300.962 318.296H299.394C299.074 319.24 298.242 319.912 296.93 319.912C295.442 319.912 294.194 318.936 294.082 317.16H301.09C301.122 316.856 301.138 316.6 301.138 316.28C301.138 313.88 299.474 312.088 296.93 312.088C294.37 312.088 292.594 313.832 292.594 316.6C292.594 319.384 294.434 321.144 296.93 321.144C299.106 321.144 300.514 319.896 300.962 318.296ZM309.364 318.616C309.3 315.48 304.212 316.616 304.212 314.536C304.212 313.832 304.852 313.32 305.924 313.32C307.092 313.32 307.764 313.96 307.828 314.84H309.284C309.188 313.128 307.908 312.088 305.972 312.088C304.02 312.088 302.756 313.192 302.756 314.536C302.756 317.8 307.94 316.664 307.94 318.616C307.94 319.336 307.3 319.912 306.148 319.912C304.916 319.912 304.164 319.272 304.084 318.424H302.58C302.676 320.024 304.116 321.144 306.164 321.144C308.1 321.144 309.364 320.056 309.364 318.616Z" fill="#96A5B8"/>
<rect x="224" y="310" width="10" height="10" rx="5" fill="#00E096"/>
<path d="M122.932 345H124.542V334.794H121.63V336.25H122.932V345ZM125.965 346.946H127.001L128.695 343.082H126.959L125.965 346.946ZM130.971 345H132.581V334.794H129.669V336.25H130.971V345ZM134.746 337.314H136.3C136.398 336.6 136.916 335.928 138.036 335.928C139.128 335.928 139.702 336.516 139.702 337.398C139.702 338.49 138.82 338.91 137.378 338.924H137V340.24H137.364C139.03 340.24 139.898 340.702 139.898 342.046C139.898 342.998 139.31 343.726 138.12 343.726C136.916 343.726 136.216 342.998 136.146 342.046H134.606C134.704 344.048 136.202 345.056 138.134 345.056C140.262 345.056 141.41 343.824 141.41 342.2C141.41 340.786 140.724 339.904 139.66 339.582V339.526C140.458 339.26 141.228 338.434 141.228 337.216C141.228 335.732 140.122 334.556 138.092 334.556C136.23 334.556 134.858 335.55 134.746 337.314ZM143.506 334.766V340.66H145.018C145.284 339.904 145.914 339.386 146.852 339.386C148.182 339.386 148.84 340.142 148.84 341.472C148.84 342.732 148.224 343.67 146.852 343.67C145.774 343.67 145.046 343.11 144.836 342.242H143.282C143.52 343.838 144.738 345 146.838 345C149.204 345 150.366 343.46 150.366 341.43C150.366 339.89 149.596 338.028 147.09 338.028C146.18 338.028 145.354 338.448 144.976 338.952V336.166H149.666V334.766H143.506Z" fill="#222B45"/>
<path d="M126.408 319.464L122.904 309.848H121.352L125.56 321H127.24L131.448 309.848H129.912L126.408 319.464ZM141.365 316.6C141.365 313.832 139.429 312.088 136.933 312.088C134.453 312.088 132.501 313.832 132.501 316.6C132.501 319.384 134.389 321.144 136.869 321.144C139.365 321.144 141.365 319.384 141.365 316.6ZM133.989 316.6C133.989 314.392 135.381 313.352 136.917 313.352C138.421 313.352 139.877 314.392 139.877 316.6C139.877 318.824 138.389 319.864 136.869 319.864C135.349 319.864 133.989 318.824 133.989 316.6ZM143.279 321H144.735V309.16H143.279V321ZM154.992 312.232H153.536V317.048C153.536 318.936 152.528 319.864 151.024 319.864C149.552 319.864 148.576 318.952 148.576 317.176V312.232H147.136V317.368C147.136 319.88 148.72 321.128 150.736 321.128C151.904 321.128 152.976 320.616 153.536 319.704V321H154.992V312.232ZM170.107 321H171.547V315.832C171.547 313.32 169.995 312.072 167.995 312.072C166.651 312.072 165.403 312.76 164.891 314.024C164.315 312.712 163.115 312.072 161.675 312.072C160.523 312.072 159.483 312.568 158.907 313.496V312.232H157.451V321H158.907V316.168C158.907 314.28 159.915 313.336 161.387 313.336C162.827 313.336 163.787 314.248 163.787 316.04V321H165.227V316.168C165.227 314.28 166.235 313.336 167.707 313.336C169.147 313.336 170.107 314.248 170.107 316.04V321ZM177.663 313.32C179.167 313.32 180.447 314.264 180.431 315.976H174.895C175.055 314.264 176.239 313.32 177.663 313.32ZM181.759 318.296H180.191C179.871 319.24 179.039 319.912 177.727 319.912C176.239 319.912 174.991 318.936 174.879 317.16H181.887C181.919 316.856 181.935 316.6 181.935 316.28C181.935 313.88 180.271 312.088 177.727 312.088C175.167 312.088 173.391 313.832 173.391 316.6C173.391 319.384 175.231 321.144 177.727 321.144C179.903 321.144 181.311 319.896 181.759 318.296Z" fill="#96A5B8"/>
<rect x="101" y="310" width="10" height="10" rx="5" fill="#0095FF"/>
<rect x="203" y="306" width="1" height="24" fill="#BDC9D3"/>
<path d="M53.12 61.14L49.28 50.04H46.28L51.4 64H54.8L59.92 50.04H56.94L53.12 61.14ZM72.2988 58.46C72.2988 54.96 69.7988 52.74 66.5988 52.74C63.3988 52.74 60.8988 54.96 60.8988 58.46C60.8988 61.94 63.3188 64.18 66.5188 64.18C69.7388 64.18 72.2988 61.94 72.2988 58.46ZM63.7388 58.46C63.7388 56.24 65.0788 55.18 66.5588 55.18C68.0388 55.18 69.4188 56.24 69.4188 58.46C69.4188 60.66 67.9988 61.74 66.5188 61.74C65.0188 61.74 63.7388 60.66 63.7388 58.46ZM74.3527 64H77.1527V49.2H74.3527V64ZM90.3791 52.92H87.5591V59.02C87.5591 60.8 86.5991 61.76 85.0791 61.76C83.5991 61.76 82.6191 60.8 82.6191 59.02V52.92H79.8191V59.42C79.8191 62.46 81.6791 64.14 84.2591 64.14C85.6391 64.14 86.8591 63.54 87.5591 62.6V64H90.3791V52.92ZM108.642 64H111.442V57.5C111.442 54.44 109.562 52.76 106.902 52.76C105.282 52.76 103.822 53.62 103.102 54.88C102.342 53.5 100.922 52.76 99.2017 52.76C97.8217 52.76 96.6417 53.34 95.9417 54.26V52.92H93.1417V64H95.9417V57.88C95.9417 56.12 96.9217 55.2 98.4417 55.2C99.9217 55.2 100.902 56.12 100.902 57.88V64H103.702V57.88C103.702 56.12 104.682 55.2 106.182 55.2C107.662 55.2 108.642 56.12 108.642 57.88V64ZM118.859 55.04C120.299 55.04 121.459 55.96 121.499 57.42H116.239C116.459 55.9 117.519 55.04 118.859 55.04ZM124.119 60.52H121.099C120.739 61.26 120.079 61.86 118.879 61.86C117.479 61.86 116.359 60.94 116.219 59.3H124.319C124.379 58.94 124.399 58.58 124.399 58.22C124.399 54.92 122.139 52.74 118.939 52.74C115.659 52.74 113.379 54.96 113.379 58.46C113.379 61.94 115.719 64.18 118.939 64.18C121.679 64.18 123.519 62.56 124.119 60.52ZM130.028 52.92L134.108 64H137.508L141.608 52.92H138.628L135.828 61.42L133.028 52.92H130.028ZM151.781 60.84C151.701 56.78 145.561 58.04 145.561 56.02C145.561 55.38 146.101 54.96 147.141 54.96C148.241 54.96 148.921 55.54 149.001 56.4H151.681C151.521 54.2 149.901 52.74 147.221 52.74C144.481 52.74 142.841 54.22 142.841 56.06C142.841 60.12 149.101 58.86 149.101 60.84C149.101 61.48 148.501 61.98 147.401 61.98C146.281 61.98 145.501 61.34 145.401 60.5H142.581C142.701 62.56 144.641 64.18 147.421 64.18C150.121 64.18 151.781 62.74 151.781 60.84ZM168.605 59.96C168.605 55.04 161.445 56.6 161.445 53.8C161.445 52.66 162.265 52.12 163.365 52.16C164.565 52.18 165.305 52.9 165.365 53.82H168.445C168.265 51.3 166.305 49.84 163.445 49.84C160.565 49.84 158.525 51.36 158.525 53.88C158.505 58.94 165.705 57.12 165.705 60.14C165.705 61.14 164.925 61.84 163.605 61.84C162.305 61.84 161.565 61.1 161.485 59.98H158.485C158.525 62.62 160.765 64.14 163.665 64.14C166.845 64.14 168.605 62.16 168.605 59.96ZM175.792 55.04C177.232 55.04 178.392 55.96 178.432 57.42H173.172C173.392 55.9 174.452 55.04 175.792 55.04ZM181.052 60.52H178.032C177.672 61.26 177.012 61.86 175.812 61.86C174.412 61.86 173.292 60.94 173.152 59.3H181.252C181.312 58.94 181.332 58.58 181.332 58.22C181.332 54.92 179.072 52.74 175.872 52.74C172.592 52.74 170.312 54.96 170.312 58.46C170.312 61.94 172.652 64.18 175.872 64.18C178.612 64.18 180.452 62.56 181.052 60.52ZM186.176 58.48C186.176 56.34 187.176 55.7 188.836 55.7H189.576V52.76C188.036 52.76 186.876 53.5 186.176 54.64V52.92H183.376V64H186.176V58.48ZM190.282 52.92L194.362 64H197.762L201.862 52.92H198.882L196.082 61.42L193.282 52.92H190.282ZM203.435 64H206.235V52.92H203.435V64ZM204.855 51.6C205.835 51.6 206.575 50.88 206.575 49.96C206.575 49.04 205.835 48.32 204.855 48.32C203.855 48.32 203.135 49.04 203.135 49.96C203.135 50.88 203.855 51.6 204.855 51.6ZM208.281 58.46C208.281 61.94 210.561 64.18 213.761 64.18C216.521 64.18 218.381 62.62 218.981 60.26H215.961C215.621 61.26 214.901 61.78 213.741 61.78C212.181 61.78 211.141 60.62 211.141 58.46C211.141 56.3 212.181 55.12 213.741 55.12C214.901 55.12 215.641 55.72 215.961 56.66H218.981C218.381 54.18 216.521 52.74 213.761 52.74C210.561 52.74 208.281 54.98 208.281 58.46ZM225.792 55.04C227.232 55.04 228.392 55.96 228.432 57.42H223.172C223.392 55.9 224.452 55.04 225.792 55.04ZM231.052 60.52H228.032C227.672 61.26 227.012 61.86 225.812 61.86C224.412 61.86 223.292 60.94 223.152 59.3H231.252C231.312 58.94 231.332 58.58 231.332 58.22C231.332 54.92 229.072 52.74 225.872 52.74C222.592 52.74 220.312 54.96 220.312 58.46C220.312 61.94 222.652 64.18 225.872 64.18C228.612 64.18 230.452 62.56 231.052 60.52ZM238.142 50.04V64H245.542V61.78H240.942V50.04H238.142ZM252.081 55.04C253.521 55.04 254.681 55.96 254.721 57.42H249.461C249.681 55.9 250.741 55.04 252.081 55.04ZM257.341 60.52H254.321C253.961 61.26 253.301 61.86 252.101 61.86C250.701 61.86 249.581 60.94 249.441 59.3H257.541C257.601 58.94 257.621 58.58 257.621 58.22C257.621 54.92 255.361 52.74 252.161 52.74C248.881 52.74 246.601 54.96 246.601 58.46C246.601 61.94 248.941 64.18 252.161 64.18C254.901 64.18 256.741 62.56 257.341 60.52ZM258.485 52.92L262.565 64H265.965L270.065 52.92H267.085L264.285 61.42L261.485 52.92H258.485ZM276.398 55.04C277.838 55.04 278.998 55.96 279.038 57.42H273.778C273.998 55.9 275.058 55.04 276.398 55.04ZM281.658 60.52H278.638C278.278 61.26 277.618 61.86 276.418 61.86C275.018 61.86 273.898 60.94 273.758 59.3H281.858C281.918 58.94 281.938 58.58 281.938 58.22C281.938 54.92 279.678 52.74 276.478 52.74C273.198 52.74 270.918 54.96 270.918 58.46C270.918 61.94 273.258 64.18 276.478 64.18C279.218 64.18 281.058 62.56 281.658 60.52ZM283.982 64H286.782V49.2H283.982V64Z" fill="#05004E"/>
<rect x="68" y="124.143" width="12" height="138.857" rx="2" fill="#0095FF"/>
<rect x="68" y="184.143" width="12" height="78.8571" rx="2" fill="#00E096"/>
<rect x="172" y="124.143" width="12" height="138.857" rx="2" fill="#0095FF"/>
<rect x="172" y="227" width="12" height="36" rx="2" fill="#00E096"/>
<rect x="276" y="167" width="12" height="96" rx="2" fill="#0095FF"/>
<rect x="276" y="227" width="12" height="36" rx="2" fill="#00E096"/>
<rect x="328" y="158.429" width="12" height="104.571" rx="2" fill="#0095FF"/>
<rect x="328" y="201.286" width="12" height="61.7143" rx="2" fill="#00E096"/>
<rect x="224" y="137.857" width="12" height="125.143" rx="2" fill="#0095FF"/>
<rect x="224" y="221.857" width="12" height="41.1429" rx="2" fill="#00E096"/>
<rect x="120" y="95" width="12" height="168" rx="2" fill="#0095FF"/>
<rect x="120" y="173.857" width="12" height="89.1429" rx="2" fill="#00E096"/>
<defs>
<filter id="filter0_d_8121_363" x="0" y="0" width="411" height="389" filterUnits="userSpaceOnUse" color-interpolation-filters="sRGB">
<feFlood flood-opacity="0" result="BackgroundImageFix"/>
<feColorMatrix in="SourceAlpha" type="matrix" values="0 0 0 0 0 0 0 0 0 0 0 0 0 0 0 0 0 0 127 0" result="hardAlpha"/>
<feOffset dy="4"/>
<feGaussianBlur stdDeviation="10"/>
<feColorMatrix type="matrix" values="0 0 0 0 0.93198 0 0 0 0 0.93198 0 0 0 0 0.93198 0 0 0 0.501967 0"/>
<feBlend mode="normal" in2="BackgroundImageFix" result="effect1_dropShadow_8121_363"/>
<feBlend mode="normal" in="SourceGraphic" in2="effect1_dropShadow_8121_363" result="shape"/>
</filter>
</defs>
</svg>
